G04*
G04 #@! TF.GenerationSoftware,Altium Limited,Altium Designer,19.0.4 (130)*
G04*
G04 Layer_Color=65535*
%FSLAX25Y25*%
%MOIN*%
G70*
G01*
G75*
%ADD10C,0.01968*%
%ADD11C,0.00800*%
%ADD12C,0.00787*%
%ADD13C,0.00984*%
%ADD14C,0.01000*%
%ADD15C,0.00600*%
%ADD16C,0.00500*%
%ADD17C,0.00055*%
%ADD18C,0.00394*%
%ADD19R,0.04724X0.01181*%
%ADD20R,0.01181X0.04724*%
D10*
X315158Y284767D02*
G03*
X315158Y284767I-608J0D01*
G01*
D11*
X332047Y282488D02*
G03*
X334047Y280488I2000J0D01*
G01*
Y280488D02*
G03*
X336047Y282488I0J2000D01*
G01*
X322558Y282488D02*
X332047D01*
X336047D02*
X345158D01*
D12*
X233602Y55866D02*
G03*
X232028Y57441I-1575J0D01*
G01*
X232028Y51221D02*
G03*
X233602Y52795I-0J1575D01*
G01*
X221516Y52795D02*
G03*
X223091Y51221I1575J-0D01*
G01*
Y57441D02*
G03*
X221516Y55866I0J-1575D01*
G01*
X388228Y271791D02*
G03*
X386653Y270216I0J-1575D01*
G01*
X392874Y270217D02*
G03*
X391299Y271791I-1575J-0D01*
G01*
X391299Y259705D02*
G03*
X392874Y261280I0J1575D01*
G01*
X386653D02*
G03*
X388228Y259705I1575J0D01*
G01*
X353671Y342028D02*
G03*
X356171Y342028I1250J0D01*
G01*
X369035Y349567D02*
G03*
X367461Y351142I-1575J0D01*
G01*
X367461Y344921D02*
G03*
X369035Y346496I-0J1575D01*
G01*
X356949Y346496D02*
G03*
X358524Y344921I1575J-0D01*
G01*
Y351142D02*
G03*
X356949Y349567I0J-1575D01*
G01*
X317972Y294449D02*
G03*
X316398Y296024I-1575J0D01*
G01*
X316398Y289803D02*
G03*
X317972Y291378I-0J1575D01*
G01*
X305886Y291378D02*
G03*
X307461Y289803I1575J0D01*
G01*
Y296024D02*
G03*
X305886Y294449I0J-1575D01*
G01*
X349587Y290984D02*
G03*
X351161Y289409I1575J0D01*
G01*
X351161Y295630D02*
G03*
X349587Y294055I0J-1575D01*
G01*
X361673Y294055D02*
G03*
X360098Y295630I-1575J0D01*
G01*
Y289409D02*
G03*
X361673Y290984I-0J1575D01*
G01*
X192874Y221520D02*
G03*
X194449Y223095I0J1575D01*
G01*
X188228Y223095D02*
G03*
X189803Y221520I1575J0D01*
G01*
X189803Y233606D02*
G03*
X188228Y232031I0J-1575D01*
G01*
X194449D02*
G03*
X192874Y233606I-1575J-0D01*
G01*
X189016Y95807D02*
G03*
X187441Y94232I0J-1575D01*
G01*
X193661Y94232D02*
G03*
X192087Y95807I-1575J-0D01*
G01*
X192087Y83720D02*
G03*
X193661Y85295I0J1575D01*
G01*
X187441D02*
G03*
X189016Y83720I1575J0D01*
G01*
X322558Y246488D02*
X345158D01*
X322558D02*
Y282488D01*
X345158Y246488D02*
Y282488D01*
X377933Y327126D02*
X382402D01*
X385551D02*
X390020D01*
X377933Y320905D02*
X382402D01*
X390020D02*
Y327126D01*
X377933Y320905D02*
Y327126D01*
X385551Y320905D02*
X390020D01*
X223091Y57441D02*
X225984D01*
X233602Y52795D02*
Y55866D01*
X221516Y52795D02*
Y55866D01*
X229134Y57441D02*
X232028D01*
X229134Y51221D02*
X232028D01*
X223091Y51221D02*
X225984D01*
X386653Y261280D02*
Y264173D01*
X388228Y271791D02*
X391299D01*
X388228Y259705D02*
X391299D01*
X386653Y267323D02*
Y270216D01*
X392874Y267323D02*
Y270217D01*
X392874Y261280D02*
Y264173D01*
X350238Y342028D02*
X353671D01*
X356171D02*
X359604D01*
Y322028D02*
Y342028D01*
X350238Y322028D02*
X359604D01*
X350238D02*
Y342028D01*
X358524Y351142D02*
X361417D01*
X369035Y346496D02*
Y349567D01*
X356949Y346496D02*
Y349567D01*
X364567Y351142D02*
X367461D01*
X364567Y344921D02*
X367461D01*
X358524Y344921D02*
X361417D01*
X384114Y338150D02*
X388583D01*
X396201Y331929D02*
Y338150D01*
X384114Y331929D02*
Y338150D01*
X391732D02*
X396201D01*
X384114Y331929D02*
X388583D01*
X391732D02*
X396201D01*
X366575Y267579D02*
Y272047D01*
Y279665D02*
X372795D01*
X366575Y267579D02*
X372795D01*
X366575Y275197D02*
Y279665D01*
X372795Y267579D02*
Y272047D01*
Y275197D02*
Y279665D01*
X366181Y251161D02*
Y255630D01*
Y263248D02*
X372402D01*
X366181Y251161D02*
X372402D01*
X366181Y258780D02*
Y263248D01*
X372402Y251161D02*
Y255630D01*
Y258780D02*
Y263248D01*
X307461Y296024D02*
X310354D01*
X317972Y291378D02*
Y294449D01*
X305886Y291378D02*
Y294449D01*
X313504Y296024D02*
X316398D01*
X313504Y289803D02*
X316398D01*
X307461Y289803D02*
X310354D01*
X357205Y289409D02*
X360098D01*
X349587Y290984D02*
Y294055D01*
X361673Y290984D02*
Y294055D01*
X351161Y289409D02*
X354055D01*
X351161Y295630D02*
X354055D01*
X357205Y295630D02*
X360098D01*
X194449Y229138D02*
Y232031D01*
X189803Y221520D02*
X192874D01*
X189803Y233606D02*
X192874D01*
X194449Y223095D02*
Y225988D01*
X188228Y223095D02*
Y225988D01*
X188228Y229138D02*
Y232031D01*
X200118Y69567D02*
X210118D01*
Y49567D02*
Y69567D01*
X200118Y49567D02*
X210118D01*
X200118D02*
Y69567D01*
X187441Y85295D02*
Y88189D01*
X189016Y95807D02*
X192087D01*
X189016Y83720D02*
X192087D01*
X187441Y91339D02*
Y94232D01*
X193661Y91339D02*
Y94232D01*
X193661Y85295D02*
Y88189D01*
X227756Y99803D02*
X242323D01*
X227756Y73425D02*
Y99803D01*
Y73425D02*
X242323D01*
Y99803D01*
X323610Y57480D02*
X324370Y58268D01*
X318150D02*
X318910Y57480D01*
X318150Y58268D02*
Y61811D01*
Y69429D02*
X324370D01*
X318910Y57480D02*
X323610D01*
X318150Y64961D02*
Y69429D01*
X324370Y58268D02*
Y61811D01*
Y64961D02*
Y69429D01*
X325335Y95079D02*
Y100276D01*
Y86339D02*
Y91535D01*
X317185Y86339D02*
Y91535D01*
Y95079D02*
Y100276D01*
X325335D01*
X317185Y86339D02*
X325335D01*
X371378Y139382D02*
X372165Y138622D01*
X371378Y144083D02*
X372165Y144843D01*
X375709D01*
X383327Y138622D02*
Y144843D01*
X371378Y139382D02*
Y144083D01*
X378858Y144843D02*
X383327D01*
X372165Y138622D02*
X375709D01*
X378858D02*
X383327D01*
X393465Y145807D02*
X398661D01*
X402205D02*
X407402D01*
X402205Y137657D02*
X407402D01*
X393465D02*
X398661D01*
X393465D02*
Y145807D01*
X407402Y137657D02*
Y145807D01*
X438839Y159488D02*
Y165709D01*
X426752D02*
X438839D01*
X426752Y159488D02*
Y165709D01*
Y159488D02*
X438839D01*
X89457Y39500D02*
X103457D01*
X85039Y56300D02*
X87957D01*
X85039D02*
X85039Y48000D01*
X104957Y56300D02*
X107480D01*
X107874D01*
Y55906D02*
Y56300D01*
Y48000D02*
Y55906D01*
X384114Y351142D02*
X388583D01*
X396201Y344921D02*
Y351142D01*
X384114Y344921D02*
Y351142D01*
X391732D02*
X396201D01*
X384114Y344921D02*
X388583D01*
X391732D02*
X396201D01*
X412606Y260236D02*
Y262008D01*
Y268701D02*
Y270472D01*
X406799D02*
X412606D01*
X406799Y260236D02*
X412606D01*
D13*
X222332Y99906D02*
G03*
X222332Y99906I-492J0D01*
G01*
X403847Y273031D02*
G03*
X403847Y273031I-492J0D01*
G01*
D14*
X442126Y96457D02*
G03*
X442126Y96457I-9843J0D01*
G01*
X363779Y90158D02*
G03*
X363779Y90158I-15748J0D01*
G01*
X357756Y56299D02*
G03*
X357756Y56299I-9843J0D01*
G01*
X451575Y135827D02*
G03*
X451575Y135827I-15748J0D01*
G01*
X210039Y80067D02*
X211811Y81783D01*
X198819D02*
X200591Y80067D01*
X210039D01*
X198819Y81783D02*
Y89370D01*
Y103256D02*
X211811D01*
Y81783D02*
Y89370D01*
X198819Y95669D02*
Y103256D01*
X211811Y95669D02*
Y103256D01*
X198819Y81783D02*
X211811D01*
X219933Y60622D02*
Y68512D01*
X239909Y60622D02*
Y68512D01*
X219933D02*
X227559D01*
X232283D02*
X239909D01*
X232283Y60622D02*
X239909D01*
X219933D02*
X227559D01*
X218216Y62205D02*
Y66929D01*
Y62205D02*
X219933Y60622D01*
X218216Y66929D02*
X219933Y68512D01*
X370819Y130684D02*
X408819D01*
X370819Y43784D02*
Y130684D01*
Y43784D02*
X408819D01*
Y130684D01*
X445575Y330410D02*
X449827D01*
X445327Y330161D02*
X445575Y330410D01*
X445327Y320409D02*
Y330161D01*
Y338409D02*
Y348252D01*
Y338409D02*
X449579D01*
X445575Y348410D02*
X449827D01*
X445575Y320409D02*
X449827D01*
X424016Y314409D02*
Y354410D01*
X443327Y314409D02*
Y354410D01*
X449827Y314409D02*
Y354410D01*
X418327Y314409D02*
X449827D01*
X418327D02*
Y354410D01*
X449827D01*
X445575Y194583D02*
X449827D01*
X445327Y194335D02*
X445575Y194583D01*
X445327Y184583D02*
Y194335D01*
Y202583D02*
Y212425D01*
Y202583D02*
X449579D01*
X445575Y212583D02*
X449827D01*
X445575Y184583D02*
X449827D01*
X424016Y178583D02*
Y218583D01*
X443327Y178583D02*
Y218583D01*
X449827Y178583D02*
Y218583D01*
X418327Y178583D02*
X449827D01*
X418327D02*
Y218583D01*
X449827D01*
X445575Y261906D02*
X449827D01*
X445327Y261658D02*
X445575Y261906D01*
X445327Y251905D02*
Y261658D01*
Y269905D02*
Y279748D01*
Y269905D02*
X449579D01*
X445575Y279906D02*
X449827D01*
X445575Y251905D02*
X449827D01*
X424016Y245905D02*
Y285906D01*
X443327Y245905D02*
Y285906D01*
X449827Y245905D02*
Y285906D01*
X418327Y245905D02*
X449827D01*
X418327D02*
Y285906D01*
X449827D01*
X456994Y321260D02*
X462992D01*
Y324259D01*
X461993Y325259D01*
X460993D01*
X459993Y324259D01*
Y321260D01*
Y324259D01*
X458993Y325259D01*
X457994D01*
X456994Y324259D01*
Y321260D01*
X462992Y339254D02*
X458993D01*
X456994Y341253D01*
X458993Y343253D01*
X462992D01*
X459993D01*
Y339254D01*
X456207Y254409D02*
X462205D01*
Y258408D01*
X456207Y272403D02*
X462205D01*
X459206D01*
Y276402D01*
X456207D01*
X462205D01*
X411811Y185433D02*
X405813D01*
Y188432D01*
X406813Y189432D01*
X408812D01*
X409812Y188432D01*
Y185433D01*
X405813Y194430D02*
Y192431D01*
X406813Y191431D01*
X410811D01*
X411811Y192431D01*
Y194430D01*
X410811Y195430D01*
X406813D01*
X405813Y194430D01*
Y197429D02*
X411811D01*
X409812Y199428D01*
X411811Y201428D01*
X405813D01*
Y207426D02*
Y203427D01*
X411811D01*
Y207426D01*
X408812Y203427D02*
Y205427D01*
X411811Y209425D02*
X405813D01*
Y212424D01*
X406813Y213424D01*
X408812D01*
X409812Y212424D01*
Y209425D01*
Y211425D02*
X411811Y213424D01*
X456994Y185039D02*
X460993D01*
X462992Y187039D01*
X460993Y189038D01*
X456994D01*
X459993Y191037D02*
Y195036D01*
X457994Y193037D02*
X461993D01*
X456994Y203033D02*
X460993D01*
X462992Y205033D01*
X460993Y207032D01*
X456994D01*
X457994Y213030D02*
X456994Y212031D01*
Y210031D01*
X457994Y209032D01*
X461993D01*
X462992Y210031D01*
Y212031D01*
X461993Y213030D01*
X459993D01*
Y211031D01*
X85433Y34345D02*
Y30346D01*
X87432Y28346D01*
X89432Y30346D01*
Y34345D01*
X95430Y33345D02*
X94430Y34345D01*
X92431D01*
X91431Y33345D01*
Y29346D01*
X92431Y28346D01*
X94430D01*
X95430Y29346D01*
Y31345D01*
X93431D01*
X97429Y34345D02*
X101428D01*
X99428D01*
Y28346D01*
X103427D02*
Y34345D01*
X106426D01*
X107426Y33345D01*
Y31345D01*
X106426Y30346D01*
X103427D01*
X105427D02*
X107426Y28346D01*
X30315Y46549D02*
Y40551D01*
X32314Y42551D01*
X34314Y40551D01*
Y46549D01*
X36313D02*
X38312D01*
X37313D01*
Y40551D01*
X36313D01*
X38312D01*
X41311D02*
Y46549D01*
X44310D01*
X45310Y45550D01*
Y43550D01*
X44310Y42551D01*
X41311D01*
X43311D02*
X45310Y40551D01*
X51308Y46549D02*
X47309D01*
Y40551D01*
X51308D01*
X47309Y43550D02*
X49309D01*
X53307Y46549D02*
Y40551D01*
X57306D01*
X63304Y46549D02*
X59306D01*
Y40551D01*
X63304D01*
X59306Y43550D02*
X61305D01*
X69302Y45550D02*
X68303Y46549D01*
X66303D01*
X65304Y45550D01*
Y44550D01*
X66303Y43550D01*
X68303D01*
X69302Y42551D01*
Y41551D01*
X68303Y40551D01*
X66303D01*
X65304Y41551D01*
X75300Y45550D02*
X74301Y46549D01*
X72301D01*
X71302Y45550D01*
Y44550D01*
X72301Y43550D01*
X74301D01*
X75300Y42551D01*
Y41551D01*
X74301Y40551D01*
X72301D01*
X71302Y41551D01*
X82677Y335889D02*
Y339888D01*
X84676Y341887D01*
X86676Y339888D01*
Y335889D01*
Y338888D01*
X82677D01*
X88675Y339888D02*
Y336889D01*
X89675Y335889D01*
X92674D01*
Y339888D01*
X95673Y340887D02*
Y339888D01*
X94673D01*
X96673D01*
X95673D01*
Y336889D01*
X96673Y335889D01*
X100671D02*
X102671D01*
X103670Y336889D01*
Y338888D01*
X102671Y339888D01*
X100671D01*
X99672Y338888D01*
Y336889D01*
X100671Y335889D01*
X109668Y340887D02*
X108669Y341887D01*
X106669D01*
X105670Y340887D01*
Y339888D01*
X106669Y338888D01*
X108669D01*
X109668Y337889D01*
Y336889D01*
X108669Y335889D01*
X106669D01*
X105670Y336889D01*
X114667Y335889D02*
X112668D01*
X111668Y336889D01*
Y338888D01*
X112668Y339888D01*
X114667D01*
X115666Y338888D01*
Y337889D01*
X111668D01*
X118666Y340887D02*
Y339888D01*
X117666D01*
X119665D01*
X118666D01*
Y336889D01*
X119665Y335889D01*
X122664Y339888D02*
Y336889D01*
X123664Y335889D01*
X126663D01*
Y339888D01*
X128662Y333890D02*
Y339888D01*
X131661D01*
X132661Y338888D01*
Y336889D01*
X131661Y335889D01*
X128662D01*
X140658Y341887D02*
X144657D01*
X142658D01*
Y335889D01*
X146657Y339888D02*
Y335889D01*
Y337889D01*
X147656Y338888D01*
X148656Y339888D01*
X149655D01*
X153654D02*
X155654D01*
X156653Y338888D01*
Y335889D01*
X153654D01*
X152655Y336889D01*
X153654Y337889D01*
X156653D01*
X158653Y335889D02*
Y339888D01*
X161652D01*
X162651Y338888D01*
Y335889D01*
X164651D02*
X167650D01*
X168649Y336889D01*
X167650Y337889D01*
X165650D01*
X164651Y338888D01*
X165650Y339888D01*
X168649D01*
X170649Y333890D02*
Y339888D01*
X173648D01*
X174647Y338888D01*
Y336889D01*
X173648Y335889D01*
X170649D01*
X177647D02*
X179646D01*
X180646Y336889D01*
Y338888D01*
X179646Y339888D01*
X177647D01*
X176647Y338888D01*
Y336889D01*
X177647Y335889D01*
X182645Y339888D02*
Y335889D01*
Y337889D01*
X183644Y338888D01*
X184644Y339888D01*
X185644D01*
X189643Y340887D02*
Y339888D01*
X188643D01*
X190642D01*
X189643D01*
Y336889D01*
X190642Y335889D01*
X194641Y339888D02*
X196640D01*
X197640Y338888D01*
Y335889D01*
X194641D01*
X193641Y336889D01*
X194641Y337889D01*
X197640D01*
X200639Y340887D02*
Y339888D01*
X199639D01*
X201639D01*
X200639D01*
Y336889D01*
X201639Y335889D01*
X204638D02*
X206637D01*
X205637D01*
Y339888D01*
X204638D01*
X210636Y335889D02*
X212635D01*
X213635Y336889D01*
Y338888D01*
X212635Y339888D01*
X210636D01*
X209636Y338888D01*
Y336889D01*
X210636Y335889D01*
X215634D02*
Y339888D01*
X218633D01*
X219633Y338888D01*
Y335889D01*
X231629Y340887D02*
X230629Y341887D01*
X228630D01*
X227630Y340887D01*
Y336889D01*
X228630Y335889D01*
X230629D01*
X231629Y336889D01*
X234628Y335889D02*
X236627D01*
X237627Y336889D01*
Y338888D01*
X236627Y339888D01*
X234628D01*
X233628Y338888D01*
Y336889D01*
X234628Y335889D01*
X239626D02*
Y339888D01*
X242625D01*
X243625Y338888D01*
Y335889D01*
X246624Y340887D02*
Y339888D01*
X245624D01*
X247624D01*
X246624D01*
Y336889D01*
X247624Y335889D01*
X250623Y339888D02*
Y335889D01*
Y337889D01*
X251623Y338888D01*
X252622Y339888D01*
X253622D01*
X257621Y335889D02*
X259620D01*
X260620Y336889D01*
Y338888D01*
X259620Y339888D01*
X257621D01*
X256621Y338888D01*
Y336889D01*
X257621Y335889D01*
X262619D02*
X264618D01*
X263619D01*
Y341887D01*
X262619D01*
X277614Y340887D02*
X276614Y341887D01*
X274615D01*
X273615Y340887D01*
Y339888D01*
X274615Y338888D01*
X276614D01*
X277614Y337889D01*
Y336889D01*
X276614Y335889D01*
X274615D01*
X273615Y336889D01*
X279613Y339888D02*
Y336889D01*
X280613Y335889D01*
X283612D01*
Y334889D01*
X282612Y333890D01*
X281613D01*
X283612Y335889D02*
Y339888D01*
X285612Y335889D02*
X288611D01*
X289610Y336889D01*
X288611Y337889D01*
X286611D01*
X285612Y338888D01*
X286611Y339888D01*
X289610D01*
X292609Y340887D02*
Y339888D01*
X291610D01*
X293609D01*
X292609D01*
Y336889D01*
X293609Y335889D01*
X299607D02*
X297608D01*
X296608Y336889D01*
Y338888D01*
X297608Y339888D01*
X299607D01*
X300607Y338888D01*
Y337889D01*
X296608D01*
X302606Y335889D02*
Y339888D01*
X303606D01*
X304605Y338888D01*
Y335889D01*
Y338888D01*
X305605Y339888D01*
X306605Y338888D01*
Y335889D01*
X82677Y359927D02*
Y353929D01*
X85676D01*
X86676Y354929D01*
Y355928D01*
X85676Y356928D01*
X82677D01*
X85676D01*
X86676Y357928D01*
Y358927D01*
X85676Y359927D01*
X82677D01*
X89675Y357928D02*
X91674D01*
X92674Y356928D01*
Y353929D01*
X89675D01*
X88675Y354929D01*
X89675Y355928D01*
X92674D01*
X94673Y353929D02*
X97672D01*
X98672Y354929D01*
X97672Y355928D01*
X95673D01*
X94673Y356928D01*
X95673Y357928D01*
X98672D01*
X103670Y353929D02*
X101671D01*
X100671Y354929D01*
Y356928D01*
X101671Y357928D01*
X103670D01*
X104670Y356928D01*
Y355928D01*
X100671D01*
X110668Y359927D02*
Y353929D01*
X107669D01*
X106669Y354929D01*
Y356928D01*
X107669Y357928D01*
X110668D01*
X121665Y359927D02*
X119665D01*
X118666Y358927D01*
Y354929D01*
X119665Y353929D01*
X121665D01*
X122664Y354929D01*
Y358927D01*
X121665Y359927D01*
X124664Y353929D02*
Y357928D01*
X127663D01*
X128662Y356928D01*
Y353929D01*
X136660D02*
Y357928D01*
X138659Y359927D01*
X140658Y357928D01*
Y353929D01*
Y356928D01*
X136660D01*
X142658Y353929D02*
Y359927D01*
X145657D01*
X146657Y358927D01*
Y356928D01*
X145657Y355928D01*
X142658D01*
X144657D02*
X146657Y353929D01*
X148656D02*
Y359927D01*
X150655Y357928D01*
X152655Y359927D01*
Y353929D01*
X87070Y322902D02*
X86070Y323902D01*
X84071D01*
X83071Y322902D01*
Y318904D01*
X84071Y317904D01*
X86070D01*
X87070Y318904D01*
X90069Y317904D02*
X92068D01*
X93068Y318904D01*
Y320903D01*
X92068Y321903D01*
X90069D01*
X89069Y320903D01*
Y318904D01*
X90069Y317904D01*
X95067D02*
Y321903D01*
X98066D01*
X99066Y320903D01*
Y317904D01*
X102065Y322902D02*
Y321903D01*
X101065D01*
X103064D01*
X102065D01*
Y318904D01*
X103064Y317904D01*
X106063Y321903D02*
Y317904D01*
Y319903D01*
X107063Y320903D01*
X108063Y321903D01*
X109063D01*
X113061Y317904D02*
X115060D01*
X116060Y318904D01*
Y320903D01*
X115060Y321903D01*
X113061D01*
X112062Y320903D01*
Y318904D01*
X113061Y317904D01*
X118060D02*
X120059D01*
X119059D01*
Y323902D01*
X118060D01*
X129056Y317904D02*
Y323902D01*
X133055Y317904D01*
Y323902D01*
X136054Y317904D02*
X138053D01*
X139053Y318904D01*
Y320903D01*
X138053Y321903D01*
X136054D01*
X135054Y320903D01*
Y318904D01*
X136054Y317904D01*
X145051Y323902D02*
Y317904D01*
X142052D01*
X141052Y318904D01*
Y320903D01*
X142052Y321903D01*
X145051D01*
X150049Y317904D02*
X148050D01*
X147050Y318904D01*
Y320903D01*
X148050Y321903D01*
X150049D01*
X151049Y320903D01*
Y319903D01*
X147050D01*
X163045Y323902D02*
X159046D01*
Y317904D01*
X163045D01*
X159046Y320903D02*
X161046D01*
X165044Y321903D02*
X169043Y317904D01*
X167044Y319903D01*
X169043Y321903D01*
X165044Y317904D01*
X172042Y322902D02*
Y321903D01*
X171042D01*
X173042D01*
X172042D01*
Y318904D01*
X173042Y317904D01*
X179040D02*
X177041D01*
X176041Y318904D01*
Y320903D01*
X177041Y321903D01*
X179040D01*
X180040Y320903D01*
Y319903D01*
X176041D01*
X182039Y317904D02*
Y321903D01*
X185038D01*
X186038Y320903D01*
Y317904D01*
X192036Y323902D02*
Y317904D01*
X189037D01*
X188037Y318904D01*
Y320903D01*
X189037Y321903D01*
X192036D01*
X197034Y317904D02*
X195035D01*
X194035Y318904D01*
Y320903D01*
X195035Y321903D01*
X197034D01*
X198034Y320903D01*
Y319903D01*
X194035D01*
X204032Y323902D02*
Y317904D01*
X201033D01*
X200033Y318904D01*
Y320903D01*
X201033Y321903D01*
X204032D01*
X212029Y323902D02*
Y317904D01*
X215028D01*
X216028Y318904D01*
Y319903D01*
X215028Y320903D01*
X212029D01*
X215028D01*
X216028Y321903D01*
Y322902D01*
X215028Y323902D01*
X212029D01*
X219027Y317904D02*
X221026D01*
X222026Y318904D01*
Y320903D01*
X221026Y321903D01*
X219027D01*
X218027Y320903D01*
Y318904D01*
X219027Y317904D01*
X225025Y322902D02*
Y321903D01*
X224025D01*
X226025D01*
X225025D01*
Y318904D01*
X226025Y317904D01*
X230023Y322902D02*
Y321903D01*
X229024D01*
X231023D01*
X230023D01*
Y318904D01*
X231023Y317904D01*
X235022D02*
X237021D01*
X238021Y318904D01*
Y320903D01*
X237021Y321903D01*
X235022D01*
X234022Y320903D01*
Y318904D01*
X235022Y317904D01*
X240020D02*
Y321903D01*
X241020D01*
X242019Y320903D01*
Y317904D01*
Y320903D01*
X243019Y321903D01*
X244019Y320903D01*
Y317904D01*
X252016Y323902D02*
Y317904D01*
X255015D01*
X256015Y318904D01*
Y319903D01*
X255015Y320903D01*
X252016D01*
X255015D01*
X256015Y321903D01*
Y322902D01*
X255015Y323902D01*
X252016D01*
X259014Y317904D02*
X261013D01*
X262013Y318904D01*
Y320903D01*
X261013Y321903D01*
X259014D01*
X258014Y320903D01*
Y318904D01*
X259014Y317904D01*
X265012Y321903D02*
X267011D01*
X268011Y320903D01*
Y317904D01*
X265012D01*
X264012Y318904D01*
X265012Y319903D01*
X268011D01*
X270010Y321903D02*
Y317904D01*
Y319903D01*
X271010Y320903D01*
X272010Y321903D01*
X273009D01*
X280007Y323902D02*
Y317904D01*
X277008D01*
X276008Y318904D01*
Y320903D01*
X277008Y321903D01*
X280007D01*
X29977Y293621D02*
Y290382D01*
X29775Y289775D01*
X29572Y289573D01*
X29167Y289370D01*
X28763D01*
X28358Y289573D01*
X28155Y289775D01*
X27953Y290382D01*
Y290787D01*
X31070Y292811D02*
X31475Y293014D01*
X32082Y293621D01*
Y289370D01*
D15*
X25787Y108169D02*
Y285335D01*
X281693Y108169D02*
Y285335D01*
X25787Y108169D02*
X281693D01*
X203148Y130319D02*
X212597D01*
X226770Y126480D02*
Y136323D01*
Y233764D02*
Y243606D01*
X203148D02*
X226770D01*
X203148Y233764D02*
Y243606D01*
Y233764D02*
X226672D01*
X203148Y126480D02*
X226770D01*
X203148Y136323D02*
X226770D01*
X216928Y128350D02*
X226770D01*
X203148Y239768D02*
X211809D01*
X218109Y241736D02*
X226770D01*
X203148Y126480D02*
Y136323D01*
X80709Y126476D02*
Y136319D01*
X95669Y241732D02*
X104331D01*
X80709Y239764D02*
X89370D01*
X94488Y128347D02*
X104331D01*
X80709Y136319D02*
X104331D01*
X80709Y126476D02*
X104331D01*
X80709Y233760D02*
X104232D01*
X80709D02*
Y243602D01*
X104331D01*
Y233760D02*
Y243602D01*
Y126476D02*
Y136319D01*
X80709Y130315D02*
X90158D01*
D16*
X0Y377953D02*
X472441Y377953D01*
X19685Y0D02*
X19685Y397638D01*
X452756Y0D02*
X452756Y397638D01*
X0Y19685D02*
X472047D01*
X322558Y242834D02*
Y239797D01*
X322761Y239190D01*
X323166Y238785D01*
X323773Y238583D01*
X324178D01*
X324785Y238785D01*
X325190Y239190D01*
X325392Y239797D01*
Y242834D01*
X326971D02*
X329198D01*
X327983Y241214D01*
X328591D01*
X328996Y241012D01*
X329198Y240809D01*
X329400Y240202D01*
Y239797D01*
X329198Y239190D01*
X328793Y238785D01*
X328186Y238583D01*
X327579D01*
X326971Y238785D01*
X326769Y238987D01*
X326566Y239392D01*
X227559Y105826D02*
Y102789D01*
X227762Y102182D01*
X228166Y101777D01*
X228774Y101575D01*
X229179D01*
X229786Y101777D01*
X230191Y102182D01*
X230393Y102789D01*
Y105826D01*
X233592D02*
X231567Y102992D01*
X234604D01*
X233592Y105826D02*
Y101575D01*
X444213Y164881D02*
Y160630D01*
X446642D01*
X447107Y164071D02*
X447512Y164274D01*
X448119Y164881D01*
Y160630D01*
X414253Y44094D02*
X417289D01*
X417897Y44297D01*
X418301Y44702D01*
X418504Y45309D01*
Y45714D01*
X418301Y46321D01*
X417897Y46726D01*
X417289Y46929D01*
X414253D01*
X415265Y48305D02*
X415063D01*
X414658Y48507D01*
X414455Y48710D01*
X414253Y49115D01*
Y49924D01*
X414455Y50329D01*
X414658Y50532D01*
X415063Y50734D01*
X415468D01*
X415872Y50532D01*
X416480Y50127D01*
X418504Y48103D01*
Y50937D01*
X350394Y318818D02*
Y315781D01*
X350596Y315174D01*
X351001Y314769D01*
X351608Y314567D01*
X352013D01*
X352620Y314769D01*
X353025Y315174D01*
X353228Y315781D01*
Y318818D01*
X354402Y318008D02*
X354807Y318211D01*
X355414Y318818D01*
Y314567D01*
X366221Y241850D02*
X370472D01*
X366221D02*
Y243672D01*
X366424Y244280D01*
X366626Y244482D01*
X367031Y244684D01*
X367436D01*
X367841Y244482D01*
X368043Y244280D01*
X368246Y243672D01*
Y241850D01*
Y243267D02*
X370472Y244684D01*
X366221Y248470D02*
X370472Y246446D01*
X366221Y245636D02*
Y248470D01*
X366615Y282677D02*
X370866D01*
X366615D02*
Y284499D01*
X366817Y285106D01*
X367020Y285309D01*
X367425Y285511D01*
X367830D01*
X368234Y285309D01*
X368437Y285106D01*
X368639Y284499D01*
Y282677D01*
Y284094D02*
X370866Y285511D01*
X367222Y288892D02*
X366817Y288689D01*
X366615Y288082D01*
Y287677D01*
X366817Y287070D01*
X367425Y286665D01*
X368437Y286463D01*
X369449D01*
X370259Y286665D01*
X370664Y287070D01*
X370866Y287677D01*
Y287880D01*
X370664Y288487D01*
X370259Y288892D01*
X369652Y289094D01*
X369449D01*
X368842Y288892D01*
X368437Y288487D01*
X368234Y287880D01*
Y287677D01*
X368437Y287070D01*
X368842Y286665D01*
X369449Y286463D01*
X309923Y86612D02*
X314174D01*
X309923D02*
Y88434D01*
X310125Y89041D01*
X310328Y89243D01*
X310732Y89446D01*
X311137D01*
X311542Y89243D01*
X311744Y89041D01*
X311947Y88434D01*
Y86612D01*
Y88029D02*
X314174Y89446D01*
X309923Y92826D02*
Y90802D01*
X311744Y90600D01*
X311542Y90802D01*
X311340Y91409D01*
Y92017D01*
X311542Y92624D01*
X311947Y93029D01*
X312554Y93231D01*
X312959D01*
X313566Y93029D01*
X313971Y92624D01*
X314174Y92017D01*
Y91409D01*
X313971Y90802D01*
X313769Y90600D01*
X313364Y90397D01*
X398661Y152676D02*
Y148425D01*
Y152676D02*
X400483D01*
X401091Y152474D01*
X401293Y152271D01*
X401496Y151866D01*
Y151462D01*
X401293Y151057D01*
X401091Y150854D01*
X400483Y150652D01*
X398661D01*
X400078D02*
X401496Y148425D01*
X404471Y152676D02*
X402447Y149842D01*
X405483D01*
X404471Y152676D02*
Y148425D01*
X401181Y337322D02*
Y333071D01*
Y337322D02*
X403003D01*
X403610Y337120D01*
X403813Y336917D01*
X404015Y336512D01*
Y336107D01*
X403813Y335702D01*
X403610Y335500D01*
X403003Y335298D01*
X401181D01*
X402598D02*
X404015Y333071D01*
X405371Y337322D02*
X407598D01*
X406384Y335702D01*
X406991D01*
X407396Y335500D01*
X407598Y335298D01*
X407801Y334690D01*
Y334285D01*
X407598Y333678D01*
X407193Y333273D01*
X406586Y333071D01*
X405979D01*
X405371Y333273D01*
X405169Y333476D01*
X404967Y333881D01*
X384230Y358311D02*
Y354060D01*
Y358311D02*
X386052D01*
X386660Y358108D01*
X386862Y357906D01*
X387064Y357501D01*
Y357096D01*
X386862Y356691D01*
X386660Y356489D01*
X386052Y356286D01*
X384230D01*
X385647D02*
X387064Y354060D01*
X388218Y357298D02*
Y357501D01*
X388421Y357906D01*
X388623Y358108D01*
X389028Y358311D01*
X389838D01*
X390243Y358108D01*
X390445Y357906D01*
X390647Y357501D01*
Y357096D01*
X390445Y356691D01*
X390040Y356084D01*
X388016Y354060D01*
X390850D01*
X396102Y326298D02*
Y322047D01*
Y326298D02*
X397924D01*
X398532Y326096D01*
X398734Y325893D01*
X398936Y325489D01*
Y325084D01*
X398734Y324679D01*
X398532Y324476D01*
X397924Y324274D01*
X396102D01*
X397519D02*
X398936Y322047D01*
X399888Y325489D02*
X400293Y325691D01*
X400900Y326298D01*
Y322047D01*
X192858Y51583D02*
Y53404D01*
X192655Y54012D01*
X192453Y54214D01*
X192048Y54417D01*
X191441D01*
X191036Y54214D01*
X190833Y54012D01*
X190631Y53404D01*
Y51583D01*
X194882D01*
X191441Y55368D02*
X191238Y55773D01*
X190631Y56380D01*
X194882D01*
X420312Y225879D02*
Y222640D01*
X420110Y222032D01*
X419908Y221830D01*
X419503Y221628D01*
X419098D01*
X418693Y221830D01*
X418491Y222032D01*
X418288Y222640D01*
Y223045D01*
X423835Y225271D02*
X423632Y225676D01*
X423025Y225879D01*
X422620D01*
X422013Y225676D01*
X421608Y225069D01*
X421406Y224057D01*
Y223045D01*
X421608Y222235D01*
X422013Y221830D01*
X422620Y221628D01*
X422823D01*
X423430Y221830D01*
X423835Y222235D01*
X424037Y222842D01*
Y223045D01*
X423835Y223652D01*
X423430Y224057D01*
X422823Y224259D01*
X422620D01*
X422013Y224057D01*
X421608Y223652D01*
X421406Y223045D01*
X420367Y361673D02*
Y358434D01*
X420164Y357827D01*
X419962Y357625D01*
X419557Y357422D01*
X419152D01*
X418747Y357625D01*
X418545Y357827D01*
X418342Y358434D01*
Y358839D01*
X423889Y361673D02*
X421865D01*
X421662Y359851D01*
X421865Y360054D01*
X422472Y360256D01*
X423079D01*
X423687Y360054D01*
X424092Y359649D01*
X424294Y359042D01*
Y358637D01*
X424092Y358029D01*
X423687Y357625D01*
X423079Y357422D01*
X422472D01*
X421865Y357625D01*
X421662Y357827D01*
X421460Y358232D01*
X420312Y293124D02*
Y289885D01*
X420110Y289277D01*
X419908Y289075D01*
X419503Y288872D01*
X419098D01*
X418693Y289075D01*
X418491Y289277D01*
X418288Y289885D01*
Y290289D01*
X423430Y293124D02*
X421406Y290289D01*
X424442D01*
X423430Y293124D02*
Y288872D01*
X84770Y67997D02*
Y64759D01*
X84568Y64151D01*
X84365Y63949D01*
X83960Y63747D01*
X83555D01*
X83151Y63949D01*
X82948Y64151D01*
X82746Y64759D01*
Y65163D01*
X86268Y67997D02*
X88495D01*
X87280Y66378D01*
X87887D01*
X88292Y66176D01*
X88495Y65973D01*
X88697Y65366D01*
Y64961D01*
X88495Y64354D01*
X88090Y63949D01*
X87483Y63747D01*
X86875D01*
X86268Y63949D01*
X86066Y64151D01*
X85863Y64556D01*
X401595Y280780D02*
Y276529D01*
Y280780D02*
X403012D01*
X403620Y280578D01*
X404025Y280173D01*
X404227Y279768D01*
X404429Y279161D01*
Y278149D01*
X404227Y277541D01*
X404025Y277136D01*
X403620Y276731D01*
X403012Y276529D01*
X401595D01*
X405786Y280780D02*
X408012D01*
X406798Y279161D01*
X407405D01*
X407810Y278958D01*
X408012Y278756D01*
X408215Y278149D01*
Y277744D01*
X408012Y277136D01*
X407608Y276731D01*
X407000Y276529D01*
X406393D01*
X405786Y276731D01*
X405583Y276934D01*
X405381Y277339D01*
X369508Y152283D02*
Y148031D01*
Y152283D02*
X370925D01*
X371532Y152080D01*
X371937Y151675D01*
X372140Y151270D01*
X372342Y150663D01*
Y149651D01*
X372140Y149044D01*
X371937Y148639D01*
X371532Y148234D01*
X370925Y148031D01*
X369508D01*
X373496Y151270D02*
Y151473D01*
X373698Y151878D01*
X373901Y152080D01*
X374306Y152283D01*
X375115D01*
X375520Y152080D01*
X375723Y151878D01*
X375925Y151473D01*
Y151068D01*
X375723Y150663D01*
X375318Y150056D01*
X373293Y148031D01*
X376127D01*
X309922Y57874D02*
X314173D01*
X309922D02*
Y59291D01*
X310125Y59898D01*
X310529Y60303D01*
X310934Y60506D01*
X311542Y60708D01*
X312554D01*
X313161Y60506D01*
X313566Y60303D01*
X313971Y59898D01*
X314173Y59291D01*
Y57874D01*
X310732Y61659D02*
X310529Y62064D01*
X309922Y62672D01*
X314173D01*
X241619Y55601D02*
X241417Y56006D01*
X241012Y56411D01*
X240607Y56613D01*
X239797D01*
X239392Y56411D01*
X238987Y56006D01*
X238785Y55601D01*
X238583Y54994D01*
Y53982D01*
X238785Y53374D01*
X238987Y52969D01*
X239392Y52565D01*
X239797Y52362D01*
X240607D01*
X241012Y52565D01*
X241417Y52969D01*
X241619Y53374D01*
X242813Y55804D02*
X243218Y56006D01*
X243826Y56613D01*
Y52362D01*
X246336Y56613D02*
X248563D01*
X247348Y54994D01*
X247955D01*
X248360Y54791D01*
X248563Y54589D01*
X248765Y53982D01*
Y53577D01*
X248563Y52969D01*
X248158Y52565D01*
X247550Y52362D01*
X246943D01*
X246336Y52565D01*
X246133Y52767D01*
X245931Y53172D01*
X188493Y73509D02*
X188089Y73307D01*
X187684Y72902D01*
X187481Y72497D01*
Y71687D01*
X187684Y71282D01*
X188089Y70877D01*
X188493Y70675D01*
X189101Y70473D01*
X190113D01*
X190720Y70675D01*
X191125Y70877D01*
X191530Y71282D01*
X191732Y71687D01*
Y72497D01*
X191530Y72902D01*
X191125Y73307D01*
X190720Y73509D01*
X188291Y74703D02*
X188089Y75108D01*
X187481Y75715D01*
X191732D01*
X188493Y78023D02*
X188291D01*
X187886Y78226D01*
X187684Y78428D01*
X187481Y78833D01*
Y79643D01*
X187684Y80048D01*
X187886Y80250D01*
X188291Y80452D01*
X188696D01*
X189101Y80250D01*
X189708Y79845D01*
X191732Y77821D01*
Y80655D01*
X188863Y103239D02*
X188661Y103644D01*
X188256Y104049D01*
X187851Y104251D01*
X187041D01*
X186636Y104049D01*
X186232Y103644D01*
X186029Y103239D01*
X185827Y102632D01*
Y101619D01*
X186029Y101012D01*
X186232Y100607D01*
X186636Y100202D01*
X187041Y100000D01*
X187851D01*
X188256Y100202D01*
X188661Y100607D01*
X188863Y101012D01*
X190058Y103441D02*
X190462Y103644D01*
X191070Y104251D01*
Y100000D01*
X193175Y103441D02*
X193580Y103644D01*
X194187Y104251D01*
Y100000D01*
X381013Y263666D02*
X380608Y263464D01*
X380203Y263059D01*
X380001Y262654D01*
Y261844D01*
X380203Y261440D01*
X380608Y261035D01*
X381013Y260832D01*
X381620Y260630D01*
X382632D01*
X383240Y260832D01*
X383645Y261035D01*
X384050Y261440D01*
X384252Y261844D01*
Y262654D01*
X384050Y263059D01*
X383645Y263464D01*
X383240Y263666D01*
X380811Y264861D02*
X380608Y265266D01*
X380001Y265873D01*
X384252D01*
X380001Y269193D02*
X380203Y268585D01*
X380811Y268181D01*
X381823Y267978D01*
X382430D01*
X383442Y268181D01*
X384050Y268585D01*
X384252Y269193D01*
Y269598D01*
X384050Y270205D01*
X383442Y270610D01*
X382430Y270812D01*
X381823D01*
X380811Y270610D01*
X380203Y270205D01*
X380001Y269598D01*
Y269193D01*
X259729Y65837D02*
X259527Y66242D01*
X259122Y66647D01*
X258717Y66849D01*
X257908D01*
X257503Y66647D01*
X257098Y66242D01*
X256895Y65837D01*
X256693Y65230D01*
Y64218D01*
X256895Y63611D01*
X257098Y63206D01*
X257503Y62801D01*
X257908Y62598D01*
X258717D01*
X259122Y62801D01*
X259527Y63206D01*
X259729Y63611D01*
X263555Y65433D02*
X263353Y64825D01*
X262948Y64420D01*
X262341Y64218D01*
X262138D01*
X261531Y64420D01*
X261126Y64825D01*
X260924Y65433D01*
Y65635D01*
X261126Y66242D01*
X261531Y66647D01*
X262138Y66849D01*
X262341D01*
X262948Y66647D01*
X263353Y66242D01*
X263555Y65433D01*
Y64420D01*
X263353Y63408D01*
X262948Y62801D01*
X262341Y62598D01*
X261936D01*
X261329Y62801D01*
X261126Y63206D01*
X342407Y293751D02*
X342204Y294156D01*
X341799Y294560D01*
X341394Y294763D01*
X340585D01*
X340180Y294560D01*
X339775Y294156D01*
X339573Y293751D01*
X339370Y293143D01*
Y292131D01*
X339573Y291524D01*
X339775Y291119D01*
X340180Y290714D01*
X340585Y290512D01*
X341394D01*
X341799Y290714D01*
X342204Y291119D01*
X342407Y291524D01*
X344613Y294763D02*
X344006Y294560D01*
X343803Y294156D01*
Y293751D01*
X344006Y293346D01*
X344411Y293143D01*
X345220Y292941D01*
X345828Y292739D01*
X346233Y292334D01*
X346435Y291929D01*
Y291321D01*
X346233Y290917D01*
X346030Y290714D01*
X345423Y290512D01*
X344613D01*
X344006Y290714D01*
X343803Y290917D01*
X343601Y291321D01*
Y291929D01*
X343803Y292334D01*
X344208Y292739D01*
X344815Y292941D01*
X345625Y293143D01*
X346030Y293346D01*
X346233Y293751D01*
Y294156D01*
X346030Y294560D01*
X345423Y294763D01*
X344613D01*
X324533Y293790D02*
X324330Y294195D01*
X323925Y294600D01*
X323520Y294802D01*
X322711D01*
X322306Y294600D01*
X321901Y294195D01*
X321698Y293790D01*
X321496Y293183D01*
Y292171D01*
X321698Y291563D01*
X321901Y291159D01*
X322306Y290754D01*
X322711Y290551D01*
X323520D01*
X323925Y290754D01*
X324330Y291159D01*
X324533Y291563D01*
X328561Y294802D02*
X326537Y290551D01*
X325727Y294802D02*
X328561D01*
X360816Y45950D02*
X360411Y45747D01*
X360006Y45343D01*
X359804Y44938D01*
Y44128D01*
X360006Y43723D01*
X360411Y43318D01*
X360816Y43116D01*
X361423Y42913D01*
X362436D01*
X363043Y43116D01*
X363448Y43318D01*
X363853Y43723D01*
X364055Y44128D01*
Y44938D01*
X363853Y45343D01*
X363448Y45747D01*
X363043Y45950D01*
X360411Y49573D02*
X360006Y49371D01*
X359804Y48764D01*
Y48359D01*
X360006Y47752D01*
X360614Y47347D01*
X361626Y47144D01*
X362638D01*
X363448Y47347D01*
X363853Y47752D01*
X364055Y48359D01*
Y48561D01*
X363853Y49169D01*
X363448Y49573D01*
X362841Y49776D01*
X362638D01*
X362031Y49573D01*
X361626Y49169D01*
X361423Y48561D01*
Y48359D01*
X361626Y47752D01*
X362031Y47347D01*
X362638Y47144D01*
X360541Y67800D02*
X360136Y67598D01*
X359731Y67193D01*
X359528Y66788D01*
Y65978D01*
X359731Y65574D01*
X360136Y65169D01*
X360541Y64966D01*
X361148Y64764D01*
X362160D01*
X362767Y64966D01*
X363172Y65169D01*
X363577Y65574D01*
X363779Y65978D01*
Y66788D01*
X363577Y67193D01*
X363172Y67598D01*
X362767Y67800D01*
X359528Y71424D02*
Y69399D01*
X361350Y69197D01*
X361148Y69399D01*
X360946Y70007D01*
Y70614D01*
X361148Y71221D01*
X361553Y71626D01*
X362160Y71829D01*
X362565D01*
X363172Y71626D01*
X363577Y71221D01*
X363779Y70614D01*
Y70007D01*
X363577Y69399D01*
X363375Y69197D01*
X362970Y68995D01*
X443607Y114262D02*
X443405Y114667D01*
X443000Y115072D01*
X442595Y115275D01*
X441785D01*
X441381Y115072D01*
X440976Y114667D01*
X440773Y114262D01*
X440571Y113655D01*
Y112643D01*
X440773Y112036D01*
X440976Y111631D01*
X441381Y111226D01*
X441785Y111024D01*
X442595D01*
X443000Y111226D01*
X443405Y111631D01*
X443607Y112036D01*
X446826Y115275D02*
X444802Y112441D01*
X447838D01*
X446826Y115275D02*
Y111024D01*
X422328Y114066D02*
X422125Y114471D01*
X421721Y114875D01*
X421316Y115078D01*
X420506D01*
X420101Y114875D01*
X419696Y114471D01*
X419494Y114066D01*
X419291Y113458D01*
Y112446D01*
X419494Y111839D01*
X419696Y111434D01*
X420101Y111029D01*
X420506Y110827D01*
X421316D01*
X421721Y111029D01*
X422125Y111434D01*
X422328Y111839D01*
X423927Y115078D02*
X426154D01*
X424939Y113458D01*
X425547D01*
X425951Y113256D01*
X426154Y113054D01*
X426356Y112446D01*
Y112041D01*
X426154Y111434D01*
X425749Y111029D01*
X425142Y110827D01*
X424534D01*
X423927Y111029D01*
X423725Y111232D01*
X423522Y111636D01*
X190068Y214064D02*
X189663Y213862D01*
X189259Y213457D01*
X189056Y213052D01*
Y212242D01*
X189259Y211837D01*
X189663Y211432D01*
X190068Y211230D01*
X190675Y211028D01*
X191688D01*
X192295Y211230D01*
X192700Y211432D01*
X193105Y211837D01*
X193307Y212242D01*
Y213052D01*
X193105Y213457D01*
X192700Y213862D01*
X192295Y214064D01*
X190068Y215461D02*
X189866D01*
X189461Y215663D01*
X189259Y215866D01*
X189056Y216270D01*
Y217080D01*
X189259Y217485D01*
X189461Y217688D01*
X189866Y217890D01*
X190271D01*
X190675Y217688D01*
X191283Y217283D01*
X193307Y215258D01*
Y218092D01*
X351462Y349302D02*
X351259Y349707D01*
X350854Y350112D01*
X350449Y350314D01*
X349640D01*
X349235Y350112D01*
X348830Y349707D01*
X348628Y349302D01*
X348425Y348695D01*
Y347682D01*
X348628Y347075D01*
X348830Y346670D01*
X349235Y346265D01*
X349640Y346063D01*
X350449D01*
X350854Y346265D01*
X351259Y346670D01*
X351462Y347075D01*
X352656Y349504D02*
X353061Y349707D01*
X353668Y350314D01*
Y346063D01*
D17*
X45372Y364434D02*
X45610D01*
X55492D02*
X55730D01*
X45042Y364379D02*
X45500D01*
X55602D02*
X56060D01*
X44822Y364324D02*
X45445D01*
X55657D02*
X56280D01*
X44602Y364269D02*
X45335D01*
X55767D02*
X56501D01*
X44437Y364214D02*
X45281D01*
X55822D02*
X56665D01*
X44272Y364159D02*
X45170D01*
X55932D02*
X56830D01*
X44107Y364104D02*
X45115D01*
X55987D02*
X56995D01*
X43942Y364049D02*
X45006D01*
X56097D02*
X57161D01*
X43777Y363994D02*
X44951D01*
X56152D02*
X57326D01*
X43612Y363939D02*
X44840D01*
X56262D02*
X57490D01*
X43502Y363884D02*
X44785D01*
X56317D02*
X57600D01*
X43337Y363829D02*
X44675D01*
X56427D02*
X57765D01*
X43227Y363774D02*
X44620D01*
X56482D02*
X57876D01*
X43117Y363719D02*
X44565D01*
X56537D02*
X57986D01*
X43007Y363664D02*
X44456D01*
X56647D02*
X58096D01*
X42842Y363609D02*
X44401D01*
X56702D02*
X58261D01*
X42732Y363554D02*
X44290D01*
X56812D02*
X58371D01*
X42622Y363499D02*
X44235D01*
X56867D02*
X58480D01*
X42512Y363444D02*
X44126D01*
X56977D02*
X58590D01*
X42402Y363389D02*
X44070D01*
X57032D02*
X58701D01*
X42292Y363334D02*
X44015D01*
X57087D02*
X58811D01*
X42237Y363279D02*
X43905D01*
X57197D02*
X58865D01*
X42127Y363224D02*
X43850D01*
X57252D02*
X58975D01*
X42017Y363169D02*
X43740D01*
X57362D02*
X59086D01*
X41907Y363114D02*
X43685D01*
X57417D02*
X59196D01*
X41797Y363059D02*
X43576D01*
X57527D02*
X59305D01*
X41742Y363004D02*
X43520D01*
X57582D02*
X59360D01*
X41632Y362949D02*
X43465D01*
X57637D02*
X59470D01*
X41522Y362894D02*
X43356D01*
X57747D02*
X59580D01*
X41467Y362839D02*
X43301D01*
X57802D02*
X59636D01*
X41357Y362784D02*
X43245D01*
X57857D02*
X59746D01*
X41302Y362729D02*
X43135D01*
X57967D02*
X59800D01*
X41192Y362674D02*
X43080D01*
X58022D02*
X59911D01*
X41082Y362619D02*
X42970D01*
X58132D02*
X60021D01*
X41027Y362564D02*
X42915D01*
X58187D02*
X60075D01*
X40917Y362509D02*
X42860D01*
X58242D02*
X60185D01*
X40862Y362454D02*
X42750D01*
X58352D02*
X60240D01*
X40807Y362399D02*
X42695D01*
X58407D02*
X60295D01*
X40697Y362344D02*
X42640D01*
X58462D02*
X60405D01*
X40642Y362289D02*
X42531D01*
X58572D02*
X60461D01*
X40532Y362234D02*
X42476D01*
X58627D02*
X60571D01*
X40477Y362179D02*
X42420D01*
X58682D02*
X60625D01*
X40367Y362124D02*
X42310D01*
X58792D02*
X60735D01*
X40312Y362069D02*
X42255D01*
X58847D02*
X60790D01*
X40257Y362014D02*
X42200D01*
X58902D02*
X60846D01*
X40147Y361959D02*
X42090D01*
X59012D02*
X60955D01*
X40092Y361904D02*
X42035D01*
X59067D02*
X61010D01*
X40037Y361849D02*
X41980D01*
X59122D02*
X61065D01*
X39982Y361794D02*
X41870D01*
X59232D02*
X61120D01*
X39872Y361739D02*
X41815D01*
X59287D02*
X61230D01*
X39817Y361684D02*
X41760D01*
X59342D02*
X61286D01*
X39762Y361629D02*
X41706D01*
X59397D02*
X61340D01*
X39652Y361574D02*
X41595D01*
X59507D02*
X61450D01*
X39597Y361519D02*
X41540D01*
X59562D02*
X61505D01*
X39542Y361464D02*
X41485D01*
X59617D02*
X61560D01*
X39487Y361409D02*
X41431D01*
X59672D02*
X61615D01*
X39432Y361354D02*
X41320D01*
X59782D02*
X61671D01*
X39322Y361299D02*
X41265D01*
X59837D02*
X61780D01*
X39267Y361244D02*
X41210D01*
X59892D02*
X61835D01*
X39212Y361189D02*
X41155D01*
X59947D02*
X61890D01*
X39157Y361134D02*
X41045D01*
X60057D02*
X61945D01*
X39102Y361079D02*
X40990D01*
X60112D02*
X62001D01*
X39047Y361024D02*
X40935D01*
X60167D02*
X62055D01*
X38992Y360969D02*
X40881D01*
X60222D02*
X62111D01*
X38882Y360914D02*
X40826D01*
X60277D02*
X62221D01*
X38827Y360859D02*
X40715D01*
X60387D02*
X62275D01*
X38772Y360804D02*
X40660D01*
X60442D02*
X62330D01*
X38717Y360749D02*
X40606D01*
X60497D02*
X62385D01*
X38662Y360694D02*
X40551D01*
X60552D02*
X62440D01*
X38607Y360639D02*
X40495D01*
X60607D02*
X62495D01*
X38552Y360584D02*
X40385D01*
X60717D02*
X62550D01*
X38497Y360529D02*
X40330D01*
X60772D02*
X62605D01*
X38442Y360474D02*
X40275D01*
X60827D02*
X62660D01*
X38387Y360419D02*
X40220D01*
X60882D02*
X62715D01*
X38332Y360364D02*
X40165D01*
X60937D02*
X62770D01*
X38277Y360309D02*
X40110D01*
X60992D02*
X62826D01*
X38222Y360254D02*
X40056D01*
X61047D02*
X62880D01*
X38167Y360199D02*
X40001D01*
X61102D02*
X62936D01*
X38112Y360144D02*
X39945D01*
X61157D02*
X62990D01*
X38057Y360089D02*
X39890D01*
X61212D02*
X63046D01*
X38002Y360034D02*
X39781D01*
X61322D02*
X63100D01*
X37947Y359979D02*
X39726D01*
X61377D02*
X63155D01*
X37892Y359924D02*
X39670D01*
X61432D02*
X63210D01*
X37837Y359869D02*
X39615D01*
X61487D02*
X63265D01*
X37782Y359814D02*
X39560D01*
X61542D02*
X63320D01*
X37727Y359759D02*
X39505D01*
X61597D02*
X63376D01*
X37672Y359704D02*
X39450D01*
X61652D02*
X63430D01*
X37617Y359649D02*
X39395D01*
X61707D02*
X63485D01*
X37562Y359594D02*
X39395D01*
X61707D02*
X63540D01*
X37507Y359539D02*
X39340D01*
X61762D02*
X63595D01*
X37452Y359484D02*
X39285D01*
X61817D02*
X63651D01*
X37397Y359429D02*
X39230D01*
X61872D02*
X63705D01*
X37342Y359374D02*
X39176D01*
X61927D02*
X63761D01*
X37287Y359319D02*
X39120D01*
X61982D02*
X63815D01*
X37232Y359264D02*
X39065D01*
X62037D02*
X63871D01*
X37232Y359209D02*
X39010D01*
X62092D02*
X63871D01*
X37177Y359154D02*
X39010D01*
X62092D02*
X63925D01*
X37122Y359099D02*
X38956D01*
X62147D02*
X63980D01*
X37067Y359044D02*
X38901D01*
X62202D02*
X64035D01*
X37012Y358989D02*
X38901D01*
X62202D02*
X64090D01*
X36957Y358934D02*
X38845D01*
X62257D02*
X64145D01*
X36902Y358879D02*
X38790D01*
X62312D02*
X64201D01*
X36847Y358824D02*
X38790D01*
X62312D02*
X64255D01*
X36847Y358769D02*
X38735D01*
X62367D02*
X64255D01*
X36792Y358714D02*
X38735D01*
X62367D02*
X64310D01*
X36737Y358659D02*
X38680D01*
X62422D02*
X64365D01*
X36682Y358604D02*
X38680D01*
X62422D02*
X64420D01*
X36627Y358549D02*
X38625D01*
X62477D02*
X64476D01*
X36572Y358494D02*
X38625D01*
X62477D02*
X64530D01*
X36517Y358439D02*
X38625D01*
X62477D02*
X64586D01*
X36517Y358384D02*
X38570D01*
X62532D02*
X64586D01*
X36462Y358329D02*
X38570D01*
X62532D02*
X64640D01*
X36407Y358274D02*
X38570D01*
X62532D02*
X64696D01*
X36352Y358219D02*
X38515D01*
X62587D02*
X64750D01*
X36297Y358164D02*
X38515D01*
X62587D02*
X64805D01*
X36297Y358109D02*
X38515D01*
X62587D02*
X64805D01*
X36242Y358054D02*
X38460D01*
X62642D02*
X64860D01*
X36187Y357999D02*
X38460D01*
X62642D02*
X64915D01*
X36132Y357944D02*
X38460D01*
X62642D02*
X64970D01*
X36077Y357889D02*
X38460D01*
X62642D02*
X65026D01*
X36077Y357834D02*
X38405D01*
X62697D02*
X65026D01*
X36022Y357779D02*
X38405D01*
X62697D02*
X65080D01*
X35967Y357724D02*
X38405D01*
X62697D02*
X65136D01*
X35912Y357669D02*
X38405D01*
X62697D02*
X65190D01*
X35912Y357614D02*
X38350D01*
X62752D02*
X65190D01*
X35857Y357559D02*
X38350D01*
X62752D02*
X65245D01*
X35802Y357504D02*
X38350D01*
X62752D02*
X65301D01*
X35747Y357449D02*
X38350D01*
X62752D02*
X65355D01*
X35747Y357394D02*
X38295D01*
X62752D02*
X65355D01*
X35692Y357339D02*
X38295D01*
X62807D02*
X65411D01*
X35637Y357284D02*
X38295D01*
X62807D02*
X65465D01*
X35637Y357229D02*
X38295D01*
X62807D02*
X65465D01*
X35582Y357174D02*
X38295D01*
X62807D02*
X65521D01*
X35527Y357119D02*
X38240D01*
X62862D02*
X65575D01*
X35527Y357064D02*
X38240D01*
X62862D02*
X65575D01*
X35472Y357009D02*
X38240D01*
X62862D02*
X65630D01*
X35417Y356954D02*
X38240D01*
X62862D02*
X65685D01*
X35417Y356899D02*
X38240D01*
X62862D02*
X65685D01*
X35362Y356844D02*
X38240D01*
X62862D02*
X65740D01*
X35362Y356789D02*
X38185D01*
X62917D02*
X65740D01*
X35307Y356734D02*
X38185D01*
X62917D02*
X65795D01*
X35252Y356679D02*
X38185D01*
X62917D02*
X65851D01*
X35252Y356624D02*
X38185D01*
X62917D02*
X65851D01*
X35197Y356569D02*
X38185D01*
X62917D02*
X65905D01*
X35197Y356514D02*
X38185D01*
X62917D02*
X65905D01*
X35142Y356459D02*
X38131D01*
X62972D02*
X65961D01*
X35087Y356404D02*
X38131D01*
X62972D02*
X66015D01*
X35087Y356349D02*
X38131D01*
X62972D02*
X66015D01*
X35032Y356294D02*
X38131D01*
X62972D02*
X66070D01*
X35032Y356239D02*
X38131D01*
X62972D02*
X66070D01*
X34977Y356184D02*
X38131D01*
X62972D02*
X66126D01*
X34977Y356129D02*
X38131D01*
X62972D02*
X66126D01*
X34922Y356074D02*
X38076D01*
X63027D02*
X66180D01*
X34922Y356019D02*
X38076D01*
X63027D02*
X66180D01*
X34867Y355964D02*
X38076D01*
X63027D02*
X66236D01*
X34867Y355909D02*
X38076D01*
X63027D02*
X66236D01*
X34812Y355854D02*
X38076D01*
X63027D02*
X66290D01*
X34812Y355799D02*
X38076D01*
X63027D02*
X66290D01*
X34757Y355744D02*
X38076D01*
X63027D02*
X66346D01*
X34757Y355689D02*
X38076D01*
X63027D02*
X66346D01*
X34702Y355634D02*
X38020D01*
X63082D02*
X66400D01*
X34702Y355579D02*
X38020D01*
X63082D02*
X66400D01*
X34647Y355524D02*
X38020D01*
X63082D02*
X66455D01*
X34647Y355469D02*
X38020D01*
X63082D02*
X66455D01*
X34592Y355414D02*
X38020D01*
X63082D02*
X66510D01*
X34592Y355359D02*
X38020D01*
X63082D02*
X66510D01*
X34537Y355304D02*
X38020D01*
X63082D02*
X66565D01*
X34537Y355249D02*
X38020D01*
X63082D02*
X66565D01*
X34482Y355194D02*
X38020D01*
X63082D02*
X66620D01*
X34482Y355139D02*
X38020D01*
X63082D02*
X66620D01*
X34427Y355084D02*
X37965D01*
X63137D02*
X66676D01*
X34427Y355029D02*
X37965D01*
X63137D02*
X66676D01*
X34372Y354974D02*
X37965D01*
X63137D02*
X66730D01*
X34372Y354919D02*
X37965D01*
X63137D02*
X66730D01*
X34372Y354864D02*
X37965D01*
X63137D02*
X66730D01*
X34317Y354809D02*
X37965D01*
X63137D02*
X66786D01*
X34317Y354754D02*
X37965D01*
X63137D02*
X66786D01*
X34262Y354699D02*
X37965D01*
X63137D02*
X66840D01*
X34262Y354644D02*
X37965D01*
X63137D02*
X66840D01*
X34207Y354589D02*
X37965D01*
X63137D02*
X66896D01*
X34207Y354534D02*
X37965D01*
X63137D02*
X66896D01*
X34207Y354479D02*
X37965D01*
X63137D02*
X66896D01*
X34152Y354424D02*
X37965D01*
X63137D02*
X66951D01*
X34152Y354369D02*
X37965D01*
X63137D02*
X66951D01*
X34097Y354314D02*
X37910D01*
X63192D02*
X67005D01*
X34097Y354259D02*
X37910D01*
X63192D02*
X67005D01*
X34097Y354204D02*
X37910D01*
X63192D02*
X67005D01*
X34042Y354149D02*
X37910D01*
X63192D02*
X67061D01*
X34042Y354094D02*
X37910D01*
X63192D02*
X67061D01*
X34042Y354039D02*
X37910D01*
X63192D02*
X67061D01*
X33987Y353984D02*
X37910D01*
X63192D02*
X67115D01*
X33987Y353929D02*
X37910D01*
X63192D02*
X67115D01*
X33932Y353874D02*
X37910D01*
X63192D02*
X67171D01*
X33932Y353819D02*
X37910D01*
X63192D02*
X67171D01*
X33932Y353764D02*
X37910D01*
X63192D02*
X67171D01*
X33877Y353709D02*
X37910D01*
X63192D02*
X67225D01*
X33877Y353654D02*
X37910D01*
X63192D02*
X67225D01*
X33877Y353599D02*
X37910D01*
X63192D02*
X67225D01*
X33822Y353544D02*
X37910D01*
X63192D02*
X67280D01*
X33822Y353489D02*
X37910D01*
X63192D02*
X67280D01*
X33822Y353434D02*
X37910D01*
X63192D02*
X67280D01*
X33767Y353379D02*
X37910D01*
X63192D02*
X67335D01*
X33767Y353324D02*
X37910D01*
X63192D02*
X67335D01*
X33767Y353269D02*
X37910D01*
X63192D02*
X67335D01*
X33712Y353214D02*
X37910D01*
X63192D02*
X67390D01*
X33712Y353159D02*
X37910D01*
X63192D02*
X67390D01*
X33712Y353104D02*
X37910D01*
X63192D02*
X67390D01*
X33657Y353049D02*
X37910D01*
X63192D02*
X67445D01*
X33657Y352994D02*
X37910D01*
X63192D02*
X67445D01*
X33657Y352939D02*
X37910D01*
X63192D02*
X67445D01*
X33602Y352884D02*
X37910D01*
X63192D02*
X67501D01*
X33602Y352829D02*
X37910D01*
X63192D02*
X67501D01*
X33602Y352774D02*
X37855D01*
X63247D02*
X67501D01*
X33547Y352719D02*
X37855D01*
X63247D02*
X67555D01*
X33547Y352664D02*
X37855D01*
X63247D02*
X67555D01*
X33547Y352609D02*
X37855D01*
X63247D02*
X67555D01*
X33492Y352554D02*
X37855D01*
X63247D02*
X67611D01*
X33492Y352499D02*
X37855D01*
X63247D02*
X67611D01*
X33492Y352444D02*
X37855D01*
X63247D02*
X67611D01*
X33492Y352389D02*
X37855D01*
X63247D02*
X67611D01*
X33437Y352334D02*
X37855D01*
X63247D02*
X67665D01*
X33437Y352279D02*
X37855D01*
X63247D02*
X67665D01*
X33437Y352224D02*
X37855D01*
X63247D02*
X67665D01*
X33382Y352169D02*
X37855D01*
X63247D02*
X67721D01*
X33382Y352114D02*
X37855D01*
X63247D02*
X67721D01*
X33382Y352059D02*
X37910D01*
X63192D02*
X67721D01*
X33382Y352004D02*
X37910D01*
X63192D02*
X67721D01*
X33327Y351949D02*
X37910D01*
X63192D02*
X67775D01*
X33327Y351894D02*
X37910D01*
X63192D02*
X67775D01*
X33327Y351839D02*
X37910D01*
X63192D02*
X67775D01*
X33327Y351784D02*
X37910D01*
X63192D02*
X67775D01*
X33272Y351729D02*
X37910D01*
X63192D02*
X67830D01*
X33272Y351674D02*
X37910D01*
X63192D02*
X67830D01*
X33272Y351619D02*
X37910D01*
X63192D02*
X67830D01*
X33272Y351564D02*
X37910D01*
X63192D02*
X67830D01*
X33217Y351509D02*
X37910D01*
X63192D02*
X67886D01*
X33217Y351454D02*
X37910D01*
X63192D02*
X67886D01*
X33217Y351399D02*
X37910D01*
X63192D02*
X67886D01*
X33217Y351344D02*
X37910D01*
X63192D02*
X67886D01*
X33162Y351289D02*
X37910D01*
X63192D02*
X67940D01*
X33162Y351234D02*
X37910D01*
X63192D02*
X67940D01*
X33162Y351179D02*
X37910D01*
X63192D02*
X67940D01*
X33162Y351124D02*
X37910D01*
X63192D02*
X67940D01*
X33107Y351069D02*
X37910D01*
X63192D02*
X67996D01*
X33107Y351014D02*
X37910D01*
X63192D02*
X67996D01*
X33107Y350959D02*
X37910D01*
X63192D02*
X67996D01*
X33107Y350904D02*
X37910D01*
X63192D02*
X67996D01*
X33052Y350849D02*
X37910D01*
X63192D02*
X68050D01*
X33052Y350794D02*
X37910D01*
X63192D02*
X68050D01*
X33052Y350739D02*
X37910D01*
X63192D02*
X68050D01*
X33052Y350684D02*
X37910D01*
X63192D02*
X68050D01*
X33052Y350629D02*
X37910D01*
X63192D02*
X68050D01*
X32997Y350574D02*
X37965D01*
X63137D02*
X68105D01*
X32997Y350519D02*
X37965D01*
X63137D02*
X68105D01*
X32997Y350464D02*
X37965D01*
X63137D02*
X68105D01*
X32997Y350409D02*
X37965D01*
X63137D02*
X68105D01*
X32942Y350354D02*
X37965D01*
X63137D02*
X68160D01*
X32942Y350299D02*
X37965D01*
X63137D02*
X68160D01*
X32942Y350244D02*
X37965D01*
X63137D02*
X68160D01*
X32942Y350189D02*
X37965D01*
X63137D02*
X68160D01*
X32942Y350134D02*
X37965D01*
X63137D02*
X68160D01*
X32887Y350079D02*
X37965D01*
X63137D02*
X68215D01*
X32887Y350024D02*
X37965D01*
X63137D02*
X68215D01*
X32887Y349969D02*
X37965D01*
X63137D02*
X68215D01*
X32887Y349914D02*
X37965D01*
X63137D02*
X68215D01*
X32887Y349859D02*
X38020D01*
X63082D02*
X68215D01*
X32887Y349804D02*
X38020D01*
X63082D02*
X68215D01*
X32832Y349749D02*
X38020D01*
X63082D02*
X68270D01*
X32832Y349694D02*
X38020D01*
X63082D02*
X68270D01*
X32832Y349639D02*
X38020D01*
X63082D02*
X68270D01*
X32832Y349584D02*
X38020D01*
X63082D02*
X68270D01*
X32832Y349529D02*
X38020D01*
X63082D02*
X68270D01*
X32777Y349474D02*
X38020D01*
X63082D02*
X68326D01*
X32777Y349419D02*
X38020D01*
X63082D02*
X68326D01*
X32777Y349364D02*
X38020D01*
X63082D02*
X68326D01*
X32777Y349309D02*
X38020D01*
X63082D02*
X68326D01*
X32777Y349254D02*
X38076D01*
X63027D02*
X68326D01*
X32777Y349199D02*
X38076D01*
X63027D02*
X68326D01*
X32722Y349144D02*
X38076D01*
X63027D02*
X68380D01*
X32722Y349089D02*
X38076D01*
X63027D02*
X68380D01*
X32722Y349034D02*
X38076D01*
X63027D02*
X68380D01*
X32722Y348979D02*
X38076D01*
X63027D02*
X68380D01*
X32722Y348924D02*
X38076D01*
X63027D02*
X68380D01*
X32722Y348869D02*
X38076D01*
X63027D02*
X68380D01*
X32667Y348814D02*
X38076D01*
X63027D02*
X68436D01*
X32667Y348759D02*
X38131D01*
X62972D02*
X68436D01*
X32667Y348704D02*
X38131D01*
X62972D02*
X68436D01*
X32667Y348649D02*
X38131D01*
X62972D02*
X68436D01*
X32667Y348594D02*
X38131D01*
X62972D02*
X68436D01*
X32667Y348539D02*
X38131D01*
X62972D02*
X68436D01*
X32667Y348484D02*
X38131D01*
X62972D02*
X68436D01*
X32612Y348429D02*
X38131D01*
X62972D02*
X68490D01*
X32612Y348374D02*
X38185D01*
X62917D02*
X68490D01*
X32612Y348319D02*
X38185D01*
X62917D02*
X68490D01*
X32612Y348264D02*
X38185D01*
X62917D02*
X68490D01*
X32612Y348209D02*
X38185D01*
X62917D02*
X68490D01*
X32612Y348154D02*
X38185D01*
X62917D02*
X68490D01*
X32612Y348099D02*
X38185D01*
X62917D02*
X68490D01*
X32612Y348044D02*
X38185D01*
X62917D02*
X68490D01*
X32557Y347989D02*
X38240D01*
X62862D02*
X68546D01*
X32557Y347934D02*
X38240D01*
X62862D02*
X68546D01*
X32557Y347879D02*
X38240D01*
X62862D02*
X68546D01*
X32557Y347824D02*
X38240D01*
X62862D02*
X68546D01*
X32557Y347769D02*
X38240D01*
X62862D02*
X68546D01*
X32557Y347714D02*
X38240D01*
X62862D02*
X68546D01*
X32557Y347659D02*
X38295D01*
X62807D02*
X68546D01*
X32557Y347604D02*
X38295D01*
X62807D02*
X68546D01*
X32502Y347549D02*
X38295D01*
X62807D02*
X68600D01*
X32502Y347494D02*
X38295D01*
X62807D02*
X68600D01*
X32502Y347439D02*
X38295D01*
X62807D02*
X68600D01*
X32502Y347384D02*
X38295D01*
X62807D02*
X68600D01*
X32502Y347329D02*
X38350D01*
X62752D02*
X68600D01*
X32502Y347274D02*
X38350D01*
X62752D02*
X68600D01*
X32502Y347219D02*
X38350D01*
X62752D02*
X68600D01*
X32502Y347164D02*
X38350D01*
X62752D02*
X68600D01*
X32502Y347109D02*
X38350D01*
X62752D02*
X68600D01*
X32447Y347054D02*
X38350D01*
X62752D02*
X68655D01*
X32447Y346999D02*
X38405D01*
X62697D02*
X68655D01*
X32447Y346944D02*
X38405D01*
X62697D02*
X68655D01*
X32447Y346889D02*
X38405D01*
X62697D02*
X68655D01*
X32447Y346834D02*
X38405D01*
X62697D02*
X68655D01*
X32447Y346779D02*
X38405D01*
X62697D02*
X68655D01*
X32447Y346724D02*
X38460D01*
X62642D02*
X68655D01*
X32447Y346669D02*
X38460D01*
X62642D02*
X68655D01*
X32447Y346614D02*
X38460D01*
X62642D02*
X68655D01*
X32447Y346559D02*
X38460D01*
X62642D02*
X68655D01*
X32447Y346504D02*
X38460D01*
X62642D02*
X68655D01*
X32447Y346449D02*
X38515D01*
X62587D02*
X68655D01*
X32392Y346394D02*
X38515D01*
X62587D02*
X68711D01*
X32392Y346339D02*
X38515D01*
X62587D02*
X68711D01*
X32392Y346284D02*
X38515D01*
X62587D02*
X68711D01*
X32392Y346229D02*
X38570D01*
X62532D02*
X68711D01*
X32392Y346174D02*
X38570D01*
X62532D02*
X68711D01*
X32392Y346119D02*
X38570D01*
X62532D02*
X68711D01*
X32392Y346064D02*
X38570D01*
X62532D02*
X68711D01*
X32392Y346009D02*
X38625D01*
X62477D02*
X68711D01*
X32392Y345954D02*
X38625D01*
X62477D02*
X68711D01*
X32392Y345899D02*
X38625D01*
X62477D02*
X68711D01*
X32392Y345844D02*
X38625D01*
X62477D02*
X68711D01*
X32392Y345789D02*
X38625D01*
X62477D02*
X68711D01*
X32392Y345734D02*
X38680D01*
X62422D02*
X68711D01*
X32392Y345679D02*
X38680D01*
X62422D02*
X68711D01*
X32337Y345624D02*
X38680D01*
X62422D02*
X68765D01*
X32337Y345569D02*
X38680D01*
X62422D02*
X68765D01*
X32337Y345514D02*
X38735D01*
X62367D02*
X68765D01*
X32337Y345459D02*
X38735D01*
X62367D02*
X68765D01*
X32337Y345404D02*
X38735D01*
X62367D02*
X68765D01*
X32337Y345349D02*
X38790D01*
X62312D02*
X68765D01*
X32337Y345294D02*
X38790D01*
X62312D02*
X68765D01*
X32337Y345239D02*
X38790D01*
X62312D02*
X68765D01*
X32337Y345184D02*
X38790D01*
X62312D02*
X68765D01*
X32337Y345129D02*
X38845D01*
X62257D02*
X68765D01*
X32337Y345074D02*
X38845D01*
X62257D02*
X68765D01*
X32337Y345019D02*
X38845D01*
X62257D02*
X68765D01*
X32337Y344964D02*
X38901D01*
X62202D02*
X68765D01*
X32337Y344909D02*
X38901D01*
X62202D02*
X68765D01*
X32337Y344854D02*
X38901D01*
X62202D02*
X68765D01*
X32337Y344799D02*
X38901D01*
X62202D02*
X68765D01*
X32337Y344744D02*
X38956D01*
X62147D02*
X68765D01*
X32337Y344689D02*
X38956D01*
X62147D02*
X68765D01*
X32337Y344634D02*
X38956D01*
X62147D02*
X68765D01*
X32337Y344579D02*
X39010D01*
X62092D02*
X68765D01*
X32337Y344524D02*
X39010D01*
X62092D02*
X68765D01*
X32337Y344469D02*
X39010D01*
X62092D02*
X68765D01*
X32337Y344414D02*
X39065D01*
X62037D02*
X68765D01*
X32282Y344359D02*
X39065D01*
X62037D02*
X68821D01*
X32282Y344304D02*
X39065D01*
X62037D02*
X68821D01*
X32282Y344249D02*
X39065D01*
X62037D02*
X68821D01*
X32282Y344194D02*
X39120D01*
X61982D02*
X68821D01*
X32282Y344139D02*
X39120D01*
X61982D02*
X68821D01*
X32282Y344084D02*
X39120D01*
X61982D02*
X68821D01*
X32282Y344029D02*
X39176D01*
X61927D02*
X68821D01*
X32282Y343974D02*
X39176D01*
X61927D02*
X68821D01*
X32282Y343919D02*
X39230D01*
X61872D02*
X68821D01*
X32282Y343864D02*
X39230D01*
X61872D02*
X68821D01*
X32282Y343809D02*
X39230D01*
X61872D02*
X68821D01*
X32282Y343754D02*
X39285D01*
X61817D02*
X68821D01*
X32282Y343699D02*
X39285D01*
X61817D02*
X68821D01*
X32282Y343644D02*
X39285D01*
X61817D02*
X68821D01*
X32282Y343589D02*
X39340D01*
X61762D02*
X68821D01*
X32282Y343534D02*
X39340D01*
X61762D02*
X68821D01*
X32282Y343479D02*
X39340D01*
X61762D02*
X68821D01*
X32282Y343424D02*
X39395D01*
X61707D02*
X68821D01*
X32282Y343369D02*
X39395D01*
X61707D02*
X68821D01*
X32282Y343314D02*
X39450D01*
X61652D02*
X68821D01*
X32282Y343259D02*
X39450D01*
X61652D02*
X68821D01*
X32282Y343204D02*
X39450D01*
X61652D02*
X68821D01*
X32282Y343149D02*
X39505D01*
X61597D02*
X68821D01*
X32282Y343094D02*
X39505D01*
X61597D02*
X68821D01*
X32282Y343039D02*
X39560D01*
X61542D02*
X68821D01*
X32282Y342984D02*
X39560D01*
X61542D02*
X68821D01*
X32282Y342929D02*
X39560D01*
X61542D02*
X68821D01*
X32282Y342874D02*
X39615D01*
X61487D02*
X68821D01*
X32282Y342819D02*
X39615D01*
X61487D02*
X68821D01*
X32282Y342764D02*
X39670D01*
X61432D02*
X68821D01*
X32282Y342709D02*
X39670D01*
X61432D02*
X68821D01*
X32282Y342654D02*
X39670D01*
X61432D02*
X68821D01*
X32282Y342599D02*
X39726D01*
X61377D02*
X68821D01*
X32282Y342544D02*
X39726D01*
X61377D02*
X68821D01*
X32337Y342489D02*
X39781D01*
X61322D02*
X68765D01*
X32337Y342434D02*
X39781D01*
X61322D02*
X68765D01*
X32337Y342379D02*
X39835D01*
X61267D02*
X68765D01*
X32337Y342324D02*
X39835D01*
X61267D02*
X68765D01*
X32337Y342269D02*
X39890D01*
X61212D02*
X68765D01*
X32337Y342214D02*
X39890D01*
X61212D02*
X68765D01*
X32337Y342159D02*
X39945D01*
X61157D02*
X68765D01*
X32337Y342104D02*
X39945D01*
X61157D02*
X68765D01*
X32337Y342049D02*
X39945D01*
X61157D02*
X68765D01*
X32337Y341994D02*
X40001D01*
X61102D02*
X68765D01*
X32337Y341939D02*
X40001D01*
X61102D02*
X68765D01*
X32337Y341884D02*
X40056D01*
X61047D02*
X68765D01*
X32337Y341829D02*
X40056D01*
X61047D02*
X68765D01*
X32337Y341774D02*
X40110D01*
X60992D02*
X68765D01*
X32337Y341719D02*
X40110D01*
X60992D02*
X68765D01*
X32337Y341664D02*
X40165D01*
X60937D02*
X68765D01*
X32337Y341609D02*
X40165D01*
X60937D02*
X68765D01*
X32337Y341554D02*
X40220D01*
X60882D02*
X68765D01*
X32337Y341499D02*
X40275D01*
X60827D02*
X68765D01*
X32337Y341444D02*
X40275D01*
X60827D02*
X68765D01*
X32337Y341389D02*
X40330D01*
X60772D02*
X68765D01*
X32337Y341334D02*
X40330D01*
X60772D02*
X68765D01*
X32337Y341279D02*
X40385D01*
X60717D02*
X68765D01*
X32337Y341224D02*
X40385D01*
X60717D02*
X68765D01*
X32392Y341169D02*
X40440D01*
X60662D02*
X68711D01*
X32392Y341114D02*
X40440D01*
X60662D02*
X68711D01*
X32392Y341059D02*
X40495D01*
X60607D02*
X68711D01*
X32392Y341004D02*
X40551D01*
X60552D02*
X68711D01*
X32392Y340949D02*
X40551D01*
X60552D02*
X68711D01*
X32392Y340894D02*
X40606D01*
X60497D02*
X68711D01*
X32392Y340839D02*
X40606D01*
X60497D02*
X68711D01*
X32392Y340784D02*
X40660D01*
X60442D02*
X68711D01*
X32392Y340729D02*
X40660D01*
X60442D02*
X68711D01*
X32392Y340674D02*
X40715D01*
X60387D02*
X68711D01*
X32392Y340619D02*
X40770D01*
X60332D02*
X68711D01*
X32392Y340564D02*
X40770D01*
X60332D02*
X68711D01*
X32392Y340509D02*
X40826D01*
X60277D02*
X68711D01*
X32392Y340454D02*
X40881D01*
X60222D02*
X68711D01*
X32447Y340399D02*
X40881D01*
X60222D02*
X68655D01*
X32447Y340344D02*
X40935D01*
X60167D02*
X68655D01*
X32447Y340289D02*
X40990D01*
X60112D02*
X68655D01*
X32447Y340234D02*
X40990D01*
X60112D02*
X68655D01*
X32447Y340179D02*
X41045D01*
X60057D02*
X68655D01*
X32447Y340124D02*
X41100D01*
X60002D02*
X68655D01*
X32447Y340069D02*
X41100D01*
X60002D02*
X68655D01*
X32447Y340014D02*
X41155D01*
X59947D02*
X68655D01*
X32447Y339959D02*
X41210D01*
X59892D02*
X68655D01*
X32447Y339904D02*
X41210D01*
X59892D02*
X68655D01*
X32447Y339849D02*
X41265D01*
X59837D02*
X68655D01*
X32447Y339794D02*
X41320D01*
X59782D02*
X68655D01*
X32502Y339739D02*
X41375D01*
X59727D02*
X68600D01*
X32502Y339684D02*
X41375D01*
X59727D02*
X68600D01*
X32502Y339629D02*
X41431D01*
X59672D02*
X68600D01*
X32502Y339574D02*
X41485D01*
X59617D02*
X68600D01*
X32502Y339519D02*
X41540D01*
X59562D02*
X68600D01*
X32502Y339464D02*
X41595D01*
X59507D02*
X68600D01*
X32502Y339409D02*
X41595D01*
X59507D02*
X68600D01*
X32502Y339354D02*
X41651D01*
X59452D02*
X68600D01*
X32502Y339299D02*
X41706D01*
X59397D02*
X68600D01*
X32502Y339244D02*
X41760D01*
X59342D02*
X68600D01*
X32557Y339189D02*
X41815D01*
X59287D02*
X68546D01*
X32557Y339134D02*
X41815D01*
X59287D02*
X68546D01*
X32557Y339079D02*
X41870D01*
X59232D02*
X68546D01*
X32557Y339024D02*
X41925D01*
X59177D02*
X68546D01*
X32557Y338969D02*
X41980D01*
X59122D02*
X68546D01*
X32557Y338914D02*
X42035D01*
X59067D02*
X68546D01*
X32557Y338859D02*
X42090D01*
X59012D02*
X68546D01*
X32557Y338804D02*
X42145D01*
X58957D02*
X68546D01*
X32612Y338749D02*
X42200D01*
X58902D02*
X68490D01*
X32612Y338694D02*
X42255D01*
X58847D02*
X68490D01*
X32612Y338639D02*
X42310D01*
X58792D02*
X68490D01*
X32612Y338584D02*
X42365D01*
X58737D02*
X68490D01*
X32612Y338529D02*
X42365D01*
X58737D02*
X68490D01*
X32612Y338474D02*
X42420D01*
X58682D02*
X68490D01*
X32612Y338419D02*
X42476D01*
X58627D02*
X68490D01*
X32612Y338364D02*
X42531D01*
X58572D02*
X68490D01*
X32667Y338309D02*
X42585D01*
X58517D02*
X68436D01*
X32667Y338254D02*
X42640D01*
X58462D02*
X68436D01*
X32667Y338199D02*
X42695D01*
X58407D02*
X68436D01*
X32667Y338144D02*
X42750D01*
X58352D02*
X68436D01*
X32667Y338089D02*
X42805D01*
X58297D02*
X68436D01*
X32667Y338034D02*
X42860D01*
X58242D02*
X68436D01*
X32667Y337979D02*
X42915D01*
X58187D02*
X68436D01*
X32722Y337924D02*
X42970D01*
X58132D02*
X68380D01*
X32722Y337869D02*
X43025D01*
X58077D02*
X68380D01*
X32722Y337814D02*
X34830D01*
X36022D02*
X43080D01*
X58022D02*
X64090D01*
X66272D02*
X68380D01*
X32722Y337759D02*
X34556D01*
X36077D02*
X43135D01*
X57967D02*
X64035D01*
X66547D02*
X68380D01*
X32722Y337704D02*
X34556D01*
X36132D02*
X43190D01*
X57912D02*
X63980D01*
X66547D02*
X68380D01*
X32722Y337649D02*
X34501D01*
X36187D02*
X43245D01*
X57857D02*
X63980D01*
X66602D02*
X68380D01*
X32722Y337594D02*
X34501D01*
X36242D02*
X43301D01*
X57802D02*
X63925D01*
X66602D02*
X68380D01*
X32777Y337539D02*
X34501D01*
X36297D02*
X43301D01*
X57802D02*
X63871D01*
X66602D02*
X68326D01*
X32777Y337484D02*
X34556D01*
X36297D02*
X43356D01*
X57747D02*
X63871D01*
X66547D02*
X68326D01*
X32777Y337429D02*
X34556D01*
X36352D02*
X43410D01*
X57692D02*
X63815D01*
X66547D02*
X68326D01*
X32777Y337374D02*
X34556D01*
X36407D02*
X43465D01*
X57637D02*
X63761D01*
X66547D02*
X68326D01*
X32777Y337319D02*
X34556D01*
X36462D02*
X43520D01*
X57582D02*
X63761D01*
X66547D02*
X68326D01*
X32777Y337264D02*
X34556D01*
X36517D02*
X43576D01*
X57527D02*
X63705D01*
X66547D02*
X68326D01*
X32832Y337209D02*
X34556D01*
X36517D02*
X43630D01*
X57472D02*
X63651D01*
X66547D02*
X68270D01*
X32832Y337154D02*
X34556D01*
X36572D02*
X40165D01*
X40367D02*
X43685D01*
X57417D02*
X63651D01*
X66547D02*
X68270D01*
X32832Y337099D02*
X34556D01*
X36627D02*
X40220D01*
X40477D02*
X43740D01*
X57362D02*
X63595D01*
X66547D02*
X68270D01*
X32832Y337044D02*
X34556D01*
X36682D02*
X40220D01*
X40642D02*
X43795D01*
X57307D02*
X63540D01*
X66547D02*
X68270D01*
X32832Y336989D02*
X34556D01*
X36737D02*
X40275D01*
X40752D02*
X43795D01*
X57307D02*
X63540D01*
X66547D02*
X68270D01*
X32832Y336934D02*
X34556D01*
X36792D02*
X40330D01*
X40917D02*
X43850D01*
X57252D02*
X63485D01*
X66547D02*
X68270D01*
X32887Y336879D02*
X34556D01*
X36847D02*
X40330D01*
X41027D02*
X43905D01*
X57197D02*
X63430D01*
X66547D02*
X68215D01*
X32887Y336824D02*
X34556D01*
X36902D02*
X40385D01*
X41137D02*
X43960D01*
X57142D02*
X63376D01*
X66547D02*
X68215D01*
X32887Y336769D02*
X34556D01*
X36957D02*
X40385D01*
X41247D02*
X44015D01*
X57087D02*
X63376D01*
X66547D02*
X68215D01*
X32887Y336714D02*
X34556D01*
X36957D02*
X40440D01*
X41412D02*
X44070D01*
X57032D02*
X59690D01*
X59837D02*
X63320D01*
X66547D02*
X68215D01*
X32887Y336659D02*
X34556D01*
X37012D02*
X40440D01*
X41522D02*
X44126D01*
X56977D02*
X59580D01*
X59837D02*
X63265D01*
X66547D02*
X68215D01*
X32887Y336604D02*
X34610D01*
X37067D02*
X40440D01*
X41577D02*
X44126D01*
X56977D02*
X59526D01*
X59782D02*
X63210D01*
X66492D02*
X68215D01*
X32942Y336549D02*
X34610D01*
X37122D02*
X40495D01*
X41687D02*
X44181D01*
X56922D02*
X59415D01*
X59782D02*
X63210D01*
X66492D02*
X68160D01*
X32942Y336494D02*
X34610D01*
X37177D02*
X40495D01*
X41797D02*
X44235D01*
X56867D02*
X59305D01*
X59727D02*
X63155D01*
X66492D02*
X68160D01*
X32942Y336439D02*
X34610D01*
X37232D02*
X40551D01*
X41907D02*
X44290D01*
X56812D02*
X59196D01*
X59727D02*
X63100D01*
X66492D02*
X68160D01*
X32942Y336384D02*
X34610D01*
X37287D02*
X40606D01*
X42017D02*
X44345D01*
X56757D02*
X59086D01*
X59672D02*
X63046D01*
X66492D02*
X68160D01*
X32942Y336329D02*
X34610D01*
X37342D02*
X40606D01*
X42072D02*
X44401D01*
X56702D02*
X59030D01*
X59672D02*
X62990D01*
X66492D02*
X68160D01*
X32997Y336274D02*
X34610D01*
X37397D02*
X40606D01*
X42182D02*
X44401D01*
X56702D02*
X58921D01*
X59672D02*
X62990D01*
X66492D02*
X68105D01*
X32997Y336219D02*
X34610D01*
X37452D02*
X40660D01*
X42292D02*
X44456D01*
X56647D02*
X58811D01*
X59617D02*
X62936D01*
X66492D02*
X68105D01*
X32997Y336164D02*
X34610D01*
X37507D02*
X40660D01*
X42347D02*
X44510D01*
X56592D02*
X58755D01*
X59617D02*
X62880D01*
X66492D02*
X68105D01*
X32997Y336109D02*
X34610D01*
X37562D02*
X40715D01*
X42457D02*
X44565D01*
X56537D02*
X58645D01*
X59562D02*
X62826D01*
X66492D02*
X68105D01*
X32997Y336054D02*
X34610D01*
X37617D02*
X40715D01*
X42512D02*
X44620D01*
X56482D02*
X58590D01*
X59562D02*
X62770D01*
X66492D02*
X68105D01*
X33052Y335999D02*
X34665D01*
X37672D02*
X40715D01*
X42567D02*
X44620D01*
X56482D02*
X58535D01*
X59562D02*
X62770D01*
X66437D02*
X68050D01*
X33052Y335944D02*
X34665D01*
X37782D02*
X40770D01*
X42677D02*
X44675D01*
X56427D02*
X58425D01*
X59507D02*
X62715D01*
X66437D02*
X68050D01*
X33052Y335889D02*
X34665D01*
X37782D02*
X40770D01*
X42732D02*
X44730D01*
X56372D02*
X58371D01*
X59507D02*
X62660D01*
X66437D02*
X68050D01*
X33052Y335834D02*
X34665D01*
X37892D02*
X40770D01*
X42842D02*
X44785D01*
X56317D02*
X58261D01*
X59452D02*
X62605D01*
X66437D02*
X68050D01*
X33052Y335779D02*
X34665D01*
X37947D02*
X40826D01*
X42897D02*
X44840D01*
X56262D02*
X58205D01*
X59452D02*
X62550D01*
X66437D02*
X68050D01*
X33107Y335724D02*
X34665D01*
X38002D02*
X40826D01*
X42952D02*
X44840D01*
X56262D02*
X58151D01*
X59452D02*
X62495D01*
X66437D02*
X67996D01*
X33107Y335669D02*
X34665D01*
X38057D02*
X40826D01*
X43007D02*
X44895D01*
X56207D02*
X58096D01*
X59397D02*
X62440D01*
X66437D02*
X67996D01*
X33107Y335614D02*
X34665D01*
X38112D02*
X40881D01*
X43117D02*
X44951D01*
X56152D02*
X57986D01*
X59397D02*
X62385D01*
X66437D02*
X67996D01*
X33107Y335559D02*
X34720D01*
X38167D02*
X40881D01*
X43172D02*
X45006D01*
X56097D02*
X57930D01*
X59342D02*
X62330D01*
X66382D02*
X67996D01*
X33162Y335504D02*
X34720D01*
X38277D02*
X40881D01*
X43227D02*
X45006D01*
X56097D02*
X57876D01*
X59342D02*
X62275D01*
X66382D02*
X67940D01*
X33162Y335449D02*
X34720D01*
X38332D02*
X40935D01*
X43282D02*
X45060D01*
X56042D02*
X57820D01*
X59342D02*
X62221D01*
X66382D02*
X67940D01*
X33162Y335394D02*
X34720D01*
X38387D02*
X40935D01*
X43337D02*
X45115D01*
X55987D02*
X57765D01*
X59287D02*
X62165D01*
X66382D02*
X67940D01*
X33162Y335339D02*
X34720D01*
X38442D02*
X40935D01*
X43392D02*
X45115D01*
X55987D02*
X57710D01*
X59287D02*
X62165D01*
X66382D02*
X67940D01*
X33162Y335284D02*
X34720D01*
X38552D02*
X40935D01*
X43447D02*
X45170D01*
X55932D02*
X57655D01*
X59287D02*
X62111D01*
X66382D02*
X67940D01*
X33217Y335229D02*
X34720D01*
X38607D02*
X40935D01*
X43502D02*
X45226D01*
X55877D02*
X57600D01*
X59287D02*
X62001D01*
X66382D02*
X67886D01*
X33217Y335174D02*
X34776D01*
X38662D02*
X40990D01*
X43557D02*
X45281D01*
X55822D02*
X57546D01*
X59232D02*
X61945D01*
X66327D02*
X67886D01*
X33217Y335119D02*
X34776D01*
X38772D02*
X40990D01*
X43612D02*
X45281D01*
X55822D02*
X57490D01*
X59232D02*
X61890D01*
X66327D02*
X67886D01*
X33217Y335064D02*
X34776D01*
X38827D02*
X40990D01*
X43667D02*
X45335D01*
X55767D02*
X57436D01*
X59232D02*
X61835D01*
X66327D02*
X67886D01*
X33272Y335009D02*
X34776D01*
X38882D02*
X40990D01*
X43722D02*
X45390D01*
X55712D02*
X57380D01*
X59232D02*
X61780D01*
X66327D02*
X67830D01*
X33272Y334954D02*
X34776D01*
X38992D02*
X40990D01*
X43777D02*
X45390D01*
X55712D02*
X57326D01*
X59177D02*
X61725D01*
X66327D02*
X67830D01*
X33272Y334899D02*
X34830D01*
X39102D02*
X40990D01*
X43832D02*
X45445D01*
X55657D02*
X57270D01*
X59177D02*
X61671D01*
X66272D02*
X67830D01*
X33272Y334844D02*
X34830D01*
X39157D02*
X40990D01*
X43887D02*
X45500D01*
X55602D02*
X57215D01*
X59177D02*
X61615D01*
X66272D02*
X67830D01*
X33272Y334789D02*
X34830D01*
X39267D02*
X40990D01*
X43942D02*
X45500D01*
X55602D02*
X57161D01*
X59177D02*
X61560D01*
X66272D02*
X67830D01*
X33327Y334734D02*
X34830D01*
X39322D02*
X40990D01*
X43997D02*
X45555D01*
X55547D02*
X57105D01*
X59177D02*
X61505D01*
X66272D02*
X67775D01*
X33327Y334679D02*
X34830D01*
X39432D02*
X40935D01*
X44052D02*
X45610D01*
X55492D02*
X57051D01*
X59122D02*
X61450D01*
X66272D02*
X67775D01*
X33327Y334624D02*
X34885D01*
X39542D02*
X40935D01*
X44052D02*
X45610D01*
X55492D02*
X57051D01*
X59122D02*
X61396D01*
X66217D02*
X67775D01*
X33327Y334569D02*
X34885D01*
X39652D02*
X40935D01*
X44107D02*
X45665D01*
X55437D02*
X56995D01*
X59122D02*
X61286D01*
X66217D02*
X67775D01*
X33382Y334514D02*
X34885D01*
X39762D02*
X40881D01*
X44162D02*
X45720D01*
X55382D02*
X56940D01*
X59122D02*
X61230D01*
X66217D02*
X67721D01*
X33382Y334459D02*
X34885D01*
X39872D02*
X40826D01*
X44217D02*
X45720D01*
X55382D02*
X56885D01*
X59122D02*
X61176D01*
X66217D02*
X67721D01*
X33382Y334404D02*
X34940D01*
X40037D02*
X40770D01*
X44272D02*
X45775D01*
X55327D02*
X56830D01*
X59122D02*
X61120D01*
X66162D02*
X67721D01*
X33382Y334349D02*
X34940D01*
X40257D02*
X40660D01*
X44272D02*
X45775D01*
X55327D02*
X56830D01*
X59122D02*
X61010D01*
X66162D02*
X67721D01*
X33437Y334294D02*
X34940D01*
X44327D02*
X45831D01*
X55272D02*
X56775D01*
X59122D02*
X60955D01*
X66162D02*
X67665D01*
X33437Y334239D02*
X34940D01*
X44382D02*
X45885D01*
X55217D02*
X56721D01*
X59122D02*
X60846D01*
X66162D02*
X67665D01*
X33437Y334184D02*
X34995D01*
X44437D02*
X45885D01*
X55217D02*
X56665D01*
X59122D02*
X60790D01*
X66107D02*
X67665D01*
X33437Y334129D02*
X34995D01*
X44437D02*
X45940D01*
X55162D02*
X56665D01*
X59122D02*
X60735D01*
X66107D02*
X67665D01*
X33492Y334074D02*
X34995D01*
X44492D02*
X45940D01*
X55162D02*
X56611D01*
X59122D02*
X60625D01*
X66107D02*
X67611D01*
X33492Y334019D02*
X34995D01*
X44547D02*
X45995D01*
X55107D02*
X56555D01*
X59177D02*
X60571D01*
X66107D02*
X67611D01*
X33492Y333964D02*
X35050D01*
X44602D02*
X45995D01*
X55107D02*
X56501D01*
X59177D02*
X60461D01*
X66052D02*
X67611D01*
X33547Y333909D02*
X35050D01*
X44602D02*
X46051D01*
X55052D02*
X56501D01*
X59177D02*
X60351D01*
X66052D02*
X67555D01*
X33547Y333854D02*
X35050D01*
X44657D02*
X46051D01*
X55052D02*
X56445D01*
X59232D02*
X60240D01*
X66052D02*
X67555D01*
X33547Y333799D02*
X35050D01*
X44712D02*
X46106D01*
X54997D02*
X56390D01*
X59287D02*
X60130D01*
X66052D02*
X67555D01*
X33547Y333744D02*
X35105D01*
X44712D02*
X46106D01*
X54997D02*
X56390D01*
X59342D02*
X59965D01*
X65997D02*
X67555D01*
X33602Y333689D02*
X35105D01*
X44767D02*
X46160D01*
X54942D02*
X56336D01*
X59507D02*
X59800D01*
X65997D02*
X67501D01*
X33602Y333634D02*
X35105D01*
X44822D02*
X46160D01*
X54942D02*
X56280D01*
X65997D02*
X67501D01*
X33602Y333579D02*
X35160D01*
X44822D02*
X46215D01*
X54887D02*
X56280D01*
X65942D02*
X67501D01*
X33602Y333524D02*
X35160D01*
X44877D02*
X46215D01*
X54887D02*
X56226D01*
X65942D02*
X67501D01*
X33657Y333469D02*
X35160D01*
X44932D02*
X46270D01*
X54832D02*
X56170D01*
X65942D02*
X67445D01*
X33657Y333414D02*
X35215D01*
X44932D02*
X46270D01*
X54832D02*
X56170D01*
X65887D02*
X67445D01*
X33657Y333359D02*
X35215D01*
X44987D02*
X46325D01*
X54777D02*
X56115D01*
X65887D02*
X67445D01*
X33712Y333304D02*
X35215D01*
X45042D02*
X46325D01*
X54777D02*
X56060D01*
X65887D02*
X67390D01*
X33712Y333249D02*
X35270D01*
X45042D02*
X46380D01*
X54722D02*
X56060D01*
X65832D02*
X67390D01*
X33712Y333194D02*
X35270D01*
X45097D02*
X46380D01*
X54722D02*
X56005D01*
X65832D02*
X67390D01*
X33767Y333139D02*
X35270D01*
X45152D02*
X46380D01*
X54722D02*
X55950D01*
X65832D02*
X67335D01*
X33767Y333084D02*
X35326D01*
X45152D02*
X46435D01*
X54667D02*
X55950D01*
X65777D02*
X67335D01*
X33767Y333029D02*
X35326D01*
X45207D02*
X46435D01*
X54667D02*
X55896D01*
X65777D02*
X67335D01*
X33767Y332974D02*
X35381D01*
X45262D02*
X46490D01*
X54612D02*
X55840D01*
X65722D02*
X67335D01*
X33822Y332919D02*
X35381D01*
X45262D02*
X46490D01*
X54612D02*
X55840D01*
X65722D02*
X67280D01*
X33822Y332864D02*
X35381D01*
X45317D02*
X46490D01*
X54612D02*
X55786D01*
X65722D02*
X67280D01*
X33822Y332809D02*
X35435D01*
X45372D02*
X46545D01*
X54557D02*
X55730D01*
X65667D02*
X67280D01*
X33877Y332754D02*
X35435D01*
X45372D02*
X46545D01*
X54557D02*
X55730D01*
X65667D02*
X67225D01*
X33877Y332699D02*
X35490D01*
X45427D02*
X46545D01*
X54557D02*
X55676D01*
X65612D02*
X67225D01*
X33877Y332644D02*
X35490D01*
X45482D02*
X46600D01*
X54502D02*
X55620D01*
X65612D02*
X67225D01*
X33932Y332589D02*
X35490D01*
X45482D02*
X46600D01*
X54502D02*
X55620D01*
X65612D02*
X67171D01*
X33932Y332534D02*
X35545D01*
X45537D02*
X46600D01*
X54502D02*
X55565D01*
X65557D02*
X67171D01*
X33932Y332479D02*
X35545D01*
X45537D02*
X46600D01*
X54502D02*
X55565D01*
X65557D02*
X67171D01*
X33987Y332424D02*
X35601D01*
X45592D02*
X46655D01*
X54447D02*
X55510D01*
X65502D02*
X67115D01*
X33987Y332369D02*
X35601D01*
X45647D02*
X46655D01*
X54447D02*
X55455D01*
X65502D02*
X67115D01*
X33987Y332314D02*
X35601D01*
X45647D02*
X46655D01*
X54447D02*
X55455D01*
X65502D02*
X67115D01*
X34042Y332259D02*
X35656D01*
X45702D02*
X46655D01*
X54447D02*
X55401D01*
X65447D02*
X67061D01*
X34042Y332204D02*
X35656D01*
X45702D02*
X46710D01*
X54392D02*
X55401D01*
X65447D02*
X67061D01*
X34042Y332149D02*
X35710D01*
X45757D02*
X46710D01*
X54392D02*
X55345D01*
X65392D02*
X67061D01*
X34097Y332094D02*
X35710D01*
X45812D02*
X46710D01*
X54392D02*
X55290D01*
X65392D02*
X67005D01*
X34097Y332039D02*
X35765D01*
X45812D02*
X46710D01*
X54392D02*
X55290D01*
X65337D02*
X67005D01*
X34097Y331984D02*
X35765D01*
X45867D02*
X46710D01*
X54392D02*
X55235D01*
X65337D02*
X67005D01*
X34152Y331929D02*
X35820D01*
X45867D02*
X46710D01*
X54392D02*
X55235D01*
X65282D02*
X66951D01*
X34152Y331874D02*
X35820D01*
X45922D02*
X46765D01*
X54337D02*
X55180D01*
X65282D02*
X66951D01*
X34152Y331819D02*
X35875D01*
X45977D02*
X46765D01*
X54337D02*
X55125D01*
X65227D02*
X66951D01*
X34207Y331764D02*
X35875D01*
X45977D02*
X46765D01*
X54337D02*
X55125D01*
X65227D02*
X66896D01*
X34207Y331709D02*
X35930D01*
X46032D02*
X46765D01*
X54337D02*
X55071D01*
X65172D02*
X66896D01*
X34207Y331654D02*
X35930D01*
X46032D02*
X46765D01*
X54337D02*
X55071D01*
X65172D02*
X66896D01*
X34262Y331599D02*
X35985D01*
X46087D02*
X46765D01*
X54337D02*
X55015D01*
X65117D02*
X66840D01*
X34262Y331544D02*
X35985D01*
X46087D02*
X46765D01*
X54337D02*
X55015D01*
X65117D02*
X66840D01*
X34262Y331489D02*
X36040D01*
X46142D02*
X46765D01*
X54337D02*
X54961D01*
X65062D02*
X66840D01*
X34317Y331434D02*
X36040D01*
X46197D02*
X46765D01*
X54337D02*
X54905D01*
X65062D02*
X66786D01*
X34317Y331379D02*
X36095D01*
X46197D02*
X46765D01*
X54337D02*
X54905D01*
X65007D02*
X66786D01*
X34372Y331324D02*
X36151D01*
X46252D02*
X46765D01*
X54337D02*
X54851D01*
X64952D02*
X66730D01*
X34372Y331269D02*
X36151D01*
X46252D02*
X46765D01*
X54337D02*
X54851D01*
X64952D02*
X66730D01*
X34372Y331214D02*
X36206D01*
X46307D02*
X46765D01*
X54337D02*
X54795D01*
X64897D02*
X66730D01*
X34427Y331159D02*
X36206D01*
X46307D02*
X46765D01*
X54337D02*
X54795D01*
X64897D02*
X66676D01*
X34427Y331104D02*
X36260D01*
X46362D02*
X46765D01*
X54337D02*
X54740D01*
X64842D02*
X66676D01*
X34427Y331049D02*
X36315D01*
X46362D02*
X46765D01*
X54337D02*
X54740D01*
X64787D02*
X66676D01*
X34482Y330994D02*
X36315D01*
X46417D02*
X46765D01*
X54337D02*
X54685D01*
X64787D02*
X66620D01*
X34482Y330939D02*
X36370D01*
X46472D02*
X46765D01*
X54337D02*
X54630D01*
X64732D02*
X66620D01*
X34537Y330884D02*
X36370D01*
X46472D02*
X46765D01*
X54337D02*
X54630D01*
X64732D02*
X66565D01*
X34537Y330829D02*
X36426D01*
X46527D02*
X46765D01*
X54337D02*
X54576D01*
X64677D02*
X66565D01*
X34537Y330774D02*
X36481D01*
X46527D02*
X46765D01*
X54337D02*
X54576D01*
X64622D02*
X66565D01*
X34592Y330719D02*
X36481D01*
X46582D02*
X46765D01*
X54337D02*
X54520D01*
X64622D02*
X66510D01*
X34592Y330664D02*
X36535D01*
X46582D02*
X46765D01*
X54337D02*
X54520D01*
X64567D02*
X66510D01*
X34647Y330609D02*
X36590D01*
X46637D02*
X46765D01*
X54337D02*
X54465D01*
X64512D02*
X66455D01*
X34647Y330554D02*
X36590D01*
X46637D02*
X46765D01*
X54337D02*
X54465D01*
X64512D02*
X66455D01*
X34647Y330499D02*
X36645D01*
X46692D02*
X46765D01*
X54337D02*
X54410D01*
X64457D02*
X66455D01*
X34702Y330444D02*
X36700D01*
X46692D02*
X46765D01*
X54337D02*
X54410D01*
X64402D02*
X66400D01*
X34702Y330389D02*
X36700D01*
X46747D02*
X46765D01*
X54337D02*
X54355D01*
X64402D02*
X66400D01*
X34757Y330334D02*
X36755D01*
X46747D02*
X46765D01*
X54337D02*
X54355D01*
X64347D02*
X66346D01*
X34757Y330279D02*
X36810D01*
X64292D02*
X66346D01*
X34757Y330224D02*
X36810D01*
X64292D02*
X66346D01*
X34812Y330169D02*
X36865D01*
X64237D02*
X66290D01*
X34812Y330114D02*
X36920D01*
X64182D02*
X66290D01*
X34867Y330059D02*
X36975D01*
X64127D02*
X66236D01*
X34867Y330004D02*
X36975D01*
X64127D02*
X66236D01*
X34922Y329949D02*
X37031D01*
X64072D02*
X66180D01*
X34922Y329894D02*
X37085D01*
X64017D02*
X66180D01*
X34922Y329839D02*
X37140D01*
X63962D02*
X66180D01*
X34977Y329784D02*
X37140D01*
X63962D02*
X66126D01*
X34977Y329729D02*
X37195D01*
X63907D02*
X66126D01*
X35032Y329674D02*
X37251D01*
X63852D02*
X66070D01*
X35032Y329619D02*
X37306D01*
X63797D02*
X66070D01*
X35087Y329564D02*
X37360D01*
X63742D02*
X66015D01*
X35087Y329509D02*
X37415D01*
X63687D02*
X66015D01*
X35142Y329454D02*
X37415D01*
X63687D02*
X65961D01*
X35142Y329399D02*
X37470D01*
X63632D02*
X65961D01*
X35197Y329344D02*
X37525D01*
X63577D02*
X65905D01*
X35197Y329289D02*
X37580D01*
X63522D02*
X65905D01*
X35252Y329234D02*
X37635D01*
X63467D02*
X65851D01*
X35252Y329179D02*
X37690D01*
X63412D02*
X65851D01*
X35307Y329124D02*
X37745D01*
X63357D02*
X65795D01*
X35307Y329069D02*
X37800D01*
X63302D02*
X65795D01*
X35362Y329014D02*
X37855D01*
X63247D02*
X65740D01*
X35362Y328959D02*
X37855D01*
X63247D02*
X65740D01*
X35362Y328904D02*
X37910D01*
X63192D02*
X65740D01*
X35417Y328849D02*
X37965D01*
X63137D02*
X65685D01*
X35472Y328794D02*
X38020D01*
X63082D02*
X65630D01*
X35472Y328739D02*
X38076D01*
X63027D02*
X65630D01*
X35527Y328684D02*
X38131D01*
X62972D02*
X65575D01*
X35527Y328629D02*
X38185D01*
X62917D02*
X65575D01*
X35582Y328574D02*
X38240D01*
X62862D02*
X65521D01*
X35582Y328519D02*
X38295D01*
X62807D02*
X65521D01*
X35637Y328464D02*
X38350D01*
X62752D02*
X65465D01*
X35637Y328409D02*
X38405D01*
X62697D02*
X65465D01*
X35692Y328354D02*
X38460D01*
X62642D02*
X65411D01*
X35692Y328299D02*
X38515D01*
X62587D02*
X65411D01*
X35747Y328244D02*
X38570D01*
X62532D02*
X65355D01*
X35747Y328189D02*
X38625D01*
X62477D02*
X65355D01*
X35802Y328134D02*
X38680D01*
X62422D02*
X65301D01*
X35802Y328079D02*
X38735D01*
X62367D02*
X65301D01*
X35857Y328024D02*
X38790D01*
X62312D02*
X65245D01*
X35857Y327969D02*
X38845D01*
X62257D02*
X65245D01*
X35912Y327914D02*
X38901D01*
X62202D02*
X65190D01*
X35967Y327859D02*
X38956D01*
X62147D02*
X65136D01*
X35967Y327804D02*
X39010D01*
X62092D02*
X65136D01*
X36022Y327749D02*
X39065D01*
X62037D02*
X65080D01*
X36022Y327694D02*
X39120D01*
X61982D02*
X65080D01*
X36077Y327639D02*
X39176D01*
X61927D02*
X65026D01*
X36077Y327584D02*
X39230D01*
X61872D02*
X65026D01*
X36132Y327529D02*
X39285D01*
X61817D02*
X64970D01*
X36187Y327474D02*
X39340D01*
X61762D02*
X64915D01*
X36187Y327419D02*
X39395D01*
X61707D02*
X64915D01*
X36242Y327364D02*
X39450D01*
X61652D02*
X64860D01*
X36297Y327309D02*
X39505D01*
X61597D02*
X64860D01*
X36297Y327254D02*
X39560D01*
X61542D02*
X64805D01*
X36352Y327199D02*
X39615D01*
X61487D02*
X64750D01*
X36352Y327144D02*
X39670D01*
X61432D02*
X64750D01*
X36407Y327089D02*
X39726D01*
X61377D02*
X64696D01*
X36462Y327034D02*
X39781D01*
X61322D02*
X64640D01*
X36462Y326979D02*
X39835D01*
X61267D02*
X64640D01*
X36517Y326924D02*
X39945D01*
X61157D02*
X64586D01*
X36572Y326869D02*
X40001D01*
X61102D02*
X64530D01*
X36572Y326814D02*
X40056D01*
X61047D02*
X64530D01*
X36627Y326759D02*
X40110D01*
X60992D02*
X64476D01*
X36627Y326704D02*
X40165D01*
X60937D02*
X64476D01*
X36682Y326649D02*
X40275D01*
X60827D02*
X64420D01*
X36737Y326594D02*
X40330D01*
X60772D02*
X64365D01*
X36737Y326539D02*
X40385D01*
X60717D02*
X64365D01*
X36792Y326484D02*
X40440D01*
X60662D02*
X64310D01*
X36847Y326429D02*
X40551D01*
X60552D02*
X64255D01*
X36847Y326374D02*
X40606D01*
X60497D02*
X64255D01*
X36902Y326319D02*
X40660D01*
X60442D02*
X64201D01*
X36957Y326264D02*
X40770D01*
X60332D02*
X64145D01*
X36957Y326209D02*
X40826D01*
X60277D02*
X64145D01*
X37012Y326154D02*
X40881D01*
X60222D02*
X64090D01*
X37067Y326099D02*
X40990D01*
X60112D02*
X64035D01*
X37122Y326044D02*
X41045D01*
X60057D02*
X63980D01*
X37122Y325989D02*
X41155D01*
X59947D02*
X63980D01*
X37177Y325934D02*
X41210D01*
X59892D02*
X63925D01*
X37232Y325879D02*
X41320D01*
X59782D02*
X63871D01*
X37232Y325824D02*
X41375D01*
X59727D02*
X63871D01*
X37287Y325769D02*
X41485D01*
X59617D02*
X63815D01*
X37342Y325714D02*
X41595D01*
X59507D02*
X63761D01*
X37342Y325659D02*
X41706D01*
X59452D02*
X63761D01*
X37397Y325604D02*
X41815D01*
X59342D02*
X63705D01*
X37452Y325549D02*
X41925D01*
X59232D02*
X63651D01*
X37452Y325494D02*
X42035D01*
X59122D02*
X63651D01*
X37507Y325439D02*
X42145D01*
X59012D02*
X63595D01*
X37562Y325384D02*
X42310D01*
X58847D02*
X63540D01*
X37562Y325329D02*
X42420D01*
X58737D02*
X63540D01*
X37617Y325274D02*
X42531D01*
X58627D02*
X63485D01*
X37672Y325219D02*
X42640D01*
X58517D02*
X63430D01*
X37672Y325164D02*
X42750D01*
X58407D02*
X63430D01*
X37727Y325109D02*
X42860D01*
X58297D02*
X63376D01*
X37782Y325054D02*
X43025D01*
X58132D02*
X63320D01*
X37782Y324999D02*
X43135D01*
X58022D02*
X63320D01*
X37837Y324944D02*
X43245D01*
X57912D02*
X63265D01*
X37892Y324889D02*
X43356D01*
X57802D02*
X63210D01*
X37892Y324834D02*
X43465D01*
X57692D02*
X63210D01*
X37947Y324779D02*
X43630D01*
X57527D02*
X63155D01*
X38002Y324724D02*
X43740D01*
X57417D02*
X63100D01*
X38057Y324669D02*
X43850D01*
X57307D02*
X63046D01*
X38057Y324614D02*
X44015D01*
X57142D02*
X63046D01*
X38112Y324559D02*
X44126D01*
X57032D02*
X62990D01*
X38167Y324504D02*
X44235D01*
X56922D02*
X62936D01*
X38167Y324449D02*
X44401D01*
X56757D02*
X62936D01*
X38222Y324394D02*
X44510D01*
X56647D02*
X62880D01*
X38277Y324339D02*
X44620D01*
X56537D02*
X62826D01*
X38277Y324284D02*
X44785D01*
X56372D02*
X62826D01*
X38332Y324229D02*
X44895D01*
X56262D02*
X62770D01*
X38387Y324174D02*
X45060D01*
X56097D02*
X62715D01*
X38387Y324119D02*
X45170D01*
X55987D02*
X62715D01*
X38442Y324064D02*
X45335D01*
X55822D02*
X62660D01*
X38497Y324009D02*
X45445D01*
X55712D02*
X62605D01*
X38552Y323954D02*
X45610D01*
X55547D02*
X62550D01*
X38552Y323899D02*
X45775D01*
X55382D02*
X62550D01*
X38607Y323844D02*
X45885D01*
X55272D02*
X62495D01*
X38662Y323789D02*
X46051D01*
X55107D02*
X62440D01*
X38662Y323734D02*
X46215D01*
X54942D02*
X62440D01*
X38717Y323679D02*
X46380D01*
X54777D02*
X62385D01*
X38772Y323624D02*
X46545D01*
X54612D02*
X62330D01*
X38772Y323569D02*
X46710D01*
X54447D02*
X62330D01*
X38827Y323514D02*
X46876D01*
X54282D02*
X62275D01*
X38882Y323459D02*
X47095D01*
X54062D02*
X62221D01*
X38937Y323404D02*
X47260D01*
X53897D02*
X62165D01*
X38937Y323349D02*
X47480D01*
X53677D02*
X62165D01*
X38992Y323294D02*
X47701D01*
X53457D02*
X62111D01*
X39047Y323239D02*
X47920D01*
X53237D02*
X62055D01*
X39047Y323184D02*
X48085D01*
X53072D02*
X62055D01*
X39102Y323129D02*
X48140D01*
X53017D02*
X62001D01*
X39157Y323074D02*
X47865D01*
X53292D02*
X61945D01*
X39212Y323019D02*
X47205D01*
X53952D02*
X61890D01*
X39212Y322964D02*
X46600D01*
X54557D02*
X61890D01*
X39267Y322909D02*
X46215D01*
X54942D02*
X61835D01*
X39322Y322854D02*
X45885D01*
X55272D02*
X61780D01*
X39322Y322799D02*
X45610D01*
X55547D02*
X61780D01*
X39377Y322744D02*
X45390D01*
X55767D02*
X61725D01*
X39432Y322689D02*
X45226D01*
X55932D02*
X61671D01*
X39487Y322634D02*
X45060D01*
X56097D02*
X61615D01*
X39487Y322579D02*
X44895D01*
X56262D02*
X61615D01*
X39542Y322524D02*
X44785D01*
X56372D02*
X61560D01*
X39597Y322469D02*
X44675D01*
X56482D02*
X61505D01*
X39597Y322414D02*
X44620D01*
X56537D02*
X61505D01*
X39652Y322359D02*
X44510D01*
X56647D02*
X61450D01*
X39707Y322304D02*
X44456D01*
X56702D02*
X61396D01*
X39762Y322249D02*
X44401D01*
X56757D02*
X61340D01*
X39762Y322194D02*
X44345D01*
X56812D02*
X61340D01*
X39817Y322139D02*
X44290D01*
X56867D02*
X61286D01*
X39872Y322084D02*
X44290D01*
X56867D02*
X61230D01*
X39872Y322029D02*
X44235D01*
X56922D02*
X61230D01*
X39927Y321974D02*
X44235D01*
X56922D02*
X61176D01*
X39982Y321919D02*
X44181D01*
X56977D02*
X61120D01*
X40037Y321864D02*
X44181D01*
X56977D02*
X61065D01*
X40037Y321809D02*
X44181D01*
X56977D02*
X61065D01*
X40092Y321754D02*
X44126D01*
X57032D02*
X61010D01*
X40147Y321699D02*
X44126D01*
X57032D02*
X60955D01*
X40202Y321644D02*
X44126D01*
X57032D02*
X60900D01*
X40202Y321589D02*
X44126D01*
X57032D02*
X60900D01*
X40257Y321534D02*
X44126D01*
X57032D02*
X60846D01*
X40312Y321479D02*
X44126D01*
X57032D02*
X60790D01*
X40312Y321424D02*
X44126D01*
X57032D02*
X60790D01*
X40367Y321369D02*
X44126D01*
X57032D02*
X60735D01*
X40422Y321314D02*
X44126D01*
X57032D02*
X60680D01*
X40477Y321259D02*
X44126D01*
X57032D02*
X60625D01*
X40477Y321204D02*
X44126D01*
X57032D02*
X60625D01*
X40532Y321149D02*
X44126D01*
X57032D02*
X60571D01*
X40587Y321094D02*
X44126D01*
X57032D02*
X60515D01*
X40642Y321039D02*
X44126D01*
X57032D02*
X60461D01*
X40642Y320984D02*
X44126D01*
X57032D02*
X60461D01*
X40697Y320929D02*
X44181D01*
X56977D02*
X60405D01*
X40752Y320874D02*
X44181D01*
X56977D02*
X60351D01*
X40807Y320819D02*
X44181D01*
X56977D02*
X60295D01*
X40807Y320764D02*
X44181D01*
X56977D02*
X60295D01*
X40862Y320709D02*
X44235D01*
X56922D02*
X60240D01*
X40917Y320654D02*
X44235D01*
X56922D02*
X60185D01*
X40972Y320599D02*
X44235D01*
X56922D02*
X60130D01*
X40972Y320544D02*
X44290D01*
X56867D02*
X60130D01*
X41027Y320489D02*
X44290D01*
X56867D02*
X60075D01*
X41082Y320434D02*
X44345D01*
X56812D02*
X60021D01*
X41137Y320379D02*
X44345D01*
X56812D02*
X59965D01*
X41137Y320324D02*
X44345D01*
X56812D02*
X59965D01*
X41192Y320269D02*
X44401D01*
X56757D02*
X59911D01*
X41247Y320214D02*
X44401D01*
X56757D02*
X59855D01*
X41302Y320159D02*
X44456D01*
X56702D02*
X59800D01*
X41302Y320104D02*
X44456D01*
X56702D02*
X59800D01*
X41357Y320049D02*
X44510D01*
X56647D02*
X59746D01*
X41412Y319994D02*
X44510D01*
X56647D02*
X59690D01*
X41467Y319939D02*
X44565D01*
X56592D02*
X59636D01*
X41522Y319884D02*
X44620D01*
X56537D02*
X59636D01*
X41522Y319829D02*
X44620D01*
X56537D02*
X59580D01*
X41577Y319774D02*
X44675D01*
X56482D02*
X59526D01*
X41632Y319719D02*
X44675D01*
X56482D02*
X59470D01*
X41687Y319664D02*
X44730D01*
X56427D02*
X59470D01*
X41687Y319609D02*
X44785D01*
X56372D02*
X59415D01*
X41742Y319554D02*
X44785D01*
X56372D02*
X59360D01*
X41797Y319499D02*
X44840D01*
X56317D02*
X59305D01*
X41852Y319444D02*
X44895D01*
X56262D02*
X59305D01*
X41907Y319389D02*
X44895D01*
X56262D02*
X59250D01*
X41907Y319334D02*
X44951D01*
X56207D02*
X59196D01*
X41962Y319279D02*
X45006D01*
X56152D02*
X59140D01*
X42017Y319224D02*
X45060D01*
X56097D02*
X59140D01*
X42072Y319169D02*
X45060D01*
X56097D02*
X59086D01*
X42127Y319114D02*
X45115D01*
X56042D02*
X59030D01*
X42127Y319059D02*
X45170D01*
X55987D02*
X58975D01*
X42182Y319004D02*
X45226D01*
X55932D02*
X58921D01*
X42237Y318949D02*
X45226D01*
X55932D02*
X58865D01*
X42292Y318894D02*
X45281D01*
X55877D02*
X58811D01*
X42347Y318839D02*
X45335D01*
X55822D02*
X58755D01*
X42402Y318784D02*
X45390D01*
X55767D02*
X58755D01*
X42457Y318729D02*
X45445D01*
X55712D02*
X58701D01*
X42512Y318674D02*
X45500D01*
X55657D02*
X58645D01*
X42567Y318619D02*
X45500D01*
X55657D02*
X58590D01*
X42622Y318564D02*
X45555D01*
X55602D02*
X58535D01*
X42677Y318509D02*
X45610D01*
X55547D02*
X58480D01*
X42732Y318454D02*
X45665D01*
X55492D02*
X58425D01*
X42842Y318399D02*
X45720D01*
X55437D02*
X58371D01*
X42897Y318344D02*
X45775D01*
X55382D02*
X58315D01*
X42952Y318289D02*
X45831D01*
X55327D02*
X58205D01*
X43007Y318234D02*
X45885D01*
X55272D02*
X58151D01*
X43062Y318179D02*
X45940D01*
X55217D02*
X58096D01*
X43117Y318124D02*
X45940D01*
X55217D02*
X58040D01*
X43227Y318069D02*
X45995D01*
X55162D02*
X57986D01*
X43282Y318014D02*
X46051D01*
X55107D02*
X57930D01*
X43337Y317959D02*
X46106D01*
X55052D02*
X57820D01*
X43392Y317904D02*
X46160D01*
X54997D02*
X57765D01*
X43502Y317849D02*
X46215D01*
X54942D02*
X57710D01*
X43557Y317794D02*
X46270D01*
X54887D02*
X57600D01*
X43612Y317739D02*
X46325D01*
X54832D02*
X57546D01*
X43722Y317684D02*
X46380D01*
X54777D02*
X57490D01*
X43777Y317629D02*
X46435D01*
X54722D02*
X57380D01*
X43832Y317574D02*
X46490D01*
X54667D02*
X57326D01*
X43942Y317519D02*
X46545D01*
X54612D02*
X57215D01*
X43997Y317464D02*
X46600D01*
X54557D02*
X57161D01*
X44107Y317409D02*
X46655D01*
X54447D02*
X57051D01*
X44162Y317354D02*
X46765D01*
X54392D02*
X56995D01*
X44272Y317299D02*
X46820D01*
X54337D02*
X56885D01*
X44382Y317244D02*
X46876D01*
X54282D02*
X56775D01*
X44437Y317189D02*
X46931D01*
X54227D02*
X56721D01*
X44547Y317134D02*
X46985D01*
X54172D02*
X56611D01*
X44657Y317079D02*
X47040D01*
X54117D02*
X56501D01*
X44767Y317024D02*
X47095D01*
X54062D02*
X56390D01*
X44877Y316969D02*
X47150D01*
X54007D02*
X56280D01*
X44987Y316914D02*
X47205D01*
X53952D02*
X56170D01*
X45042Y316859D02*
X47260D01*
X53897D02*
X56115D01*
X45207Y316804D02*
X47370D01*
X53787D02*
X55950D01*
X45317Y316749D02*
X47425D01*
X53732D02*
X55840D01*
X45427Y316694D02*
X47480D01*
X53677D02*
X55730D01*
X45537Y316639D02*
X47535D01*
X53622D02*
X55620D01*
X45647Y316584D02*
X47590D01*
X53567D02*
X55510D01*
X45812Y316529D02*
X47645D01*
X53512D02*
X55345D01*
X45922Y316474D02*
X47756D01*
X53402D02*
X55235D01*
X46032Y316419D02*
X47810D01*
X53347D02*
X55125D01*
X46197Y316364D02*
X47865D01*
X53292D02*
X54961D01*
X46362Y316309D02*
X47920D01*
X53237D02*
X54795D01*
X46472Y316254D02*
X47976D01*
X53182D02*
X54685D01*
X46637Y316199D02*
X48085D01*
X53072D02*
X54520D01*
X46802Y316144D02*
X48140D01*
X53017D02*
X54355D01*
X46967Y316089D02*
X48195D01*
X52962D02*
X54190D01*
X47132Y316034D02*
X48250D01*
X52907D02*
X54026D01*
X47297Y315979D02*
X48360D01*
X52797D02*
X53860D01*
X47517Y315924D02*
X48415D01*
X52742D02*
X53640D01*
X47682Y315869D02*
X48470D01*
X52687D02*
X53475D01*
X47902Y315814D02*
X48526D01*
X52632D02*
X53255D01*
X48177Y315759D02*
X48635D01*
X52522D02*
X52980D01*
X48397Y315704D02*
X48690D01*
X52467D02*
X52760D01*
X48672Y315649D02*
X48745D01*
X52412D02*
X52486D01*
D18*
X440784Y93457D02*
Y100957D01*
X439284Y89957D02*
Y102957D01*
Y89957D02*
Y102457D01*
X437783Y98457D02*
Y103957D01*
X437284Y88957D02*
Y93957D01*
X335032Y80658D02*
X335531Y80158D01*
X359531D01*
X339032Y78158D02*
X357531D01*
X342032Y76157D02*
X354532D01*
X343413Y64799D02*
X350913D01*
X341413Y63299D02*
X354413D01*
X341913D02*
X354413D01*
X340413Y61799D02*
X345913D01*
X350413Y61299D02*
X355413D01*
X422827Y126327D02*
X423327Y125827D01*
X447327D01*
X426827Y123827D02*
X445327D01*
X429827Y121827D02*
X442327D01*
D19*
X321260Y56201D02*
D03*
D20*
X370098Y141732D02*
D03*
M02*
