M48
;Layer_Color=9474304
;FILE_FORMAT=2:5
INCH,LZ
;TYPE=PLATED
T1F00S00C0.01000
T2F00S00C0.02000
T3F00S00C0.02362
T4F00S00C0.03000
T5F00S00C0.03150
T6F00S00C0.03543
T7F00S00C0.05315
T8F00S00C0.15000
%
T01
X0214959Y0148823
X0214961Y0180319
X0245276Y0247638
X030315Y0254409
Y0269685
X0312598Y0317323
X0334252Y0334252
X0333858Y0339764
T02
X0249606Y0064567
X0259055Y0086614
X0234646Y0139374
X0181496Y0092795
X0094488Y0068504
X0072441Y013937
X0191339Y0238189
X0231102Y0230713
X0314567Y0240945
X0352858
X0367717Y029252
X0300787Y0292913
X0300354Y0279567
X0359961Y0355787
X0375197Y0329528
X0393307
X0380945Y0316535
X0419685Y0265354
T03
X0347913Y0052362
X0428346Y0096457
X0436221
X0347913Y0060236
T04
X0398819Y0052284
Y0062283
Y0072284
Y0082284
Y0102284
Y0112284
Y0122283
X0428346Y0153937
T05
X0435827Y0128937
Y0142717
X0348031Y0097047
Y0083268
T06
X0205118Y0054567
Y0064567
T07
X0435827Y0188583
Y0208268
X0435827Y0255906
Y0275591
X0435827Y032441
Y0344094
T08
X0019685Y0019685
X0452756
Y0377953
X0019685
M30
