G04*
G04 #@! TF.GenerationSoftware,Altium Limited,Altium Designer,22.0.2 (36)*
G04*
G04 Layer_Color=2752767*
%FSLAX25Y25*%
%MOIN*%
G70*
G04*
G04 #@! TF.SameCoordinates,B862D9DB-E2DB-4CA7-A407-90F613205177*
G04*
G04*
G04 #@! TF.FilePolarity,Positive*
G04*
G01*
G75*
%ADD10C,0.00200*%
%ADD11C,0.00267*%
%ADD12C,0.00133*%
D10*
X381297Y128905D02*
Y130506D01*
X382897D01*
Y128905D01*
X381297D01*
Y83906D02*
Y85505D01*
X382897D01*
Y83906D01*
X381297D01*
X110211Y349515D02*
X109411Y351115D01*
X111011D01*
X110211Y349515D01*
X104758Y360696D02*
X103958Y362296D01*
X105558D01*
X104758Y360696D01*
X99305Y349515D02*
X98505Y351115D01*
X100105D01*
X99305Y349515D01*
X93853Y360696D02*
X93053Y362296D01*
X94653D01*
X93853Y360696D01*
X88400Y349515D02*
X87600Y351115D01*
X89200D01*
X88400Y349515D01*
X82947Y360696D02*
X82147Y362296D01*
X83747D01*
X82947Y360696D01*
X77494Y349515D02*
X76694Y351115D01*
X78294D01*
X77494Y349515D01*
X72042Y360696D02*
X71242Y362296D01*
X72842D01*
X72042Y360696D01*
X66589Y349515D02*
X65789Y351115D01*
X67389D01*
X66589Y349515D01*
X39207Y355105D02*
X39607Y355505D01*
X40007D01*
X39607Y355906D01*
X40007Y356306D01*
X39607D01*
X39207Y356705D01*
X38807Y356306D01*
X38407D01*
X38807Y355906D01*
X38407Y355505D01*
X38807D01*
X39207Y355105D01*
X137593D02*
X137993Y355505D01*
X138393D01*
X137993Y355906D01*
X138393Y356306D01*
X137993D01*
X137593Y356705D01*
X137193Y356306D01*
X136793D01*
X137193Y355906D01*
X136793Y355505D01*
X137193D01*
X137593Y355105D01*
X380770Y163056D02*
Y164656D01*
X382370D01*
Y163056D01*
X380770D01*
Y208056D02*
Y209656D01*
X382370D01*
Y208056D01*
X380770D01*
X374397Y353373D02*
X374797Y354173D01*
X374397Y354973D01*
X375197Y354573D01*
X375997Y354973D01*
X375597Y354173D01*
X375997Y353373D01*
X375197Y353773D01*
X374397Y353373D01*
Y343373D02*
X374797Y344173D01*
X374397Y344973D01*
X375197Y344573D01*
X375997Y344973D01*
X375597Y344173D01*
X375997Y343373D01*
X375197Y343773D01*
X374397Y343373D01*
Y333373D02*
X374797Y334173D01*
X374397Y334973D01*
X375197Y334573D01*
X375997Y334973D01*
X375597Y334173D01*
X375997Y333373D01*
X375197Y333773D01*
X374397Y333373D01*
Y313373D02*
X374797Y314173D01*
X374397Y314973D01*
X375197Y314573D01*
X375997Y314973D01*
X375597Y314173D01*
X375997Y313373D01*
X375197Y313773D01*
X374397Y313373D01*
Y303373D02*
X374797Y304173D01*
X374397Y304973D01*
X375197Y304573D01*
X375997Y304973D01*
X375597Y304173D01*
X375997Y303373D01*
X375197Y303773D01*
X374397Y303373D01*
Y293373D02*
X374797Y294173D01*
X374397Y294973D01*
X375197Y294573D01*
X375997Y294973D01*
X375597Y294173D01*
X375997Y293373D01*
X375197Y293773D01*
X374397Y293373D01*
Y283373D02*
X374797Y284173D01*
X374397Y284973D01*
X375197Y284573D01*
X375997Y284973D01*
X375597Y284173D01*
X375997Y283373D01*
X375197Y283773D01*
X374397Y283373D01*
X319285Y296884D02*
Y296483D01*
X320085D01*
Y296884D01*
X320485D01*
Y297684D01*
X320085D01*
Y298083D01*
X319285D01*
Y297684D01*
X318885D01*
Y296884D01*
X319285D01*
Y310663D02*
Y310263D01*
X320085D01*
Y310663D01*
X320485D01*
Y311463D01*
X320085D01*
Y311863D01*
X319285D01*
Y311463D01*
X318885D01*
Y310663D01*
X319285D01*
X318885Y334732D02*
X319285D01*
X319685Y335132D01*
X320085Y334732D01*
X320485D01*
Y335132D01*
X320085Y335531D01*
X320485Y335931D01*
Y336332D01*
X320085D01*
X319685Y335931D01*
X319285Y336332D01*
X318885D01*
Y335931D01*
X319285Y335531D01*
X318885Y335132D01*
Y334732D01*
Y342605D02*
X319285D01*
X319685Y343005D01*
X320085Y342605D01*
X320485D01*
Y343005D01*
X320085Y343406D01*
X320485Y343806D01*
Y344205D01*
X320085D01*
X319685Y343806D01*
X319285Y344205D01*
X318885D01*
Y343806D01*
X319285Y343406D01*
X318885Y343005D01*
Y342605D01*
X319285Y365151D02*
Y364751D01*
X320085D01*
Y365151D01*
X320485D01*
Y365951D01*
X320085D01*
Y366351D01*
X319285D01*
Y365951D01*
X318885D01*
Y365151D01*
X319285D01*
Y378931D02*
Y378531D01*
X320085D01*
Y378931D01*
X320485D01*
Y379731D01*
X320085D01*
Y380131D01*
X319285D01*
Y379731D01*
X318885D01*
Y378931D01*
X319285D01*
X327153Y270460D02*
X327553D01*
X327953Y270860D01*
X328353Y270460D01*
X328753D01*
Y270860D01*
X328353Y271260D01*
X328753Y271660D01*
Y272060D01*
X328353D01*
X327953Y271660D01*
X327553Y272060D01*
X327153D01*
Y271660D01*
X327553Y271260D01*
X327153Y270860D01*
Y270460D01*
X319279D02*
X319679D01*
X320079Y270860D01*
X320479Y270460D01*
X320879D01*
Y270860D01*
X320479Y271260D01*
X320879Y271660D01*
Y272060D01*
X320479D01*
X320079Y271660D01*
X319679Y272060D01*
X319279D01*
Y271660D01*
X319679Y271260D01*
X319279Y270860D01*
Y270460D01*
X262586Y377953D02*
X263386Y378753D01*
X264186Y377953D01*
X263386Y377153D01*
X262586Y377953D01*
X282271D02*
X283071Y378753D01*
X283871Y377953D01*
X283071Y377153D01*
X282271Y377953D01*
X287153Y275207D02*
Y276807D01*
X288753D01*
Y275207D01*
X287153D01*
X287553Y275607D02*
Y276407D01*
X288353D01*
Y275607D01*
X287553D01*
X277153Y275207D02*
Y276807D01*
X278753D01*
Y275207D01*
X277153D01*
X277553Y275607D02*
Y276407D01*
X278353D01*
Y275607D01*
X277553D01*
X267153Y275207D02*
Y276807D01*
X268753D01*
Y275207D01*
X267153D01*
X267553Y275607D02*
Y276407D01*
X268353D01*
Y275607D01*
X267553D01*
X257153Y275207D02*
Y276807D01*
X258753D01*
Y275207D01*
X257153D01*
X257553Y275607D02*
Y276407D01*
X258353D01*
Y275607D01*
X257553D01*
X234350Y180302D02*
X233550Y181902D01*
X235150D01*
X234350Y180302D01*
Y180702D02*
X233950Y181502D01*
X234750D01*
X234350Y180702D01*
X259842Y123906D02*
X259043Y125505D01*
X260643D01*
X259842Y123906D01*
Y124305D02*
X259442Y125106D01*
X260243D01*
X259842Y124305D01*
X187402Y366523D02*
X186602Y368123D01*
X188202D01*
X187402Y366523D01*
Y366923D02*
X187002Y367723D01*
X187802D01*
X187402Y366923D01*
X254318Y304318D02*
X254718Y305118D01*
X254318Y305918D01*
X255118Y305518D01*
X255918Y305918D01*
X255518Y305118D01*
X255918Y304318D01*
X255118Y304718D01*
X254318Y304318D01*
X53151Y124393D02*
X53551Y124793D01*
X53951D01*
X53551Y125193D01*
X53951Y125593D01*
X53551D01*
X53151Y125993D01*
X52751Y125593D01*
X52351D01*
X52751Y125193D01*
X52351Y124793D01*
X52751D01*
X53151Y124393D01*
Y124793D02*
X53351Y124993D01*
X53551D01*
X53351Y125193D01*
X53551Y125393D01*
X53351D01*
X53151Y125593D01*
X52951Y125393D01*
X52751D01*
X52951Y125193D01*
X52751Y124993D01*
X52951D01*
X53151Y124793D01*
X237783Y363373D02*
X238183Y364173D01*
X237783Y364973D01*
X238583Y364573D01*
X239383Y364973D01*
X238983Y364173D01*
X239383Y363373D01*
X238583Y363773D01*
X237783Y363373D01*
X242507Y316869D02*
X242907Y317669D01*
X242507Y318469D01*
X243307Y318069D01*
X244107Y318469D01*
X243707Y317669D01*
X244107Y316869D01*
X243307Y317269D01*
X242507Y316869D01*
X207480Y306318D02*
X207880Y306718D01*
X208280D01*
X207880Y307118D01*
X208280Y307518D01*
X207880D01*
X207480Y307918D01*
X207080Y307518D01*
X206680D01*
X207080Y307118D01*
X206680Y306718D01*
X207080D01*
X207480Y306318D01*
Y306718D02*
X207680Y306918D01*
X207880D01*
X207680Y307118D01*
X207880Y307318D01*
X207680D01*
X207480Y307518D01*
X207280Y307318D01*
X207080D01*
X207280Y307118D01*
X207080Y306918D01*
X207280D01*
X207480Y306718D01*
X199606Y193688D02*
X200006Y194088D01*
X200406D01*
X200006Y194488D01*
X200406Y194888D01*
X200006D01*
X199606Y195288D01*
X199206Y194888D01*
X198806D01*
X199206Y194488D01*
X198806Y194088D01*
X199206D01*
X199606Y193688D01*
Y194088D02*
X199806Y194288D01*
X200006D01*
X199806Y194488D01*
X200006Y194688D01*
X199806D01*
X199606Y194888D01*
X199406Y194688D01*
X199206D01*
X199406Y194488D01*
X199206Y194288D01*
X199406D01*
X199606Y194088D01*
X208858Y310224D02*
X209258Y310624D01*
X209658D01*
X209258Y311024D01*
X209658Y311424D01*
X209258D01*
X208858Y311824D01*
X208458Y311424D01*
X208058D01*
X208458Y311024D01*
X208058Y310624D01*
X208458D01*
X208858Y310224D01*
Y310624D02*
X209058Y310824D01*
X209258D01*
X209058Y311024D01*
X209258Y311224D01*
X209058D01*
X208858Y311424D01*
X208658Y311224D01*
X208458D01*
X208658Y311024D01*
X208458Y310824D01*
X208658D01*
X208858Y310624D01*
X203543Y199987D02*
X203943Y200387D01*
X204343D01*
X203943Y200787D01*
X204343Y201187D01*
X203943D01*
X203543Y201587D01*
X203143Y201187D01*
X202743D01*
X203143Y200787D01*
X202743Y200387D01*
X203143D01*
X203543Y199987D01*
Y200387D02*
X203743Y200587D01*
X203943D01*
X203743Y200787D01*
X203943Y200987D01*
X203743D01*
X203543Y201187D01*
X203343Y200987D01*
X203143D01*
X203343Y200787D01*
X203143Y200587D01*
X203343D01*
X203543Y200387D01*
X185039Y170066D02*
X185439Y170466D01*
X185839D01*
X185439Y170866D01*
X185839Y171266D01*
X185439D01*
X185039Y171666D01*
X184639Y171266D01*
X184239D01*
X184639Y170866D01*
X184239Y170466D01*
X184639D01*
X185039Y170066D01*
Y170466D02*
X185239Y170666D01*
X185439D01*
X185239Y170866D01*
X185439Y171066D01*
X185239D01*
X185039Y171266D01*
X184839Y171066D01*
X184639D01*
X184839Y170866D01*
X184639Y170666D01*
X184839D01*
X185039Y170466D01*
X181890Y191633D02*
X182290Y192034D01*
X182690D01*
X182290Y192434D01*
X182690Y192833D01*
X182290D01*
X181890Y193234D01*
X181490Y192833D01*
X181090D01*
X181490Y192434D01*
X181090Y192034D01*
X181490D01*
X181890Y191633D01*
Y192034D02*
X182090Y192234D01*
X182290D01*
X182090Y192434D01*
X182290Y192633D01*
X182090D01*
X181890Y192833D01*
X181690Y192633D01*
X181490D01*
X181690Y192434D01*
X181490Y192234D01*
X181690D01*
X181890Y192034D01*
X250394Y196838D02*
X249594Y198438D01*
X251194D01*
X250394Y196838D01*
Y197238D02*
X249994Y198038D01*
X250794D01*
X250394Y197238D01*
X182677Y181090D02*
X183077Y181490D01*
X183477D01*
X183077Y181890D01*
X183477Y182290D01*
X183077D01*
X182677Y182690D01*
X182277Y182290D01*
X181877D01*
X182277Y181890D01*
X181877Y181490D01*
X182277D01*
X182677Y181090D01*
Y181490D02*
X182877Y181690D01*
X183077D01*
X182877Y181890D01*
X183077Y182090D01*
X182877D01*
X182677Y182290D01*
X182477Y182090D01*
X182277D01*
X182477Y181890D01*
X182277Y181690D01*
X182477D01*
X182677Y181490D01*
X204724Y116523D02*
X203924Y118123D01*
X205524D01*
X204724Y116523D01*
Y116923D02*
X204324Y117723D01*
X205124D01*
X204724Y116923D01*
X72045Y68098D02*
X71245Y69698D01*
X72845D01*
X72045Y68098D01*
Y68498D02*
X71645Y69298D01*
X72445D01*
X72045Y68498D01*
X69685Y206287D02*
X70085Y206687D01*
X70485D01*
X70085Y207087D01*
X70485Y207487D01*
X70085D01*
X69685Y207887D01*
X69285Y207487D01*
X68885D01*
X69285Y207087D01*
X68885Y206687D01*
X69285D01*
X69685Y206287D01*
Y206687D02*
X69885Y206887D01*
X70085D01*
X69885Y207087D01*
X70085Y207287D01*
X69885D01*
X69685Y207487D01*
X69485Y207287D01*
X69285D01*
X69485Y207087D01*
X69285Y206887D01*
X69485D01*
X69685Y206687D01*
Y203137D02*
X70085Y203537D01*
X70485D01*
X70085Y203937D01*
X70485Y204337D01*
X70085D01*
X69685Y204737D01*
X69285Y204337D01*
X68885D01*
X69285Y203937D01*
X68885Y203537D01*
X69285D01*
X69685Y203137D01*
Y203537D02*
X69885Y203737D01*
X70085D01*
X69885Y203937D01*
X70085Y204137D01*
X69885D01*
X69685Y204337D01*
X69485Y204137D01*
X69285D01*
X69485Y203937D01*
X69285Y203737D01*
X69485D01*
X69685Y203537D01*
X12598Y175798D02*
X12998Y176198D01*
X13398D01*
X12998Y176598D01*
X13398Y176998D01*
X12998D01*
X12598Y177398D01*
X12198Y176998D01*
X11798D01*
X12198Y176598D01*
X11798Y176198D01*
X12198D01*
X12598Y175798D01*
Y176198D02*
X12798Y176398D01*
X12998D01*
X12798Y176598D01*
X12998Y176798D01*
X12798D01*
X12598Y176998D01*
X12398Y176798D01*
X12198D01*
X12398Y176598D01*
X12198Y176398D01*
X12398D01*
X12598Y176198D01*
X19277Y179648D02*
X19677Y180048D01*
X20077D01*
X19677Y180448D01*
X20077Y180848D01*
X19677D01*
X19277Y181248D01*
X18877Y180848D01*
X18477D01*
X18877Y180448D01*
X18477Y180048D01*
X18877D01*
X19277Y179648D01*
Y180048D02*
X19477Y180248D01*
X19677D01*
X19477Y180448D01*
X19677Y180648D01*
X19477D01*
X19277Y180848D01*
X19077Y180648D01*
X18877D01*
X19077Y180448D01*
X18877Y180248D01*
X19077D01*
X19277Y180048D01*
X79134Y190539D02*
X79534Y190939D01*
X79934D01*
X79534Y191339D01*
X79934Y191739D01*
X79534D01*
X79134Y192139D01*
X78734Y191739D01*
X78334D01*
X78734Y191339D01*
X78334Y190939D01*
X78734D01*
X79134Y190539D01*
Y190939D02*
X79334Y191139D01*
X79534D01*
X79334Y191339D01*
X79534Y191539D01*
X79334D01*
X79134Y191739D01*
X78934Y191539D01*
X78734D01*
X78934Y191339D01*
X78734Y191139D01*
X78934D01*
X79134Y190939D01*
X43307Y246444D02*
X43707Y246844D01*
X44107D01*
X43707Y247244D01*
X44107Y247644D01*
X43707D01*
X43307Y248044D01*
X42907Y247644D01*
X42507D01*
X42907Y247244D01*
X42507Y246844D01*
X42907D01*
X43307Y246444D01*
Y246844D02*
X43507Y247044D01*
X43707D01*
X43507Y247244D01*
X43707Y247444D01*
X43507D01*
X43307Y247644D01*
X43107Y247444D01*
X42907D01*
X43107Y247244D01*
X42907Y247044D01*
X43107D01*
X43307Y246844D01*
X56745Y239306D02*
X57145Y239706D01*
X57545D01*
X57145Y240106D01*
X57545Y240506D01*
X57145D01*
X56745Y240906D01*
X56345Y240506D01*
X55945D01*
X56345Y240106D01*
X55945Y239706D01*
X56345D01*
X56745Y239306D01*
Y239706D02*
X56945Y239906D01*
X57145D01*
X56945Y240106D01*
X57145Y240306D01*
X56945D01*
X56745Y240506D01*
X56545Y240306D01*
X56345D01*
X56545Y240106D01*
X56345Y239906D01*
X56545D01*
X56745Y239706D01*
X79134Y187389D02*
X79534Y187789D01*
X79934D01*
X79534Y188189D01*
X79934Y188589D01*
X79534D01*
X79134Y188989D01*
X78734Y188589D01*
X78334D01*
X78734Y188189D01*
X78334Y187789D01*
X78734D01*
X79134Y187389D01*
Y187789D02*
X79334Y187989D01*
X79534D01*
X79334Y188189D01*
X79534Y188389D01*
X79334D01*
X79134Y188589D01*
X78934Y188389D01*
X78734D01*
X78934Y188189D01*
X78734Y187989D01*
X78934D01*
X79134Y187789D01*
X76696Y196903D02*
X77096Y197303D01*
X77496D01*
X77096Y197703D01*
X77496Y198103D01*
X77096D01*
X76696Y198503D01*
X76297Y198103D01*
X75897D01*
X76297Y197703D01*
X75897Y197303D01*
X76297D01*
X76696Y196903D01*
Y197303D02*
X76897Y197503D01*
X77096D01*
X76897Y197703D01*
X77096Y197903D01*
X76897D01*
X76696Y198103D01*
X76496Y197903D01*
X76297D01*
X76496Y197703D01*
X76297Y197503D01*
X76496D01*
X76696Y197303D01*
X39689Y263373D02*
X40089Y263773D01*
X40489D01*
X40089Y264173D01*
X40489Y264573D01*
X40089D01*
X39689Y264973D01*
X39289Y264573D01*
X38889D01*
X39289Y264173D01*
X38889Y263773D01*
X39289D01*
X39689Y263373D01*
Y263773D02*
X39889Y263973D01*
X40089D01*
X39889Y264173D01*
X40089Y264373D01*
X39889D01*
X39689Y264573D01*
X39489Y264373D01*
X39289D01*
X39489Y264173D01*
X39289Y263973D01*
X39489D01*
X39689Y263773D01*
X76720Y193688D02*
X77120Y194088D01*
X77520D01*
X77120Y194488D01*
X77520Y194888D01*
X77120D01*
X76720Y195288D01*
X76320Y194888D01*
X75920D01*
X76320Y194488D01*
X75920Y194088D01*
X76320D01*
X76720Y193688D01*
Y194088D02*
X76920Y194288D01*
X77120D01*
X76920Y194488D01*
X77120Y194688D01*
X76920D01*
X76720Y194888D01*
X76520Y194688D01*
X76320D01*
X76520Y194488D01*
X76320Y194288D01*
X76520D01*
X76720Y194088D01*
X36048Y269279D02*
X36448Y269679D01*
X36848D01*
X36448Y270079D01*
X36848Y270479D01*
X36448D01*
X36048Y270879D01*
X35648Y270479D01*
X35248D01*
X35648Y270079D01*
X35248Y269679D01*
X35648D01*
X36048Y269279D01*
Y269679D02*
X36248Y269879D01*
X36448D01*
X36248Y270079D01*
X36448Y270279D01*
X36248D01*
X36048Y270479D01*
X35848Y270279D01*
X35648D01*
X35848Y270079D01*
X35648Y269879D01*
X35848D01*
X36048Y269679D01*
X32677Y273609D02*
X33077Y274009D01*
X33477D01*
X33077Y274410D01*
X33477Y274810D01*
X33077D01*
X32677Y275209D01*
X32277Y274810D01*
X31877D01*
X32277Y274410D01*
X31877Y274009D01*
X32277D01*
X32677Y273609D01*
Y274009D02*
X32877Y274209D01*
X33077D01*
X32877Y274410D01*
X33077Y274609D01*
X32877D01*
X32677Y274810D01*
X32477Y274609D01*
X32277D01*
X32477Y274410D01*
X32277Y274209D01*
X32477D01*
X32677Y274009D01*
X28535Y62586D02*
X27735Y64186D01*
X29335D01*
X28535Y62586D01*
Y62986D02*
X28135Y63786D01*
X28935D01*
X28535Y62986D01*
X27953Y34239D02*
X28353Y34639D01*
X28753D01*
X28353Y35039D01*
X28753Y35439D01*
X28353D01*
X27953Y35839D01*
X27553Y35439D01*
X27153D01*
X27553Y35039D01*
X27153Y34639D01*
X27553D01*
X27953Y34239D01*
Y34639D02*
X28153Y34839D01*
X28353D01*
X28153Y35039D01*
X28353Y35239D01*
X28153D01*
X27953Y35439D01*
X27753Y35239D01*
X27553D01*
X27753Y35039D01*
X27553Y34839D01*
X27753D01*
X27953Y34639D01*
X59338Y277649D02*
X59738Y278049D01*
X60138D01*
X59738Y278449D01*
X60138Y278849D01*
X59738D01*
X59338Y279249D01*
X58938Y278849D01*
X58538D01*
X58938Y278449D01*
X58538Y278049D01*
X58938D01*
X59338Y277649D01*
Y278049D02*
X59538Y278249D01*
X59738D01*
X59538Y278449D01*
X59738Y278649D01*
X59538D01*
X59338Y278849D01*
X59138Y278649D01*
X58938D01*
X59138Y278449D01*
X58938Y278249D01*
X59138D01*
X59338Y278049D01*
X307774Y93255D02*
X306974Y94855D01*
X308574D01*
X307774Y93255D01*
Y93655D02*
X307374Y94455D01*
X308174D01*
X307774Y93655D01*
X308268Y123255D02*
X307468Y124855D01*
X309068D01*
X308268Y123255D01*
Y123655D02*
X307868Y124455D01*
X308668D01*
X308268Y123655D01*
X340158Y264554D02*
X339357Y266154D01*
X340957D01*
X340158Y264554D01*
Y264954D02*
X339757Y265754D01*
X340558D01*
X340158Y264954D01*
X307358Y196877D02*
X306558Y198477D01*
X308158D01*
X307358Y196877D01*
Y197277D02*
X306958Y198077D01*
X307758D01*
X307358Y197277D01*
X14948Y377153D02*
X15348Y377953D01*
X14948Y378753D01*
X15748Y378353D01*
X16548Y378753D01*
X16148Y377953D01*
X16548Y377153D01*
X15748Y377553D01*
X14948Y377153D01*
X15348Y377553D02*
X15548Y377953D01*
X15348Y378353D01*
X15748Y378153D01*
X16148Y378353D01*
X15948Y377953D01*
X16148Y377553D01*
X15748Y377753D01*
X15348Y377553D01*
X14948Y14948D02*
X15348Y15748D01*
X14948Y16548D01*
X15748Y16148D01*
X16548Y16548D01*
X16148Y15748D01*
X16548Y14948D01*
X15748Y15348D01*
X14948Y14948D01*
X15348Y15348D02*
X15548Y15748D01*
X15348Y16148D01*
X15748Y15948D01*
X16148Y16148D01*
X15948Y15748D01*
X16148Y15348D01*
X15748Y15548D01*
X15348Y15348D01*
X377153Y14948D02*
X377553Y15748D01*
X377153Y16548D01*
X377953Y16148D01*
X378753Y16548D01*
X378353Y15748D01*
X378753Y14948D01*
X377953Y15348D01*
X377153Y14948D01*
X377553Y15348D02*
X377753Y15748D01*
X377553Y16148D01*
X377953Y15948D01*
X378353Y16148D01*
X378153Y15748D01*
X378353Y15348D01*
X377953Y15548D01*
X377553Y15348D01*
X377153Y377153D02*
X377553Y377953D01*
X377153Y378753D01*
X377953Y378353D01*
X378753Y378753D01*
X378353Y377953D01*
X378753Y377153D01*
X377953Y377553D01*
X377153Y377153D01*
X377553Y377553D02*
X377753Y377953D01*
X377553Y378353D01*
X377953Y378153D01*
X378353Y378353D01*
X378153Y377953D01*
X378353Y377553D01*
X377953Y377753D01*
X377553Y377553D01*
D11*
X347897Y124706D02*
G03*
X347897Y124706I-800J0D01*
G01*
X357897Y119705D02*
G03*
X357897Y119705I-800J0D01*
G01*
X347897Y114706D02*
G03*
X347897Y114706I-800J0D01*
G01*
X357897Y109705D02*
G03*
X357897Y109705I-800J0D01*
G01*
X347897Y104706D02*
G03*
X347897Y104706I-800J0D01*
G01*
X357897Y99705D02*
G03*
X357897Y99705I-800J0D01*
G01*
X347897Y94705D02*
G03*
X347897Y94705I-800J0D01*
G01*
X357897Y89705D02*
G03*
X357897Y89705I-800J0D01*
G01*
X90564Y275837D02*
G03*
X90564Y275837I-800J0D01*
G01*
X80564D02*
G03*
X80564Y275837I-800J0D01*
G01*
X213950Y58425D02*
G03*
X213950Y58425I-800J0D01*
G01*
Y48425D02*
G03*
X213950Y48425I-800J0D01*
G01*
X203950Y58425D02*
G03*
X203950Y58425I-800J0D01*
G01*
Y48425D02*
G03*
X203950Y48425I-800J0D01*
G01*
X193950Y58425D02*
G03*
X193950Y58425I-800J0D01*
G01*
Y48425D02*
G03*
X193950Y48425I-800J0D01*
G01*
X183950Y58425D02*
G03*
X183950Y58425I-800J0D01*
G01*
X183950Y48425D02*
G03*
X183950Y48425I-800J0D01*
G01*
X326554Y5433D02*
G03*
X326554Y5433I-800J0D01*
G01*
Y15433D02*
G03*
X326554Y15433I-800J0D01*
G01*
Y25433D02*
G03*
X326554Y25433I-800J0D01*
G01*
Y35433D02*
G03*
X326554Y35433I-800J0D01*
G01*
Y45433D02*
G03*
X326554Y45433I-800J0D01*
G01*
Y55433D02*
G03*
X326554Y55433I-800J0D01*
G01*
X246469Y5433D02*
G03*
X246469Y5433I-800J0D01*
G01*
Y15433D02*
G03*
X246469Y15433I-800J0D01*
G01*
Y25433D02*
G03*
X246469Y25433I-800J0D01*
G01*
Y35433D02*
G03*
X246469Y35433I-800J0D01*
G01*
Y45433D02*
G03*
X246469Y45433I-800J0D01*
G01*
Y55433D02*
G03*
X246469Y55433I-800J0D01*
G01*
X357370Y168856D02*
G03*
X357370Y168856I-800J0D01*
G01*
X347370Y173856D02*
G03*
X347370Y173856I-800J0D01*
G01*
X357370Y178856D02*
G03*
X357370Y178856I-800J0D01*
G01*
X347370Y183856D02*
G03*
X347370Y183856I-800J0D01*
G01*
X357370Y188856D02*
G03*
X357370Y188856I-800J0D01*
G01*
X347370Y193856D02*
G03*
X347370Y193856I-800J0D01*
G01*
X357370Y198856D02*
G03*
X357370Y198856I-800J0D01*
G01*
X347370Y203856D02*
G03*
X347370Y203856I-800J0D01*
G01*
X171666Y366142D02*
G03*
X171666Y366142I-800J0D01*
G01*
X179540D02*
G03*
X179540Y366142I-800J0D01*
G01*
X175209D02*
G03*
X175209Y366142I-800J0D01*
G01*
X241351Y157917D02*
G03*
X241351Y157917I-800J0D01*
G01*
Y165748D02*
G03*
X241351Y165748I-800J0D01*
G01*
X204737Y375590D02*
G03*
X204737Y375590I-800J0D01*
G01*
X35052Y42913D02*
G03*
X35052Y42913I-800J0D01*
G01*
X28753Y39217D02*
G03*
X28753Y39217I-800J0D01*
G01*
X203359Y305118D02*
G03*
X203359Y305118I-800J0D01*
G01*
X190564Y309252D02*
G03*
X190564Y309252I-800J0D01*
G01*
X193950Y97441D02*
G03*
X193950Y97441I-800J0D01*
G01*
X221666Y125197D02*
G03*
X221666Y125197I-800J0D01*
G01*
X206312Y148819D02*
G03*
X206312Y148819I-800J0D01*
G01*
X275209Y94055D02*
G03*
X275209Y94055I-800J0D01*
G01*
X203162Y155905D02*
G03*
X203162Y155905I-800J0D01*
G01*
X183477Y158059D02*
G03*
X183477Y158059I-800J0D01*
G01*
X336627Y181102D02*
G03*
X336627Y181102I-800J0D01*
G01*
X264371Y211602D02*
G03*
X264371Y211602I-800J0D01*
G01*
X342870Y157087D02*
G03*
X342870Y157087I-800J0D01*
G01*
X83083Y111024D02*
G03*
X83083Y111024I-800J0D01*
G01*
X158576Y147240D02*
G03*
X158576Y147240I-800J0D01*
G01*
X156104Y150303D02*
G03*
X156104Y150303I-800J0D01*
G01*
X49225Y26772D02*
G03*
X49225Y26772I-800J0D01*
G01*
X45367D02*
G03*
X45367Y26772I-800J0D01*
G01*
X367513Y241732D02*
G03*
X367513Y241732I-800J0D01*
G01*
X366154Y45433D02*
G03*
X366154Y45433I-800J0D01*
G01*
X156104Y144095D02*
G03*
X156104Y144095I-800J0D01*
G01*
X158576Y140945D02*
G03*
X158576Y140945I-800J0D01*
G01*
X190564Y303346D02*
G03*
X190564Y303346I-800J0D01*
G01*
X191351Y282677D02*
G03*
X191351Y282677I-800J0D01*
G01*
X176391Y137795D02*
G03*
X176391Y137795I-800J0D01*
G01*
X201784Y299410D02*
G03*
X201784Y299410I-800J0D01*
G01*
X158576Y183858D02*
G03*
X158576Y183858I-800J0D01*
G01*
X161922Y211811D02*
G03*
X161922Y211811I-800J0D01*
G01*
X192139Y156693D02*
G03*
X192139Y156693I-800J0D01*
G01*
X192229Y144095D02*
G03*
X192229Y144095I-800J0D01*
G01*
X192139Y128347D02*
G03*
X192139Y128347I-800J0D01*
G01*
X192229Y125106D02*
G03*
X192229Y125106I-800J0D01*
G01*
X198438Y343819D02*
G03*
X198438Y343819I-800J0D01*
G01*
X186432D02*
G03*
X186432Y343819I-800J0D01*
G01*
X200800Y115748D02*
G03*
X200800Y115748I-800J0D01*
G01*
X268910Y72835D02*
G03*
X268910Y72835I-800J0D01*
G01*
X199225Y159843D02*
G03*
X199225Y159843I-800J0D01*
G01*
X170288Y97441D02*
G03*
X170288Y97441I-800J0D01*
G01*
X166154Y197638D02*
G03*
X166154Y197638I-800J0D01*
G01*
X161922Y112481D02*
G03*
X161922Y112481I-800J0D01*
G01*
Y185827D02*
G03*
X161922Y185827I-800J0D01*
G01*
X41351Y26772D02*
G03*
X41351Y26772I-800J0D01*
G01*
X77845Y68898D02*
G03*
X77845Y68898I-800J0D01*
G01*
X45288Y115744D02*
G03*
X45288Y115744I-800J0D01*
G01*
X63792Y270866D02*
G03*
X63792Y270866I-800J0D01*
G01*
X63741Y274259D02*
G03*
X63741Y274259I-800J0D01*
G01*
X47650Y333858D02*
G03*
X47650Y333858I-800J0D01*
G01*
X52487Y336358D02*
G03*
X52487Y336358I-800J0D01*
G01*
X17487Y336122D02*
G03*
X17487Y336122I-800J0D01*
G01*
X104456Y318504D02*
G03*
X104456Y318504I-800J0D01*
G01*
X52300Y291722D02*
G03*
X52300Y291722I-800J0D01*
G01*
X104456Y299705D02*
G03*
X104456Y299705I-800J0D01*
G01*
X37487Y336437D02*
G03*
X37487Y336437I-800J0D01*
G01*
X99407Y299656D02*
G03*
X99407Y299656I-800J0D01*
G01*
X254319Y158145D02*
G03*
X254319Y158145I-800J0D01*
G01*
X264371Y138398D02*
G03*
X264371Y138398I-800J0D01*
G01*
X296095Y138398D02*
G03*
X296095Y138398I-800J0D01*
G01*
X337808Y107874D02*
G03*
X337808Y107874I-800J0D01*
G01*
X200013Y207087D02*
G03*
X200013Y207087I-800J0D01*
G01*
X228359Y343819D02*
G03*
X228359Y343819I-800J0D01*
G01*
Y358819D02*
G03*
X228359Y358819I-800J0D01*
G01*
X367513Y245276D02*
G03*
X367513Y245276I-800J0D01*
G01*
X235446Y148819D02*
G03*
X235446Y148819I-800J0D01*
G01*
X226391Y175689D02*
G03*
X226391Y175689I-800J0D01*
G01*
X213398Y168110D02*
G03*
X213398Y168110I-800J0D01*
G01*
X272158Y167677D02*
G03*
X272158Y167677I-800J0D01*
G01*
D12*
X171266Y366142D02*
G03*
X171266Y366142I-400J0D01*
G01*
X179140D02*
G03*
X179140Y366142I-400J0D01*
G01*
X174809D02*
G03*
X174809Y366142I-400J0D01*
G01*
X240951Y157917D02*
G03*
X240951Y157917I-400J0D01*
G01*
Y165748D02*
G03*
X240951Y165748I-400J0D01*
G01*
X204337Y375590D02*
G03*
X204337Y375590I-400J0D01*
G01*
X34652Y42913D02*
G03*
X34652Y42913I-400J0D01*
G01*
X28353Y39217D02*
G03*
X28353Y39217I-400J0D01*
G01*
X202959Y305118D02*
G03*
X202959Y305118I-400J0D01*
G01*
X190164Y309252D02*
G03*
X190164Y309252I-400J0D01*
G01*
X193550Y97441D02*
G03*
X193550Y97441I-400J0D01*
G01*
X221266Y125197D02*
G03*
X221266Y125197I-400J0D01*
G01*
X205912Y148819D02*
G03*
X205912Y148819I-400J0D01*
G01*
X274810Y94055D02*
G03*
X274810Y94055I-400J0D01*
G01*
X202762Y155905D02*
G03*
X202762Y155905I-400J0D01*
G01*
X183077Y158059D02*
G03*
X183077Y158059I-400J0D01*
G01*
X336227Y181102D02*
G03*
X336227Y181102I-400J0D01*
G01*
X263971Y211602D02*
G03*
X263971Y211602I-400J0D01*
G01*
X342470Y157087D02*
G03*
X342470Y157087I-400J0D01*
G01*
X82683Y111024D02*
G03*
X82683Y111024I-400J0D01*
G01*
X158176Y147240D02*
G03*
X158176Y147240I-400J0D01*
G01*
X155703Y150303D02*
G03*
X155703Y150303I-400J0D01*
G01*
X48825Y26772D02*
G03*
X48825Y26772I-400J0D01*
G01*
X44967D02*
G03*
X44967Y26772I-400J0D01*
G01*
X367113Y241732D02*
G03*
X367113Y241732I-400J0D01*
G01*
X365754Y45433D02*
G03*
X365754Y45433I-400J0D01*
G01*
X155703Y144095D02*
G03*
X155703Y144095I-400J0D01*
G01*
X158176Y140945D02*
G03*
X158176Y140945I-400J0D01*
G01*
X190164Y303346D02*
G03*
X190164Y303346I-400J0D01*
G01*
X190951Y282677D02*
G03*
X190951Y282677I-400J0D01*
G01*
X175990Y137795D02*
G03*
X175990Y137795I-400J0D01*
G01*
X201384Y299410D02*
G03*
X201384Y299410I-400J0D01*
G01*
X158176Y183858D02*
G03*
X158176Y183858I-400J0D01*
G01*
X161522Y211811D02*
G03*
X161522Y211811I-400J0D01*
G01*
X191739Y156693D02*
G03*
X191739Y156693I-400J0D01*
G01*
X191829Y144095D02*
G03*
X191829Y144095I-400J0D01*
G01*
X191739Y128347D02*
G03*
X191739Y128347I-400J0D01*
G01*
X191829Y125106D02*
G03*
X191829Y125106I-400J0D01*
G01*
X198038Y343819D02*
G03*
X198038Y343819I-400J0D01*
G01*
X186032D02*
G03*
X186032Y343819I-400J0D01*
G01*
X200400Y115748D02*
G03*
X200400Y115748I-400J0D01*
G01*
X268510Y72835D02*
G03*
X268510Y72835I-400J0D01*
G01*
X198825Y159843D02*
G03*
X198825Y159843I-400J0D01*
G01*
X169888Y97441D02*
G03*
X169888Y97441I-400J0D01*
G01*
X165754Y197638D02*
G03*
X165754Y197638I-400J0D01*
G01*
X161522Y112481D02*
G03*
X161522Y112481I-400J0D01*
G01*
Y185827D02*
G03*
X161522Y185827I-400J0D01*
G01*
X40951Y26772D02*
G03*
X40951Y26772I-400J0D01*
G01*
X77445Y68898D02*
G03*
X77445Y68898I-400J0D01*
G01*
X44888Y115744D02*
G03*
X44888Y115744I-400J0D01*
G01*
X63392Y270866D02*
G03*
X63392Y270866I-400J0D01*
G01*
X63341Y274259D02*
G03*
X63341Y274259I-400J0D01*
G01*
X47250Y333858D02*
G03*
X47250Y333858I-400J0D01*
G01*
X52087Y336358D02*
G03*
X52087Y336358I-400J0D01*
G01*
X17087Y336122D02*
G03*
X17087Y336122I-400J0D01*
G01*
X104056Y318504D02*
G03*
X104056Y318504I-400J0D01*
G01*
X51900Y291722D02*
G03*
X51900Y291722I-400J0D01*
G01*
X104056Y299705D02*
G03*
X104056Y299705I-400J0D01*
G01*
X37087Y336437D02*
G03*
X37087Y336437I-400J0D01*
G01*
X99007Y299656D02*
G03*
X99007Y299656I-400J0D01*
G01*
X253919Y158145D02*
G03*
X253919Y158145I-400J0D01*
G01*
X263971Y138398D02*
G03*
X263971Y138398I-400J0D01*
G01*
X295695Y138398D02*
G03*
X295695Y138398I-400J0D01*
G01*
X337408Y107874D02*
G03*
X337408Y107874I-400J0D01*
G01*
X199613Y207087D02*
G03*
X199613Y207087I-400J0D01*
G01*
X227959Y343819D02*
G03*
X227959Y343819I-400J0D01*
G01*
Y358819D02*
G03*
X227959Y358819I-400J0D01*
G01*
X367113Y245276D02*
G03*
X367113Y245276I-400J0D01*
G01*
X235046Y148819D02*
G03*
X235046Y148819I-400J0D01*
G01*
X225991Y175689D02*
G03*
X225991Y175689I-400J0D01*
G01*
X212998Y168110D02*
G03*
X212998Y168110I-400J0D01*
G01*
X271758Y167677D02*
G03*
X271758Y167677I-400J0D01*
G01*
M02*
