G04*
G04 #@! TF.GenerationSoftware,Altium Limited,Altium Designer,19.0.4 (130)*
G04*
G04 Layer_Color=8421504*
%FSLAX25Y25*%
%MOIN*%
G70*
G01*
G75*
%ADD21R,0.09055X0.01181*%
%ADD22O,0.09843X0.05512*%
%ADD23R,0.09843X0.05512*%
%ADD24R,0.03661X0.03858*%
%ADD25R,0.03858X0.03661*%
%ADD26R,0.06500X0.02500*%
%ADD27R,0.10236X0.07087*%
%ADD28R,0.07087X0.05315*%
%ADD29R,0.06102X0.13583*%
%ADD30R,0.06102X0.04331*%
%ADD31R,0.06102X0.04331*%
%ADD32R,0.05787X0.04567*%
%ADD33R,0.04567X0.05787*%
%ADD34R,0.05512X0.07087*%
%ADD35R,0.02362X0.07480*%
%ADD36R,0.02362X0.07480*%
%ADD37R,0.03740X0.03543*%
%ADD38R,0.03740X0.03543*%
D21*
X222833Y230713D02*
D03*
Y227563D02*
D03*
Y224413D02*
D03*
Y221264D02*
D03*
Y218114D02*
D03*
Y214965D02*
D03*
Y211815D02*
D03*
Y208665D02*
D03*
Y205516D02*
D03*
Y202366D02*
D03*
Y199216D02*
D03*
Y196067D02*
D03*
Y192917D02*
D03*
Y189768D02*
D03*
Y186618D02*
D03*
Y183468D02*
D03*
Y180319D02*
D03*
Y177169D02*
D03*
Y174020D02*
D03*
Y170870D02*
D03*
Y167720D02*
D03*
Y164571D02*
D03*
Y161421D02*
D03*
Y158272D02*
D03*
Y155122D02*
D03*
Y151972D02*
D03*
Y148823D02*
D03*
Y145673D02*
D03*
Y142524D02*
D03*
Y139374D02*
D03*
X207085D02*
D03*
Y142524D02*
D03*
Y145673D02*
D03*
Y148823D02*
D03*
Y151972D02*
D03*
Y155122D02*
D03*
Y158272D02*
D03*
Y161421D02*
D03*
Y164571D02*
D03*
Y167720D02*
D03*
Y170870D02*
D03*
Y174020D02*
D03*
Y177169D02*
D03*
Y180319D02*
D03*
Y183468D02*
D03*
Y186618D02*
D03*
Y189768D02*
D03*
Y192917D02*
D03*
Y196067D02*
D03*
Y199216D02*
D03*
Y202366D02*
D03*
Y205516D02*
D03*
Y208665D02*
D03*
Y211815D02*
D03*
Y214965D02*
D03*
Y218114D02*
D03*
Y221264D02*
D03*
Y224413D02*
D03*
Y227563D02*
D03*
Y230713D02*
D03*
X84646Y230709D02*
D03*
Y227559D02*
D03*
Y224410D02*
D03*
Y221260D02*
D03*
Y218110D02*
D03*
Y214961D02*
D03*
Y211811D02*
D03*
Y208661D02*
D03*
Y205512D02*
D03*
Y202362D02*
D03*
Y199213D02*
D03*
Y196063D02*
D03*
Y192913D02*
D03*
Y189764D02*
D03*
Y186614D02*
D03*
Y183465D02*
D03*
Y180315D02*
D03*
Y177165D02*
D03*
Y174016D02*
D03*
Y170866D02*
D03*
Y167717D02*
D03*
Y164567D02*
D03*
Y161417D02*
D03*
Y158268D02*
D03*
Y155118D02*
D03*
Y151969D02*
D03*
Y148819D02*
D03*
Y145669D02*
D03*
Y142520D02*
D03*
Y139370D02*
D03*
X100394D02*
D03*
Y142520D02*
D03*
Y145669D02*
D03*
Y148819D02*
D03*
Y151969D02*
D03*
Y155118D02*
D03*
Y158268D02*
D03*
Y161417D02*
D03*
Y164567D02*
D03*
Y167717D02*
D03*
Y170866D02*
D03*
Y174016D02*
D03*
Y177165D02*
D03*
Y180315D02*
D03*
Y183465D02*
D03*
Y186614D02*
D03*
Y189764D02*
D03*
Y192913D02*
D03*
Y196063D02*
D03*
Y199213D02*
D03*
Y202362D02*
D03*
Y205512D02*
D03*
Y208661D02*
D03*
Y211811D02*
D03*
Y214961D02*
D03*
Y218110D02*
D03*
Y221260D02*
D03*
Y224410D02*
D03*
Y227559D02*
D03*
Y230709D02*
D03*
D22*
X352858Y249567D02*
D03*
Y259567D02*
D03*
X314858Y249567D02*
D03*
Y259567D02*
D03*
Y269567D02*
D03*
X352858Y279567D02*
D03*
Y269567D02*
D03*
D23*
X314858Y279567D02*
D03*
D24*
X380945Y324016D02*
D03*
X387008D02*
D03*
X224528Y54331D02*
D03*
X230591D02*
D03*
X359961Y348031D02*
D03*
X366024D02*
D03*
X387126Y335039D02*
D03*
X393189D02*
D03*
X308898Y292913D02*
D03*
X314961D02*
D03*
X358661Y292520D02*
D03*
X352598D02*
D03*
X374252Y141732D02*
D03*
X380315D02*
D03*
X435827Y162598D02*
D03*
X429764D02*
D03*
X387126Y348031D02*
D03*
X393189D02*
D03*
D25*
X389764Y262717D02*
D03*
Y268779D02*
D03*
X369685Y270591D02*
D03*
Y276654D02*
D03*
X369291Y254173D02*
D03*
Y260236D02*
D03*
X191339Y230594D02*
D03*
Y224532D02*
D03*
X190551Y86732D02*
D03*
Y92795D02*
D03*
X321260Y60354D02*
D03*
Y66417D02*
D03*
D26*
X343701Y339528D02*
D03*
Y334528D02*
D03*
Y329528D02*
D03*
Y324528D02*
D03*
X366142Y339528D02*
D03*
Y334528D02*
D03*
Y329528D02*
D03*
Y324528D02*
D03*
D27*
X205315Y98425D02*
D03*
Y86614D02*
D03*
D28*
X235079Y64567D02*
D03*
X224764D02*
D03*
D29*
X248327Y86614D02*
D03*
D30*
X221752Y77559D02*
D03*
Y86614D02*
D03*
D31*
Y95669D02*
D03*
D32*
X321260Y89803D02*
D03*
Y96811D02*
D03*
D33*
X403937Y141732D02*
D03*
X396929D02*
D03*
D34*
X85433Y42913D02*
D03*
X107480D02*
D03*
D35*
X90551Y57087D02*
D03*
X94488Y57086D02*
D03*
X98425D02*
D03*
D36*
X102362Y57087D02*
D03*
D37*
X403354Y269094D02*
D03*
X412606Y265354D02*
D03*
D38*
X403354Y261614D02*
D03*
M02*
