G04*
G04 #@! TF.GenerationSoftware,Altium Limited,Altium Designer,19.0.4 (130)*
G04*
G04 Layer_Color=16711935*
%FSLAX25Y25*%
%MOIN*%
G70*
G01*
G75*
%ADD57R,0.06706X0.06706*%
%ADD58C,0.06706*%
%ADD59C,0.04737*%
%ADD60C,0.05131*%
%ADD61R,0.06800X0.06800*%
%ADD62C,0.06800*%
%ADD63C,0.10642*%
%ADD64R,0.10642X0.10642*%
%ADD65C,0.03800*%
%ADD67C,0.02800*%
%ADD85C,0.15800*%
D57*
X205118Y54567D02*
D03*
D58*
Y64567D02*
D03*
D59*
X428346Y96457D02*
D03*
X436221D02*
D03*
X347913Y52362D02*
D03*
Y60236D02*
D03*
D60*
X348031Y83268D02*
D03*
Y97047D02*
D03*
X435827Y128937D02*
D03*
Y142717D02*
D03*
D61*
X398819Y122283D02*
D03*
D62*
Y112284D02*
D03*
Y102284D02*
D03*
Y82284D02*
D03*
Y72284D02*
D03*
Y62283D02*
D03*
Y52284D02*
D03*
D63*
X435827Y344094D02*
D03*
Y208268D02*
D03*
X435827Y275591D02*
D03*
D64*
X435827Y324410D02*
D03*
Y188583D02*
D03*
X435827Y255906D02*
D03*
D65*
X428346Y153937D02*
D03*
D67*
X393307Y329528D02*
D03*
X249606Y64567D02*
D03*
X181496Y92795D02*
D03*
X380945Y316535D02*
D03*
X359961Y355787D02*
D03*
X231102Y230713D02*
D03*
X234646Y139374D02*
D03*
X72441Y139370D02*
D03*
X94488Y68504D02*
D03*
X419685Y265354D02*
D03*
X259055Y86614D02*
D03*
X300354Y279567D02*
D03*
X333858Y339764D02*
D03*
X334252Y334252D02*
D03*
X312598Y317323D02*
D03*
X245276Y247638D02*
D03*
X214961Y180319D02*
D03*
X214959Y148823D02*
D03*
X303150Y269685D02*
D03*
Y254409D02*
D03*
X367717Y292520D02*
D03*
X300787Y292913D02*
D03*
X191339Y238189D02*
D03*
X314567Y240945D02*
D03*
X352858D02*
D03*
X375197Y329528D02*
D03*
D85*
X452756Y19685D02*
D03*
Y377953D02*
D03*
X19685Y19685D02*
D03*
Y377953D02*
D03*
M02*
