G04*
G04 #@! TF.GenerationSoftware,Altium Limited,Altium Designer,19.0.4 (130)*
G04*
G04 Layer_Color=8388736*
%FSLAX25Y25*%
%MOIN*%
G70*
G01*
G75*
%ADD39R,0.09855X0.01981*%
%ADD40O,0.10642X0.06312*%
%ADD41R,0.10642X0.06312*%
%ADD42R,0.04461X0.04658*%
%ADD43R,0.04658X0.04461*%
%ADD44R,0.07300X0.03300*%
%ADD45R,0.11036X0.07887*%
%ADD46R,0.07887X0.06115*%
%ADD47R,0.06902X0.14383*%
%ADD48R,0.06902X0.05131*%
%ADD49R,0.06902X0.05131*%
%ADD50R,0.06587X0.05367*%
%ADD51R,0.05367X0.06587*%
%ADD52R,0.06312X0.07887*%
%ADD53R,0.03162X0.08280*%
%ADD54R,0.03162X0.08280*%
%ADD55R,0.04540X0.04343*%
%ADD56R,0.04540X0.04343*%
%ADD57R,0.06706X0.06706*%
%ADD58C,0.06706*%
%ADD59C,0.04737*%
%ADD60C,0.05131*%
%ADD61R,0.06800X0.06800*%
%ADD62C,0.06800*%
%ADD63C,0.10642*%
%ADD64R,0.10642X0.10642*%
%ADD65C,0.03800*%
%ADD66C,0.04800*%
%ADD67C,0.02800*%
%ADD68C,0.20800*%
D39*
X222833Y230713D02*
D03*
Y227563D02*
D03*
Y224413D02*
D03*
Y221264D02*
D03*
Y218114D02*
D03*
Y214965D02*
D03*
Y211815D02*
D03*
Y208665D02*
D03*
Y205516D02*
D03*
Y202366D02*
D03*
Y199216D02*
D03*
Y196067D02*
D03*
Y192917D02*
D03*
Y189768D02*
D03*
Y186618D02*
D03*
Y183468D02*
D03*
Y180319D02*
D03*
Y177169D02*
D03*
Y174020D02*
D03*
Y170870D02*
D03*
Y167720D02*
D03*
Y164571D02*
D03*
Y161421D02*
D03*
Y158272D02*
D03*
Y155122D02*
D03*
Y151972D02*
D03*
Y148823D02*
D03*
Y145673D02*
D03*
Y142524D02*
D03*
Y139374D02*
D03*
X207085D02*
D03*
Y142524D02*
D03*
Y145673D02*
D03*
Y148823D02*
D03*
Y151972D02*
D03*
Y155122D02*
D03*
Y158272D02*
D03*
Y161421D02*
D03*
Y164571D02*
D03*
Y167720D02*
D03*
Y170870D02*
D03*
Y174020D02*
D03*
Y177169D02*
D03*
Y180319D02*
D03*
Y183468D02*
D03*
Y186618D02*
D03*
Y189768D02*
D03*
Y192917D02*
D03*
Y196067D02*
D03*
Y199216D02*
D03*
Y202366D02*
D03*
Y205516D02*
D03*
Y208665D02*
D03*
Y211815D02*
D03*
Y214965D02*
D03*
Y218114D02*
D03*
Y221264D02*
D03*
Y224413D02*
D03*
Y227563D02*
D03*
Y230713D02*
D03*
X84646Y230709D02*
D03*
Y227559D02*
D03*
Y224410D02*
D03*
Y221260D02*
D03*
Y218110D02*
D03*
Y214961D02*
D03*
Y211811D02*
D03*
Y208661D02*
D03*
Y205512D02*
D03*
Y202362D02*
D03*
Y199213D02*
D03*
Y196063D02*
D03*
Y192913D02*
D03*
Y189764D02*
D03*
Y186614D02*
D03*
Y183465D02*
D03*
Y180315D02*
D03*
Y177165D02*
D03*
Y174016D02*
D03*
Y170866D02*
D03*
Y167717D02*
D03*
Y164567D02*
D03*
Y161417D02*
D03*
Y158268D02*
D03*
Y155118D02*
D03*
Y151969D02*
D03*
Y148819D02*
D03*
Y145669D02*
D03*
Y142520D02*
D03*
Y139370D02*
D03*
X100394D02*
D03*
Y142520D02*
D03*
Y145669D02*
D03*
Y148819D02*
D03*
Y151969D02*
D03*
Y155118D02*
D03*
Y158268D02*
D03*
Y161417D02*
D03*
Y164567D02*
D03*
Y167717D02*
D03*
Y170866D02*
D03*
Y174016D02*
D03*
Y177165D02*
D03*
Y180315D02*
D03*
Y183465D02*
D03*
Y186614D02*
D03*
Y189764D02*
D03*
Y192913D02*
D03*
Y196063D02*
D03*
Y199213D02*
D03*
Y202362D02*
D03*
Y205512D02*
D03*
Y208661D02*
D03*
Y211811D02*
D03*
Y214961D02*
D03*
Y218110D02*
D03*
Y221260D02*
D03*
Y224410D02*
D03*
Y227559D02*
D03*
Y230709D02*
D03*
D40*
X352858Y249567D02*
D03*
Y259567D02*
D03*
X314858Y249567D02*
D03*
Y259567D02*
D03*
Y269567D02*
D03*
X352858Y279567D02*
D03*
Y269567D02*
D03*
D41*
X314858Y279567D02*
D03*
D42*
X380945Y324016D02*
D03*
X387008D02*
D03*
X224528Y54331D02*
D03*
X230591D02*
D03*
X359961Y348031D02*
D03*
X366024D02*
D03*
X387126Y335039D02*
D03*
X393189D02*
D03*
X308898Y292913D02*
D03*
X314961D02*
D03*
X358661Y292520D02*
D03*
X352598D02*
D03*
X374252Y141732D02*
D03*
X380315D02*
D03*
X435827Y162598D02*
D03*
X429764D02*
D03*
X387126Y348031D02*
D03*
X393189D02*
D03*
D43*
X389764Y262717D02*
D03*
Y268779D02*
D03*
X369685Y270591D02*
D03*
Y276654D02*
D03*
X369291Y254173D02*
D03*
Y260236D02*
D03*
X191339Y230594D02*
D03*
Y224532D02*
D03*
X190551Y86732D02*
D03*
Y92795D02*
D03*
X321260Y60354D02*
D03*
Y66417D02*
D03*
D44*
X343701Y339528D02*
D03*
Y334528D02*
D03*
Y329528D02*
D03*
Y324528D02*
D03*
X366142Y339528D02*
D03*
Y334528D02*
D03*
Y329528D02*
D03*
Y324528D02*
D03*
D45*
X205315Y98425D02*
D03*
Y86614D02*
D03*
D46*
X235079Y64567D02*
D03*
X224764D02*
D03*
D47*
X248327Y86614D02*
D03*
D48*
X221752Y77559D02*
D03*
Y86614D02*
D03*
D49*
Y95669D02*
D03*
D50*
X321260Y89803D02*
D03*
Y96811D02*
D03*
D51*
X403937Y141732D02*
D03*
X396929D02*
D03*
D52*
X85433Y42913D02*
D03*
X107480D02*
D03*
D53*
X90551Y57087D02*
D03*
X94488Y57086D02*
D03*
X98425D02*
D03*
D54*
X102362Y57087D02*
D03*
D55*
X403354Y269094D02*
D03*
X412606Y265354D02*
D03*
D56*
X403354Y261614D02*
D03*
D57*
X205118Y54567D02*
D03*
D58*
Y64567D02*
D03*
D59*
X428346Y96457D02*
D03*
X436221D02*
D03*
X347913Y52362D02*
D03*
Y60236D02*
D03*
D60*
X348031Y83268D02*
D03*
Y97047D02*
D03*
X435827Y128937D02*
D03*
Y142717D02*
D03*
D61*
X398819Y122283D02*
D03*
D62*
Y112284D02*
D03*
Y102284D02*
D03*
Y82284D02*
D03*
Y72284D02*
D03*
Y62283D02*
D03*
Y52284D02*
D03*
D63*
X435827Y344094D02*
D03*
Y208268D02*
D03*
X435827Y275591D02*
D03*
D64*
X435827Y324410D02*
D03*
Y188583D02*
D03*
X435827Y255906D02*
D03*
D65*
X393307Y329528D02*
D03*
X181496Y92795D02*
D03*
X231102Y230713D02*
D03*
X234646Y139374D02*
D03*
X259055Y86614D02*
D03*
X300354Y279567D02*
D03*
X367717Y292520D02*
D03*
X300787Y292913D02*
D03*
X191339Y238189D02*
D03*
X314567Y240945D02*
D03*
X352858D02*
D03*
X375197Y329528D02*
D03*
D66*
X249606Y64567D02*
D03*
X380945Y316535D02*
D03*
X359961Y355787D02*
D03*
X72441Y139370D02*
D03*
X94488Y68504D02*
D03*
X419685Y265354D02*
D03*
X428346Y153937D02*
D03*
D67*
X333858Y339764D02*
D03*
X334252Y334252D02*
D03*
X312598Y317323D02*
D03*
X245276Y247638D02*
D03*
X214961Y180319D02*
D03*
X214959Y148823D02*
D03*
X303150Y269685D02*
D03*
Y254409D02*
D03*
D68*
X452756Y19685D02*
D03*
Y377953D02*
D03*
X19685Y19685D02*
D03*
Y377953D02*
D03*
M02*
