G04*
G04 #@! TF.GenerationSoftware,Altium Limited,Altium Designer,19.0.4 (130)*
G04*
G04 Layer_Physical_Order=2*
G04 Layer_Color=16711680*
%FSLAX25Y25*%
%MOIN*%
G70*
G01*
G75*
%ADD14C,0.01000*%
%ADD69C,0.01500*%
%ADD70C,0.03000*%
%ADD71C,0.02000*%
%ADD72R,0.05906X0.05906*%
%ADD73C,0.05906*%
%ADD74C,0.03937*%
%ADD75C,0.04331*%
%ADD76R,0.06000X0.06000*%
%ADD77C,0.06000*%
%ADD78C,0.09843*%
%ADD79R,0.09843X0.09843*%
%ADD80C,0.03000*%
%ADD82C,0.02000*%
%ADD84C,0.15000*%
G36*
X216349Y149506D02*
X216275Y149428D01*
X216149Y149280D01*
X216098Y149210D01*
X216055Y149141D01*
X216020Y149075D01*
X215993Y149011D01*
X215974Y148949D01*
X215962Y148890D01*
X215959Y148833D01*
X214969Y149823D01*
X215026Y149826D01*
X215086Y149838D01*
X215147Y149857D01*
X215211Y149884D01*
X215277Y149919D01*
X215346Y149962D01*
X215417Y150013D01*
X215489Y150072D01*
X215642Y150213D01*
X216349Y149506D01*
D02*
G37*
G36*
X216351Y181002D02*
X216276Y180924D01*
X216151Y180776D01*
X216100Y180706D01*
X216057Y180637D01*
X216022Y180571D01*
X215995Y180507D01*
X215975Y180445D01*
X215964Y180386D01*
X215961Y180329D01*
X214971Y181319D01*
X215028Y181322D01*
X215087Y181333D01*
X215149Y181353D01*
X215213Y181380D01*
X215279Y181415D01*
X215347Y181458D01*
X215418Y181509D01*
X215491Y181568D01*
X215644Y181709D01*
X216351Y181002D01*
D02*
G37*
G36*
X245776Y249104D02*
X245778Y248996D01*
X245794Y248803D01*
X245808Y248717D01*
X245826Y248638D01*
X245848Y248566D01*
X245874Y248502D01*
X245904Y248445D01*
X245938Y248395D01*
X245976Y248352D01*
X244576D01*
X244614Y248395D01*
X244648Y248445D01*
X244678Y248502D01*
X244704Y248566D01*
X244726Y248638D01*
X244744Y248717D01*
X244758Y248803D01*
X244768Y248896D01*
X244776Y249104D01*
X245776D01*
D02*
G37*
G36*
X303650Y255875D02*
X303652Y255767D01*
X303668Y255574D01*
X303682Y255488D01*
X303700Y255409D01*
X303722Y255338D01*
X303748Y255273D01*
X303778Y255216D01*
X303812Y255166D01*
X303850Y255123D01*
X302450D01*
X302488Y255166D01*
X302522Y255216D01*
X302552Y255273D01*
X302578Y255338D01*
X302600Y255409D01*
X302618Y255488D01*
X302632Y255574D01*
X302642Y255667D01*
X302650Y255875D01*
X303650D01*
D02*
G37*
G36*
X302650Y268219D02*
X302648Y268327D01*
X302632Y268520D01*
X302618Y268606D01*
X302600Y268685D01*
X302578Y268757D01*
X302552Y268821D01*
X302522Y268878D01*
X302488Y268928D01*
X302450Y268971D01*
X303850D01*
X303812Y268928D01*
X303778Y268878D01*
X303748Y268821D01*
X303722Y268757D01*
X303700Y268685D01*
X303682Y268606D01*
X303668Y268520D01*
X303658Y268427D01*
X303650Y268219D01*
X302650D01*
D02*
G37*
G36*
X311180Y317005D02*
X311257Y317084D01*
X311496Y317354D01*
X311538Y317410D01*
X311601Y317510D01*
X311621Y317553D01*
X311635Y317592D01*
X312310Y316365D01*
X312255Y316377D01*
X312196Y316379D01*
X312135Y316372D01*
X312072Y316355D01*
X312006Y316328D01*
X311938Y316292D01*
X311868Y316247D01*
X311795Y316191D01*
X311719Y316127D01*
X311641Y316052D01*
X311180Y317005D01*
D02*
G37*
G36*
X332862Y333569D02*
X332936Y333646D01*
X333062Y333794D01*
X333113Y333865D01*
X333156Y333934D01*
X333191Y334000D01*
X333218Y334064D01*
X333237Y334125D01*
X333249Y334185D01*
X333252Y334242D01*
X334242Y333252D01*
X334185Y333249D01*
X334125Y333237D01*
X334064Y333218D01*
X334000Y333191D01*
X333934Y333156D01*
X333865Y333113D01*
X333794Y333062D01*
X333722Y333003D01*
X333569Y332862D01*
X332862Y333569D01*
D02*
G37*
G36*
X332392Y340264D02*
X332500Y340266D01*
X332693Y340282D01*
X332779Y340296D01*
X332858Y340314D01*
X332930Y340336D01*
X332994Y340362D01*
X333051Y340392D01*
X333101Y340426D01*
X333144Y340464D01*
Y339064D01*
X333101Y339102D01*
X333051Y339136D01*
X332994Y339166D01*
X332930Y339192D01*
X332858Y339214D01*
X332779Y339232D01*
X332693Y339246D01*
X332600Y339256D01*
X332392Y339264D01*
Y340264D01*
D02*
G37*
D14*
X442248Y344094D02*
G03*
X442248Y344094I-6421J0D01*
G01*
X395807Y329528D02*
G03*
X393307Y332028I-2500J0D01*
G01*
X395807Y329528D02*
G03*
X393307Y332028I-2500J0D01*
G01*
Y327028D02*
G03*
X395807Y329528I0J2500D01*
G01*
X396307D02*
G03*
X391649Y332028I-3000J0D01*
G01*
X393307Y327028D02*
G03*
X395807Y329528I0J2500D01*
G01*
X391649Y327028D02*
G03*
X396307Y329528I1658J2500D01*
G01*
X384445Y316535D02*
G03*
X384445Y316535I-3500J0D01*
G01*
X375197Y332028D02*
G03*
X375197Y327028I0J-2500D01*
G01*
Y332028D02*
G03*
X375197Y327028I0J-2500D01*
G01*
X376855Y332028D02*
G03*
X376855Y327028I-1658J-2500D01*
G01*
X442248Y275591D02*
G03*
X442248Y275591I-6421J0D01*
G01*
X422185Y265354D02*
G03*
X422185Y265354I-2500J0D01*
G01*
X383445Y316535D02*
G03*
X383445Y316535I-2500J0D01*
G01*
X362461Y355787D02*
G03*
X362461Y355787I-2500J0D01*
G01*
X363461D02*
G03*
X363461Y355787I-3500J0D01*
G01*
X334657Y331785D02*
G03*
X336752Y334252I-405J2467D01*
G01*
D02*
G03*
X331785Y334655I-2500J0D01*
G01*
X336358Y339764D02*
G03*
X332399Y341794I-2500J0D01*
G01*
X332400Y337733D02*
G03*
X336358Y339764I1458J2031D01*
G01*
X331102Y341764D02*
G03*
X329688Y341178I0J-2000D01*
G01*
X331102Y341764D02*
G03*
X329685Y341175I0J-2000D01*
G01*
X315038Y317867D02*
G03*
X313723Y319556I-2440J-544D01*
G01*
X370717Y292520D02*
G03*
X370717Y292520I-3000J0D01*
G01*
X370216D02*
G03*
X370216Y292520I-2500J0D01*
G01*
X305180Y268227D02*
G03*
X305650Y269685I-2031J1458D01*
G01*
X300950Y276627D02*
G03*
X303354Y279567I-595J2940D01*
G01*
X305650Y269685D02*
G03*
X301120Y268226I-2500J0D01*
G01*
X302122Y277799D02*
G03*
X302854Y279567I-1768J1768D01*
G01*
X302122Y277799D02*
G03*
X302854Y279567I-1768J1768D01*
G01*
X303287Y292913D02*
G03*
X303287Y292913I-2500J0D01*
G01*
X303787D02*
G03*
X303787Y292913I-3000J0D01*
G01*
X303354Y279567D02*
G03*
X297414Y280162I-3000J0D01*
G01*
X302854Y279567D02*
G03*
X298587Y281335I-2500J0D01*
G01*
X302854Y279567D02*
G03*
X298587Y281335I-2500J0D01*
G01*
X284059Y266807D02*
G03*
X283327Y265039I1768J-1768D01*
G01*
X284059Y266807D02*
G03*
X283327Y265039I1768J-1768D01*
G01*
X423185Y265354D02*
G03*
X423185Y265354I-3500J0D01*
G01*
X397329Y86530D02*
G03*
X403065Y80793I1490J-4246D01*
G01*
X403319Y72284D02*
G03*
X403319Y72284I-4500J0D01*
G01*
Y62283D02*
G03*
X403319Y62283I-4500J0D01*
G01*
Y52284D02*
G03*
X403319Y52284I-4500J0D01*
G01*
X355358Y240945D02*
G03*
X355358Y240945I-2500J0D01*
G01*
X355858D02*
G03*
X355858Y240945I-3000J0D01*
G01*
X317067D02*
G03*
X317067Y240945I-2500J0D01*
G01*
X305650Y254409D02*
G03*
X305179Y255868I-2500J0D01*
G01*
X301119Y255867D02*
G03*
X305650Y254409I2031J-1458D01*
G01*
X317567Y240945D02*
G03*
X317567Y240945I-3000J0D01*
G01*
X351697Y97047D02*
G03*
X351697Y97047I-3665J0D01*
G01*
Y83268D02*
G03*
X351697Y83268I-3665J0D01*
G01*
X351382Y60236D02*
G03*
X351382Y60236I-3469J0D01*
G01*
Y52362D02*
G03*
X351382Y52362I-3469J0D01*
G01*
X287595Y111618D02*
G03*
X288327Y113386I-1768J1768D01*
G01*
X287595Y111618D02*
G03*
X288327Y113386I-1768J1768D01*
G01*
X256926Y219456D02*
G03*
X257449Y220372I-1414J1414D01*
G01*
X256923Y219453D02*
G03*
X257449Y220372I-1411J1417D01*
G01*
X260860Y191895D02*
G03*
X261449Y193313I-1411J1417D01*
G01*
X260863Y191898D02*
G03*
X261449Y193313I-1414J1414D01*
G01*
X243865Y255354D02*
G03*
X243276Y253937I1411J-1417D01*
G01*
X247776Y247638D02*
G03*
X247305Y249097I-2500J0D01*
G01*
X243245Y249096D02*
G03*
X247776Y247638I2031J-1458D01*
G01*
X243861Y255351D02*
G03*
X243276Y253937I1414J-1414D01*
G01*
X219318Y240555D02*
G03*
X219318Y240555I-4359J0D01*
G01*
X215718D02*
G03*
X215718Y240555I-759J0D01*
G01*
X234102Y230713D02*
G03*
X234102Y230713I-3000J0D01*
G01*
X193839Y238189D02*
G03*
X193839Y238189I-2500J0D01*
G01*
X194339D02*
G03*
X194339Y238189I-3000J0D01*
G01*
X93279Y240551D02*
G03*
X93279Y240551I-759J0D01*
G01*
X96879D02*
G03*
X96879Y240551I-4359J0D01*
G01*
X233602Y230713D02*
G03*
X233602Y230713I-2500J0D01*
G01*
X214556Y182786D02*
G03*
X217428Y179916I405J-2467D01*
G01*
X214554Y151290D02*
G03*
X217426Y148419I405J-2467D01*
G01*
X237646Y139374D02*
G03*
X237646Y139374I-3000J0D01*
G01*
X237146D02*
G03*
X237146Y139374I-2500J0D01*
G01*
X218531Y129532D02*
G03*
X218531Y129532I-3572J0D01*
G01*
X257287Y88382D02*
G03*
X260823Y84846I1768J-1768D01*
G01*
X257287Y88382D02*
G03*
X260823Y84846I1768J-1768D01*
G01*
X258460Y89555D02*
G03*
X261996Y86019I595J-2940D01*
G01*
X253106Y64567D02*
G03*
X253106Y64567I-3500J0D01*
G01*
X252106D02*
G03*
X252106Y64567I-2500J0D01*
G01*
X209571D02*
G03*
X209571Y64567I-4453J0D01*
G01*
X75941Y139370D02*
G03*
X75941Y139370I-3500J0D01*
G01*
X183996Y92795D02*
G03*
X183996Y92795I-2500J0D01*
G01*
X184496D02*
G03*
X184496Y92795I-3000J0D01*
G01*
X96988Y68504D02*
G03*
X96988Y68504I-2500J0D01*
G01*
X74941Y139370D02*
G03*
X74941Y139370I-2500J0D01*
G01*
X96091Y129528D02*
G03*
X96091Y129528I-3572J0D01*
G01*
X97988Y68504D02*
G03*
X97988Y68504I-3500J0D01*
G01*
X435827Y208268D02*
X441748D01*
X435827D02*
Y214189D01*
Y202346D02*
Y208268D01*
X429906D02*
X435827D01*
Y128937D02*
X438992D01*
X435827D02*
Y132102D01*
X432661Y128937D02*
X435827D01*
Y125772D02*
Y128937D01*
X436221Y96457D02*
Y99425D01*
Y96457D02*
X439189D01*
X433252D02*
X436221D01*
Y93488D02*
Y96457D01*
X398819Y122283D02*
X402819D01*
X394819D02*
X398819D01*
Y118283D02*
Y122283D01*
Y126284D01*
X441959Y346000D02*
X448095D01*
X440924Y348000D02*
X446095D01*
X442000Y345862D02*
Y352095D01*
X416142Y377953D02*
X452362Y341732D01*
X438348Y350000D02*
X444095D01*
X441897Y342000D02*
X452095D01*
X442247Y344000D02*
X450095D01*
X442000Y330831D02*
Y342327D01*
X437849Y338000D02*
X452362D01*
X440773Y340000D02*
X452362D01*
X395006Y332000D02*
X452362D01*
X434000Y350250D02*
Y360094D01*
X432000Y349251D02*
Y362094D01*
X430000Y346793D02*
Y364094D01*
X415748Y377559D02*
X416142Y377953D01*
X394000Y332446D02*
Y377559D01*
X396000Y330850D02*
Y377559D01*
X438000Y350137D02*
Y356095D01*
X436000Y350513D02*
Y358095D01*
X440000Y348975D02*
Y354095D01*
X393677Y332000D02*
X395006D01*
X394000Y331930D02*
Y332446D01*
X438000Y330831D02*
Y338052D01*
X436000Y330831D02*
Y337676D01*
X440000Y330831D02*
Y339214D01*
X429405Y330831D02*
X442248D01*
X432000D02*
Y338938D01*
X434000Y330831D02*
Y337939D01*
X442248Y324000D02*
X452362D01*
X442248Y326000D02*
X452362D01*
X442248Y322000D02*
X452362D01*
X442248Y328000D02*
X452362D01*
X442248Y330000D02*
X452362D01*
X442248Y317988D02*
Y330831D01*
X430000D02*
Y341396D01*
X429405Y317988D02*
Y330831D01*
X422000Y267979D02*
Y372094D01*
X420000Y268840D02*
Y374095D01*
X396000Y328205D02*
Y330850D01*
X418000Y268422D02*
Y376095D01*
X396270Y330000D02*
X429405D01*
X395762D02*
X396270D01*
X395889Y328000D02*
X429405D01*
X395286D02*
X395889D01*
X394000Y326609D02*
Y327126D01*
X363454Y356000D02*
X438095D01*
X392000Y332228D02*
Y377559D01*
X390000Y332028D02*
Y377559D01*
X362970Y354000D02*
X440095D01*
X362672Y358000D02*
X436095D01*
X334976Y342000D02*
X429757D01*
X336739Y334000D02*
X452362D01*
X376855Y332028D02*
X391649D01*
X393307D01*
X335630Y338000D02*
X433805D01*
X336347Y340000D02*
X430880D01*
X336039Y336000D02*
X452362D01*
X386000Y332028D02*
Y377559D01*
X384000Y332028D02*
Y377559D01*
X388000Y332028D02*
Y377559D01*
X380000Y332028D02*
Y377559D01*
X378000Y332028D02*
Y377559D01*
X382000Y332028D02*
Y377559D01*
X376000Y332028D02*
Y332418D01*
Y377559D01*
X375197Y332028D02*
X376855D01*
X373498Y332000D02*
X374827D01*
X374000Y331722D02*
Y332278D01*
X391649Y327028D02*
X393307D01*
X376855D02*
X391649D01*
X326828Y324000D02*
X429405D01*
X328828Y326000D02*
X429405D01*
X324828Y322000D02*
X429405D01*
X382000Y319873D02*
Y327028D01*
X380000Y319905D02*
Y327028D01*
X384000Y318243D02*
Y327028D01*
X380448Y320000D02*
X381442D01*
X376000Y326637D02*
Y327028D01*
X378000Y318427D02*
Y327028D01*
X375197D02*
X376855D01*
X322828Y320000D02*
X380448D01*
X442248Y318000D02*
X452362D01*
X442248Y320000D02*
X452362D01*
X440495Y280000D02*
X452362D01*
X384404Y316000D02*
X452362D01*
X429405Y317988D02*
X442248D01*
X436216Y282000D02*
X452362D01*
X442235Y276000D02*
X452362D01*
X441779Y278000D02*
X452362D01*
X442048Y274000D02*
X452362D01*
X438986Y270000D02*
X452362D01*
X441150Y272000D02*
X452362D01*
X421976Y268000D02*
X452362D01*
X440000Y280471D02*
Y317988D01*
X438000Y281633D02*
Y317988D01*
X442000Y277358D02*
Y317988D01*
X384124Y318000D02*
X429405D01*
X384000Y314828D02*
Y318243D01*
X436000Y282010D02*
Y317988D01*
X434000Y281747D02*
Y317988D01*
X432000Y280747D02*
Y317988D01*
X430000Y278289D02*
Y317988D01*
X417394Y268000D02*
X421976D01*
X440000Y262327D02*
Y270710D01*
X438000Y262327D02*
Y269548D01*
X442000Y262327D02*
Y273823D01*
X432000Y262327D02*
Y270434D01*
X430000Y262327D02*
Y272892D01*
X434000Y262327D02*
Y269435D01*
X423125Y266000D02*
X452362D01*
X429405Y262327D02*
X442248D01*
X436000D02*
Y269172D01*
X422912Y264000D02*
X452362D01*
X422100Y266000D02*
X423125D01*
X421786Y264000D02*
X422912D01*
X422000Y266298D02*
Y267979D01*
X420000Y267834D02*
Y268840D01*
X419685Y265354D02*
Y267354D01*
X418000Y267201D02*
Y268422D01*
X416245Y266000D02*
X417270D01*
X419685Y265354D02*
X421685D01*
X419685Y263354D02*
Y265354D01*
X422000Y262729D02*
Y264410D01*
X417685Y265354D02*
X419685D01*
X416458Y264000D02*
X417584D01*
X382971Y318000D02*
X384124D01*
X382000Y318802D02*
Y319873D01*
X383387Y316000D02*
X384404D01*
X381442Y320000D02*
X429405D01*
X380945Y316535D02*
X382945D01*
X383358Y314000D02*
X452362D01*
X378532D02*
X383358D01*
X382000Y313198D02*
Y314269D01*
X312828Y310000D02*
X452362D01*
X314828Y312000D02*
X452362D01*
X310828Y308000D02*
X452362D01*
X380945Y316535D02*
Y318535D01*
X380000Y318850D02*
Y319905D01*
X380945Y314535D02*
Y316535D01*
X377766Y318000D02*
X378919D01*
X320828D02*
X377766D01*
X378000Y314644D02*
Y318427D01*
X378945Y316535D02*
X380945D01*
X377486Y316000D02*
X378503D01*
X380000Y313165D02*
Y314221D01*
X318828Y316000D02*
X377486D01*
X316828Y314000D02*
X378532D01*
X306828Y304000D02*
X452362D01*
X308828Y306000D02*
X452362D01*
X304828Y302000D02*
X452362D01*
X300828Y298000D02*
X452362D01*
X302828Y300000D02*
X452362D01*
X298828Y296000D02*
X452362D01*
X370671Y292000D02*
X452362D01*
X370326Y294000D02*
X452362D01*
X369345Y290000D02*
X452362D01*
X290828Y288000D02*
X452362D01*
X288828Y286000D02*
X452362D01*
X302109Y282000D02*
X435437D01*
X303323Y280000D02*
X431159D01*
X302913Y278000D02*
X429875D01*
X286828Y284000D02*
X452362D01*
X300323Y276000D02*
X429419D01*
X298323Y274000D02*
X429606D01*
X305630Y270000D02*
X432668D01*
X305150Y268000D02*
X417394D01*
X305150Y264000D02*
X416458D01*
X304094Y272000D02*
X430503D01*
X305150Y266000D02*
X416245D01*
X362000Y358632D02*
Y377559D01*
X360000Y359287D02*
Y377559D01*
X362000Y357233D02*
Y358632D01*
X360000Y358287D02*
Y359287D01*
X362452Y356000D02*
X363454D01*
X361708Y354000D02*
X362970D01*
X362000Y352943D02*
Y354341D01*
X361124Y358000D02*
X362672D01*
X359961Y355787D02*
X361961D01*
X360000Y352288D02*
Y353288D01*
X358000Y357339D02*
Y358687D01*
Y377559D01*
X359961Y355787D02*
Y357787D01*
X357249Y358000D02*
X358797D01*
X334000Y342260D02*
Y377559D01*
X332000Y341764D02*
Y377559D01*
X359961Y353787D02*
Y355787D01*
X357961D02*
X359961D01*
X358000Y352888D02*
Y354236D01*
X356467Y356000D02*
X357470D01*
X356951Y354000D02*
X358213D01*
X374000Y332278D02*
Y377559D01*
X368000Y295506D02*
Y377559D01*
X370000Y294465D02*
Y377559D01*
X366000Y294980D02*
Y377559D01*
X372615Y328000D02*
X373218D01*
X372234Y330000D02*
X372742D01*
X374000Y326777D02*
Y327333D01*
X335338Y332000D02*
X373498D01*
X332828Y330000D02*
X372234D01*
X330828Y328000D02*
X372615D01*
X336000Y341053D02*
Y377559D01*
X331102Y341764D02*
X332230D01*
X330000Y341432D02*
Y377559D01*
X336000Y336039D02*
Y338474D01*
X334000Y336739D02*
Y337268D01*
X332000Y335338D02*
Y337764D01*
X330167Y336000D02*
X332465D01*
X330000Y332828D02*
Y335833D01*
X328000Y339490D02*
Y377559D01*
X328167Y334000D02*
X331172D01*
X326000Y337490D02*
Y377559D01*
X324000Y335490D02*
Y377559D01*
X328000Y330828D02*
Y333833D01*
X326167Y332000D02*
X329172D01*
X324167Y330000D02*
X327172D01*
X326000Y328828D02*
Y331833D01*
X322167Y328000D02*
X325172D01*
X324000Y326828D02*
Y329833D01*
X320167Y326000D02*
X323172D01*
X322000Y333490D02*
Y377559D01*
X320000Y331490D02*
Y377559D01*
X318000Y329490D02*
Y377559D01*
X316000Y327490D02*
Y377559D01*
X312000Y323490D02*
Y377559D01*
X310000Y321490D02*
Y377559D01*
X322000Y324828D02*
Y327833D01*
X318167Y324000D02*
X321172D01*
X320000Y322828D02*
Y325833D01*
X314000Y325490D02*
Y377559D01*
X316167Y322000D02*
X319172D01*
X308000Y319490D02*
Y377559D01*
X306000Y317490D02*
Y377559D01*
X304000Y315490D02*
Y377559D01*
X302000Y313490D02*
Y377559D01*
X296000Y307490D02*
Y377559D01*
X294000Y305490D02*
Y377559D01*
X318000Y320828D02*
Y323833D01*
X316000Y318828D02*
Y321833D01*
X315038Y317867D02*
X331687Y334515D01*
X313723Y319556D02*
X331931Y337764D01*
X300000Y311490D02*
Y377559D01*
X298000Y309490D02*
Y377559D01*
X282000Y293490D02*
Y377559D01*
X280000Y291490D02*
Y377559D01*
X278000Y289490D02*
Y377559D01*
X276000Y287490D02*
Y377559D01*
X274000Y285490D02*
Y377559D01*
X272000Y283490D02*
Y377559D01*
X292000Y303490D02*
Y377559D01*
X290000Y301490D02*
Y377559D01*
X288000Y299490D02*
Y377559D01*
X286000Y297490D02*
Y377559D01*
X284000Y295490D02*
Y377559D01*
X369731Y294000D02*
X370326D01*
X368000Y295004D02*
Y295506D01*
X370000Y293537D02*
Y294465D01*
X366000Y294337D02*
Y294980D01*
X303584Y294000D02*
X365107D01*
X367717Y292520D02*
Y294520D01*
X370162Y292000D02*
X370671D01*
X367717Y292520D02*
X369717D01*
X370000Y290574D02*
Y291502D01*
X365717Y292520D02*
X367717D01*
X365107Y294000D02*
X365702D01*
X364762Y292000D02*
X365271D01*
X314167Y320000D02*
X317172D01*
X314000Y319393D02*
Y319833D01*
X302000Y295100D02*
Y295657D01*
Y299172D01*
X300787Y292913D02*
Y294913D01*
X303115Y292000D02*
X303645D01*
X303039Y294000D02*
X303584D01*
X303645Y292000D02*
X364762D01*
X300787Y292913D02*
X302787D01*
X300787Y290913D02*
Y292913D01*
X367717Y290520D02*
Y292520D01*
X366000Y290059D02*
Y290702D01*
X368000Y289533D02*
Y290036D01*
X304000Y272036D02*
Y301172D01*
X366088Y290000D02*
X369345D01*
X302817Y280000D02*
X303323D01*
X301503Y290000D02*
X366088D01*
X302000Y282075D02*
Y290169D01*
Y290727D01*
X300929Y282000D02*
X302109D01*
X300072Y290000D02*
X301503D01*
X302000Y281449D02*
Y282075D01*
X302302Y278000D02*
X302913D01*
X302000Y271905D02*
Y277059D01*
Y277677D01*
X300950Y276627D02*
X302122Y277799D01*
X300000Y295286D02*
Y295808D01*
Y297172D01*
Y290019D02*
Y290541D01*
X298787Y292913D02*
X300787D01*
X300000Y282042D02*
Y282546D01*
Y290019D01*
X298599Y282000D02*
X299780D01*
X292828Y290000D02*
X300072D01*
X297991Y294000D02*
X298536D01*
X298000Y294023D02*
Y295172D01*
Y291804D02*
Y294023D01*
X297930Y292000D02*
X298460D01*
X296828Y294000D02*
X297991D01*
X294828Y292000D02*
X297930D01*
X298000Y280748D02*
Y281426D01*
Y291804D01*
X297414Y280162D02*
X298587Y281335D01*
X284828Y282000D02*
X298599D01*
X282828Y280000D02*
X297252D01*
X296000Y278748D02*
Y293172D01*
X294000Y276748D02*
Y291172D01*
X284059Y266807D02*
X297414Y280162D01*
X280828Y278000D02*
X295252D01*
X288327Y264004D02*
X300950Y276627D01*
X296323Y272000D02*
X302206D01*
X294323Y270000D02*
X300670D01*
X292323Y268000D02*
X301150D01*
X290323Y266000D02*
X301150D01*
X288327Y264000D02*
X301150D01*
X292000Y274748D02*
Y289172D01*
X290000Y272748D02*
Y287172D01*
X288000Y270748D02*
Y285172D01*
X278828Y276000D02*
X293252D01*
X286000Y268748D02*
Y283172D01*
X284000Y266746D02*
Y281172D01*
X276828Y274000D02*
X291252D01*
X274828Y272000D02*
X289252D01*
X272828Y270000D02*
X287252D01*
X452362Y255118D02*
Y341732D01*
X452000Y254756D02*
Y342094D01*
X450000Y252756D02*
Y344094D01*
X442248Y262000D02*
X452362D01*
X448000Y250756D02*
Y346094D01*
X446000Y248756D02*
Y348095D01*
X442248Y254000D02*
X451244D01*
X442248Y252000D02*
X449244D01*
X442248Y250000D02*
X447244D01*
X442248Y258000D02*
X452362D01*
X442248Y260000D02*
X452362D01*
X442248Y256000D02*
X452362D01*
X442248Y249484D02*
Y262327D01*
X429405Y249484D02*
Y262327D01*
X444000Y246756D02*
Y350095D01*
X420000Y261869D02*
Y262874D01*
X418000Y262287D02*
Y263508D01*
X429405Y249484D02*
X442248D01*
X442000Y244756D02*
Y249484D01*
X440000Y242756D02*
Y249484D01*
X418686Y262000D02*
X420684D01*
X429405D01*
X432677Y235433D02*
X452362Y255118D01*
X428000Y235039D02*
Y366094D01*
X426000Y235039D02*
Y368094D01*
X422000Y235039D02*
Y262729D01*
X420000Y235039D02*
Y261869D01*
X424000Y235039D02*
Y370094D01*
X438000Y240756D02*
Y249484D01*
X436000Y238756D02*
Y249484D01*
X434000Y236756D02*
Y249484D01*
X432000Y235039D02*
Y249484D01*
X430000Y235039D02*
Y249484D01*
X432677Y235039D02*
Y235433D01*
X414000Y235039D02*
Y377559D01*
X412000Y235039D02*
Y377559D01*
X416000Y235039D02*
Y377811D01*
X408000Y235039D02*
Y377559D01*
X400000Y235039D02*
Y377559D01*
X410000Y235039D02*
Y377559D01*
X406000Y235039D02*
Y377559D01*
X404000Y235039D02*
Y377559D01*
X418000Y235039D02*
Y262287D01*
X398000Y235039D02*
Y377559D01*
X402000Y235039D02*
Y377559D01*
X305158Y256000D02*
X429405D01*
X305150Y260000D02*
X429405D01*
X303818Y252000D02*
X429405D01*
X288327Y248000D02*
X445244D01*
X288327Y250000D02*
X429405D01*
X288327Y246000D02*
X443244D01*
X355667Y242000D02*
X439244D01*
X355706Y240000D02*
X437244D01*
X378346Y235039D02*
X432677D01*
X288327Y244000D02*
X441244D01*
X353431Y238000D02*
X435244D01*
X288327Y236000D02*
X433244D01*
X392000Y235039D02*
Y326827D01*
X390000Y235039D02*
Y327028D01*
X396000Y235039D02*
Y328205D01*
X386000Y235039D02*
Y327028D01*
X384000Y235039D02*
Y314828D01*
X388000Y235039D02*
Y327028D01*
X305616Y254000D02*
X429405D01*
X380000Y235039D02*
Y313165D01*
X382000Y235039D02*
Y313198D01*
X305150Y262000D02*
X418686D01*
X305150Y258000D02*
X429405D01*
X394000Y235039D02*
Y326609D01*
X378000Y234693D02*
Y314644D01*
X376000Y232693D02*
Y326637D01*
X374000Y230693D02*
Y326777D01*
X372000Y228693D02*
Y377559D01*
X370000Y226693D02*
Y290574D01*
X351575Y208268D02*
X378346Y235039D01*
X288327Y234000D02*
X377307D01*
X351575Y132283D02*
X397329Y86530D01*
X288327Y232000D02*
X375307D01*
X288327Y230000D02*
X373307D01*
X288327Y228000D02*
X371307D01*
X368000Y224693D02*
Y289533D01*
X366000Y222693D02*
Y290059D01*
X364000Y220693D02*
Y377559D01*
X288327Y226000D02*
X369307D01*
X362000Y218693D02*
Y352943D01*
X360000Y216693D02*
Y352288D01*
X288327Y220000D02*
X363307D01*
X288327Y218000D02*
X361307D01*
X288327Y216000D02*
X359307D01*
X288327Y224000D02*
X367307D01*
X288327Y222000D02*
X365307D01*
X403065Y80793D02*
X405118Y78740D01*
X402697Y80000D02*
X403858D01*
X401356Y76000D02*
X405118D01*
X400198Y78000D02*
X405118D01*
X403310Y72000D02*
X405118D01*
X402979Y74000D02*
X405118D01*
X402979Y64000D02*
X405118D01*
X400198Y68000D02*
X405118D01*
X402697Y70000D02*
X405118D01*
X401356Y66000D02*
X405118D01*
X402000Y75466D02*
Y79101D01*
X400000Y76626D02*
Y77941D01*
X402000Y65466D02*
Y69101D01*
X398000Y76708D02*
Y77859D01*
X396000Y85791D02*
Y87858D01*
Y75791D02*
Y78776D01*
X400000Y66626D02*
Y67941D01*
X398000Y66708D02*
Y67859D01*
X398819Y62283D02*
X402819D01*
X396000Y65791D02*
Y68776D01*
X394819Y62283D02*
X398819D01*
X405118Y46654D02*
Y78740D01*
X403310Y62000D02*
X405118D01*
X404000Y45535D02*
Y79858D01*
X400198Y58000D02*
X405118D01*
X402697Y60000D02*
X405118D01*
X403310Y52000D02*
X405118D01*
X402979Y54000D02*
X405118D01*
X402697Y50000D02*
X405118D01*
X400198Y48000D02*
X405118D01*
X401356Y56000D02*
X405118D01*
X400000Y56626D02*
Y57941D01*
X398819Y62283D02*
Y66284D01*
X402000Y55466D02*
Y59101D01*
X398819Y58284D02*
Y62283D01*
X396000Y55791D02*
Y58776D01*
X394000Y35535D02*
Y89858D01*
X402000Y43535D02*
Y49101D01*
X398000Y56708D02*
Y57859D01*
X400000Y41535D02*
Y47941D01*
X398000Y39535D02*
Y47859D01*
X396000Y37535D02*
Y48776D01*
X351544Y96000D02*
X387858D01*
X351571Y98000D02*
X385858D01*
X350475Y86000D02*
X396282D01*
X350203Y100000D02*
X383858D01*
X277976Y102000D02*
X381858D01*
X350068Y94000D02*
X389858D01*
X351623Y84000D02*
X394659D01*
X351471Y82000D02*
X394328D01*
X351374Y60000D02*
X394941D01*
X349692Y80000D02*
X394941D01*
X350900Y62000D02*
X394328D01*
X350565Y58000D02*
X397440D01*
X288327Y116000D02*
X367858D01*
X288327Y118000D02*
X365858D01*
X288327Y114000D02*
X369858D01*
X288327Y122000D02*
X361858D01*
X288327Y124000D02*
X359858D01*
X288327Y120000D02*
X363858D01*
X285977Y110000D02*
X373858D01*
X287908Y112000D02*
X371858D01*
X283977Y108000D02*
X375858D01*
X281977Y106000D02*
X377858D01*
X279977Y104000D02*
X379858D01*
X390000Y31535D02*
Y93858D01*
X388000Y29535D02*
Y95858D01*
X386000Y27535D02*
Y97858D01*
X384000Y25535D02*
Y99858D01*
X382000Y23535D02*
Y101858D01*
X380000Y21535D02*
Y103858D01*
X351363Y52000D02*
X394328D01*
X392000Y33535D02*
Y91858D01*
X378543Y20079D02*
X405118Y46654D01*
X350971Y54000D02*
X394659D01*
X350453Y50000D02*
X394941D01*
X366000Y20079D02*
Y117858D01*
X364000Y20079D02*
Y119858D01*
X368000Y20079D02*
Y115858D01*
X360000Y20079D02*
Y123858D01*
X358000Y20079D02*
Y125858D01*
X362000Y20079D02*
Y121858D01*
X376000Y20079D02*
Y107858D01*
X374000Y20079D02*
Y109858D01*
X378000Y20079D02*
Y105858D01*
X370000Y20079D02*
Y113858D01*
X372000Y20079D02*
Y111858D01*
X354000Y243169D02*
Y243719D01*
Y377559D01*
X352858Y240945D02*
Y242945D01*
X352000Y243293D02*
Y243819D01*
Y377559D01*
X355173Y240000D02*
X355706D01*
X355125Y242000D02*
X355667D01*
X354000Y238171D02*
Y238721D01*
X352858Y240945D02*
X354858D01*
X350858D02*
X352858D01*
Y238945D02*
Y240945D01*
X350050Y242000D02*
X350592D01*
X317375D02*
X350050D01*
X350000Y241856D02*
Y377559D01*
X316000Y242993D02*
Y243581D01*
Y313172D01*
X316833Y242000D02*
X317375D01*
X350011Y240000D02*
X350544D01*
X350000Y240034D02*
Y241856D01*
X317414Y240000D02*
X350011D01*
X316881D02*
X317414D01*
X316000Y238309D02*
Y238896D01*
X356000Y212693D02*
Y377559D01*
X348000Y100713D02*
Y377559D01*
X346000Y100098D02*
Y377559D01*
X340000Y20079D02*
Y377559D01*
X338000Y20079D02*
Y377559D01*
X344000Y20079D02*
Y377559D01*
X358000Y214693D02*
Y352888D01*
X352000Y238070D02*
Y238597D01*
X354000Y210693D02*
Y238171D01*
X350000Y100139D02*
Y240034D01*
X342000Y20079D02*
Y377559D01*
X334000Y20079D02*
Y331172D01*
X332000Y20079D02*
Y329172D01*
X336000Y20079D02*
Y332465D01*
X328000Y20079D02*
Y325172D01*
X326000Y20079D02*
Y323172D01*
X330000Y20079D02*
Y327172D01*
X322000Y20079D02*
Y319172D01*
X320000Y20079D02*
Y317172D01*
X324000Y20079D02*
Y321172D01*
X316000Y20079D02*
Y238309D01*
X318000Y20079D02*
Y315172D01*
X314000Y243380D02*
Y243891D01*
Y311172D01*
X314567Y240945D02*
Y242945D01*
X312000Y239392D02*
Y242498D01*
Y309172D01*
X314567Y240945D02*
X316567D01*
X312567D02*
X314567D01*
Y238945D02*
Y240945D01*
X311759Y242000D02*
X312300D01*
X288327D02*
X311759D01*
X311720Y240000D02*
X312252D01*
X301150Y256052D02*
Y268057D01*
X288327Y262000D02*
X301150D01*
X305150Y256037D02*
Y268042D01*
X288327Y258000D02*
X301150D01*
X288327Y260000D02*
X301150D01*
X288327Y256000D02*
X301137D01*
X288327Y254000D02*
X300683D01*
X288327Y252000D02*
X302481D01*
X288327Y240000D02*
X311720D01*
X308000Y20079D02*
Y305172D01*
X306000Y20079D02*
Y303172D01*
X310000Y20079D02*
Y307172D01*
X298000Y20079D02*
Y273677D01*
X296000Y20079D02*
Y271677D01*
X300000Y20079D02*
Y275677D01*
X314000Y237999D02*
Y238510D01*
X312000Y20079D02*
Y239392D01*
X302000Y20079D02*
Y252189D01*
X304000Y20079D02*
Y252058D01*
X282000Y113095D02*
Y279172D01*
X280000Y111095D02*
Y277172D01*
X294000Y20079D02*
Y269677D01*
X278000Y109095D02*
Y275172D01*
X276000Y107095D02*
Y273172D01*
X274000Y105095D02*
Y271172D01*
X290000Y20079D02*
Y265677D01*
X288327Y113386D02*
X288327Y264004D01*
X292000Y20079D02*
Y267677D01*
X283327Y114421D02*
X283327Y265039D01*
X272000Y103095D02*
Y269172D01*
X352286Y238000D02*
X353431D01*
X315139D02*
X352286D01*
X352000Y208693D02*
Y238070D01*
X288327Y180000D02*
X351575D01*
X288327Y182000D02*
X351575D01*
X288327Y178000D02*
X351575D01*
X288327Y154000D02*
X351575D01*
X288327Y162000D02*
X351575D01*
X288327Y174000D02*
X351575D01*
X288327Y176000D02*
X351575D01*
X288327Y172000D02*
X351575D01*
X313995Y238000D02*
X315139D01*
X288327D02*
X313995D01*
X351575Y132283D02*
Y208268D01*
X288327Y158000D02*
X351575D01*
X288327Y160000D02*
X351575D01*
X288327Y156000D02*
X351575D01*
X350000Y86360D02*
Y93955D01*
X348000Y86933D02*
Y93382D01*
X348031Y83268D02*
Y86433D01*
X288327Y152000D02*
X351575D01*
X346000Y86319D02*
Y93996D01*
X354000Y20079D02*
Y129858D01*
X352000Y20079D02*
Y131858D01*
X356000Y20079D02*
Y127858D01*
X348031Y83268D02*
X351197D01*
X348031Y80102D02*
Y83268D01*
X350000Y55133D02*
Y57465D01*
Y63007D02*
Y80176D01*
Y20079D02*
Y49591D01*
X347913Y60236D02*
X350882D01*
X348000Y63704D02*
Y79602D01*
X347913Y60236D02*
Y63205D01*
Y57268D02*
Y60236D01*
X344866Y83268D02*
X348031D01*
X346000Y63129D02*
Y80217D01*
X314000Y20079D02*
Y237999D01*
X348000Y55830D02*
Y56769D01*
X346000Y55255D02*
Y57343D01*
X348000Y20079D02*
Y48895D01*
X344945Y60236D02*
X347913D01*
X346000Y20079D02*
Y49469D01*
X288327Y206000D02*
X351575D01*
X288327Y208000D02*
X351575D01*
X288327Y204000D02*
X351575D01*
X288327Y214000D02*
X357307D01*
X288327Y212000D02*
X355307D01*
X288327Y210000D02*
X353307D01*
X288327Y194000D02*
X351575D01*
X288327Y196000D02*
X351575D01*
X288327Y192000D02*
X351575D01*
X288327Y200000D02*
X351575D01*
X288327Y202000D02*
X351575D01*
X288327Y198000D02*
X351575D01*
X288327Y170000D02*
X351575D01*
X288327Y184000D02*
X351575D01*
X288327Y168000D02*
X351575D01*
X288327Y188000D02*
X351575D01*
X288327Y190000D02*
X351575D01*
X288327Y186000D02*
X351575D01*
X288327Y164000D02*
X351575D01*
X288327Y166000D02*
X351575D01*
X288327Y150000D02*
X351575D01*
X288327Y148000D02*
X351575D01*
X288327Y146000D02*
X351575D01*
X288327Y136000D02*
X351575D01*
X288327Y138000D02*
X351575D01*
X288327Y134000D02*
X351575D01*
X288327Y142000D02*
X351575D01*
X288327Y144000D02*
X351575D01*
X288327Y140000D02*
X351575D01*
X288327Y130000D02*
X353858D01*
X288327Y132000D02*
X351858D01*
X288327Y128000D02*
X355858D01*
X288327Y126000D02*
X357858D01*
X275976Y100000D02*
X345860D01*
X288000Y20079D02*
Y112150D01*
X284000Y20079D02*
Y108024D01*
X282000Y20079D02*
Y106024D01*
X286000Y20079D02*
Y110023D01*
X278000Y20079D02*
Y102023D01*
X276000Y20079D02*
Y100023D01*
X280000Y20079D02*
Y104024D01*
X273976Y98000D02*
X344492D01*
X274000Y20079D02*
Y98023D01*
X56849Y376000D02*
X418094D01*
X58408Y377559D02*
X415748D01*
X54849Y374000D02*
X420094D01*
X50849Y370000D02*
X424094D01*
X52849Y372000D02*
X422094D01*
X48849Y368000D02*
X426094D01*
X44849Y364000D02*
X430094D01*
X46849Y366000D02*
X428094D01*
X42849Y362000D02*
X432094D01*
X40849Y360000D02*
X434094D01*
X38849Y358000D02*
X357249D01*
X36849Y356000D02*
X356467D01*
X270000Y281490D02*
Y377559D01*
X268000Y279490D02*
Y377559D01*
X266000Y277490D02*
Y377559D01*
X264000Y275490D02*
Y377559D01*
X262000Y273490D02*
Y377559D01*
X256000Y267490D02*
Y377559D01*
X270828Y268000D02*
X285252D01*
X260000Y271490D02*
Y377559D01*
X268828Y266000D02*
X283519D01*
X258000Y269490D02*
Y377559D01*
X254000Y265490D02*
Y377559D01*
X264828Y262000D02*
X283327D01*
X266828Y264000D02*
X283327D01*
X262828Y260000D02*
X283327D01*
X261449Y258620D02*
X334504Y331676D01*
X261449Y258000D02*
X283327D01*
X243865Y255354D02*
X329685Y341175D01*
X261449Y248000D02*
X283327D01*
X261449Y250000D02*
X283327D01*
X261449Y246000D02*
X283327D01*
X261449Y254000D02*
X283327D01*
X261449Y256000D02*
X283327D01*
X261449Y252000D02*
X283327D01*
X253512Y221698D02*
Y259345D01*
X252167Y258000D02*
X253512D01*
X261449Y193313D02*
Y258620D01*
X250167Y256000D02*
X253512D01*
X252000Y263490D02*
Y377559D01*
X247276Y253109D02*
X253512Y259345D01*
X247276Y252000D02*
X253512D01*
X248167Y254000D02*
X253512D01*
X247749Y248000D02*
X253512D01*
X247276Y250000D02*
X253512D01*
X247164Y246000D02*
X253512D01*
X32849Y352000D02*
X442095D01*
X34849Y354000D02*
X356951D01*
X30849Y350000D02*
X433305D01*
X28849Y348000D02*
X430730D01*
X26849Y346000D02*
X429695D01*
X24849Y344000D02*
X429406D01*
X22849Y342000D02*
X332740D01*
X20849Y340000D02*
X328510D01*
X19685Y338000D02*
X326510D01*
X19685Y336000D02*
X324510D01*
X19685Y334000D02*
X322510D01*
X19685Y332000D02*
X320510D01*
X19685Y324000D02*
X312510D01*
X19685Y322000D02*
X310510D01*
X19685Y320000D02*
X308510D01*
X19685Y330000D02*
X318510D01*
X19685Y328000D02*
X316510D01*
X19685Y326000D02*
X314510D01*
X19685Y314000D02*
X302510D01*
X19685Y312000D02*
X300510D01*
X19685Y310000D02*
X298510D01*
X19685Y318000D02*
X306510D01*
X19685Y316000D02*
X304510D01*
X19685Y302000D02*
X290510D01*
X19685Y300000D02*
X288510D01*
X19685Y298000D02*
X286510D01*
X19685Y308000D02*
X296510D01*
X19685Y306000D02*
X294510D01*
X19685Y304000D02*
X292510D01*
X19685Y290000D02*
X278510D01*
X19685Y288000D02*
X276510D01*
X19685Y286000D02*
X274510D01*
X19685Y296000D02*
X284510D01*
X19685Y294000D02*
X282510D01*
X19685Y292000D02*
X280510D01*
X19685Y278000D02*
X266510D01*
X19685Y276000D02*
X264510D01*
X19685Y274000D02*
X262510D01*
X19685Y284000D02*
X272510D01*
X19685Y282000D02*
X270510D01*
X19685Y280000D02*
X268510D01*
X19685Y268000D02*
X256510D01*
X19685Y266000D02*
X254510D01*
X19685Y264000D02*
X252510D01*
X19685Y272000D02*
X260510D01*
X19685Y270000D02*
X258510D01*
X261449Y236000D02*
X283327D01*
X261449Y238000D02*
X283327D01*
X261449Y234000D02*
X283327D01*
X261449Y242000D02*
X283327D01*
X261449Y244000D02*
X283327D01*
X261449Y240000D02*
X283327D01*
X261449Y224000D02*
X283327D01*
X261449Y226000D02*
X283327D01*
X261449Y222000D02*
X283327D01*
X261449Y230000D02*
X283327D01*
X261449Y232000D02*
X283327D01*
X261449Y228000D02*
X283327D01*
X261449Y220000D02*
X283327D01*
X261449Y218000D02*
X283327D01*
X255470D02*
X257449D01*
X253470Y216000D02*
X257449D01*
X261449Y214000D02*
X283327D01*
X261449Y216000D02*
X283327D01*
X261449Y212000D02*
X283327D01*
X251470Y214000D02*
X257449D01*
X249470Y212000D02*
X257449D01*
X261449Y200000D02*
X283327D01*
X261449Y202000D02*
X283327D01*
X261449Y198000D02*
X283327D01*
X261449Y206000D02*
X283327D01*
X261449Y208000D02*
X283327D01*
X261449Y204000D02*
X283327D01*
X261449Y194000D02*
X283327D01*
X261449Y196000D02*
X283327D01*
X260958Y192000D02*
X283327D01*
X254965Y186000D02*
X283327D01*
X256965Y188000D02*
X283327D01*
X252965Y184000D02*
X283327D01*
X261449Y210000D02*
X283327D01*
X257449Y194141D02*
Y220372D01*
X256000Y192692D02*
Y218530D01*
X247470Y210000D02*
X257449D01*
X254000Y190692D02*
Y216530D01*
X252000Y188692D02*
Y214530D01*
X258965Y190000D02*
X283327D01*
X250965Y182000D02*
X283327D01*
X248965Y180000D02*
X283327D01*
X243470Y206000D02*
X257449D01*
X245470Y208000D02*
X257449D01*
X241470Y204000D02*
X257449D01*
X19685Y234000D02*
X253512D01*
X193390Y236000D02*
X253512D01*
X233812Y232000D02*
X253512D01*
X237470Y200000D02*
X257449D01*
X239470Y202000D02*
X257449D01*
X235470Y198000D02*
X257449D01*
X233470Y196000D02*
X257449D01*
X231470Y194000D02*
X257308D01*
X229470Y192000D02*
X255308D01*
X234016Y230000D02*
X253512D01*
X219283Y240000D02*
X253512D01*
X232384Y228000D02*
X253512D01*
X219072Y242000D02*
X253512D01*
X217630Y244000D02*
X253512D01*
X218491Y238000D02*
X253512D01*
X19685Y222000D02*
X253512D01*
X227470Y190000D02*
X253308D01*
X214708Y182895D02*
X253512Y221698D01*
X19685Y226000D02*
X253512D01*
X19685Y224000D02*
X253512D01*
X244965Y176000D02*
X283327D01*
X246965Y178000D02*
X283327D01*
X242965Y174000D02*
X283327D01*
X238965Y170000D02*
X283327D01*
X240965Y172000D02*
X283327D01*
X236965Y168000D02*
X283327D01*
X232965Y164000D02*
X283327D01*
X234965Y166000D02*
X283327D01*
X230965Y162000D02*
X283327D01*
X228965Y160000D02*
X283327D01*
X226965Y158000D02*
X283327D01*
X222965Y154000D02*
X283327D01*
X224965Y156000D02*
X283327D01*
X220965Y152000D02*
X283327D01*
X214707Y151399D02*
X257449Y194141D01*
X217526Y180056D02*
X256923Y219453D01*
X217524Y148560D02*
X260860Y191895D01*
X217320Y148000D02*
X283327D01*
X218965Y150000D02*
X283327D01*
X236096Y142000D02*
X283327D01*
X19685Y146000D02*
X283327D01*
X19685Y144000D02*
X283327D01*
X250000Y261490D02*
Y377559D01*
X248000Y259490D02*
Y377559D01*
X246000Y257490D02*
Y377559D01*
X244000Y255490D02*
Y377559D01*
X218000Y243678D02*
Y377559D01*
X247276Y249266D02*
Y253109D01*
X243276Y249281D02*
Y253937D01*
X216000Y244788D02*
Y377559D01*
X214441Y240000D02*
X215477D01*
X214000Y244807D02*
Y377559D01*
X212000Y243756D02*
Y377559D01*
X194000Y239574D02*
Y377559D01*
X194333Y238000D02*
X211427D01*
X193831D02*
X194333D01*
X194000Y236805D02*
Y239574D01*
X193062Y240000D02*
X193730D01*
X210635D01*
X242000Y210187D02*
Y377559D01*
X240000Y208187D02*
Y377559D01*
X238000Y206187D02*
Y377559D01*
X234000Y231490D02*
Y377559D01*
X232000Y233575D02*
Y377559D01*
X236000Y204187D02*
Y377559D01*
X252000Y220187D02*
Y257833D01*
X250000Y218187D02*
Y255833D01*
X248000Y216187D02*
Y253833D01*
X246000Y214187D02*
Y245245D01*
X244000Y212187D02*
Y245488D01*
X230000Y233503D02*
Y377559D01*
X228000Y196187D02*
Y377559D01*
X226000Y194187D02*
Y377559D01*
X224000Y192187D02*
Y377559D01*
X222000Y190187D02*
Y377559D01*
X220000Y188187D02*
Y377559D01*
X232000Y233046D02*
Y233575D01*
X230000Y232956D02*
Y233503D01*
X218000Y186187D02*
Y237432D01*
X216000Y184187D02*
Y236322D01*
X214000Y182627D02*
Y236303D01*
X19685Y262000D02*
X250510D01*
X19685Y260000D02*
X248510D01*
X192000Y241115D02*
Y377559D01*
X19685Y258000D02*
X246510D01*
X19685Y256000D02*
X244510D01*
X19685Y254000D02*
X243277D01*
X19685Y246000D02*
X243387D01*
X95186Y244000D02*
X212288D01*
X96631Y242000D02*
X210846D01*
X19685Y250000D02*
X243276D01*
X19685Y252000D02*
X243276D01*
X19685Y248000D02*
X242802D01*
X96000Y243176D02*
Y377559D01*
X94000Y244651D02*
Y377559D01*
X190000Y240874D02*
Y377559D01*
X92000Y244879D02*
Y377559D01*
X19685Y338836D02*
X58408Y377559D01*
X90000Y244108D02*
Y377559D01*
X192000Y240600D02*
Y241115D01*
X190000Y240300D02*
Y240874D01*
X188947Y240000D02*
X189615D01*
X19685Y244000D02*
X89854D01*
X19685Y242000D02*
X88408D01*
X191339Y238189D02*
X193339D01*
X191339D02*
Y240189D01*
Y236189D02*
Y238189D01*
X96844Y240000D02*
X188947D01*
X192546Y236000D02*
X193390D01*
X190000Y235504D02*
Y236077D01*
X192000Y235263D02*
Y235778D01*
X189339Y238189D02*
X191339D01*
X189287Y236000D02*
X190131D01*
X19685D02*
X189287D01*
X92000Y239998D02*
Y241104D01*
X74000Y142504D02*
Y377559D01*
X72000Y142842D02*
Y377559D01*
X70000Y141878D02*
Y377559D01*
X96054Y238000D02*
X188345D01*
X91998Y240000D02*
X93042D01*
X188345Y238000D02*
X188846D01*
X19685Y240000D02*
X88196D01*
X19685Y238000D02*
X88985D01*
X234000Y202187D02*
Y229936D01*
Y231490D01*
X250000Y186692D02*
Y212530D01*
X233499Y230000D02*
X234016D01*
X233245Y232000D02*
X233812D01*
X225470Y188000D02*
X251308D01*
X248000Y184692D02*
Y210530D01*
X246000Y182692D02*
Y208530D01*
X223470Y186000D02*
X249308D01*
X221470Y184000D02*
X247308D01*
X219470Y182000D02*
X245308D01*
X231102Y230713D02*
X233102D01*
X231102D02*
Y232713D01*
Y228713D02*
Y230713D01*
X229102D02*
X231102D01*
X228393Y232000D02*
X228959D01*
X228188Y230000D02*
X228706D01*
X232000Y227850D02*
Y228379D01*
X230000Y227923D02*
Y228469D01*
X232000Y200187D02*
Y227850D01*
X229821Y228000D02*
X232384D01*
X230000Y198187D02*
Y227923D01*
X244000Y180692D02*
Y206530D01*
X242000Y178692D02*
Y204530D01*
X240000Y176692D02*
Y202530D01*
X238000Y174692D02*
Y200530D01*
X236000Y172692D02*
Y198530D01*
X234000Y170692D02*
Y196530D01*
X236000Y142051D02*
Y167035D01*
X234000Y142304D02*
Y165035D01*
Y141789D02*
Y142304D01*
X217490Y180000D02*
X243308D01*
X215895Y178000D02*
X241308D01*
X233195Y142000D02*
X236096D01*
X232000Y168692D02*
Y194530D01*
X230000Y166692D02*
Y192530D01*
X228000Y164692D02*
Y190530D01*
X226000Y162692D02*
Y188530D01*
X224000Y160692D02*
Y186530D01*
X222000Y158692D02*
Y184530D01*
X220000Y156692D02*
Y182530D01*
X218000Y154692D02*
Y180530D01*
X216000Y152692D02*
Y178045D01*
X214000Y151132D02*
Y178011D01*
X19685Y216000D02*
X247813D01*
X19685Y214000D02*
X245813D01*
X19685Y212000D02*
X243813D01*
X19685Y220000D02*
X251813D01*
X19685Y228000D02*
X229821D01*
X19685Y218000D02*
X249813D01*
X19685Y204000D02*
X235813D01*
X19685Y202000D02*
X233813D01*
X19685Y200000D02*
X231813D01*
X19685Y210000D02*
X241813D01*
X19685Y208000D02*
X239813D01*
X19685Y206000D02*
X237813D01*
X19685Y196000D02*
X227813D01*
X19685Y194000D02*
X225813D01*
X19685Y192000D02*
X223813D01*
X19685Y232000D02*
X228393D01*
X19685Y230000D02*
X228188D01*
X19685Y198000D02*
X229813D01*
X19685Y186000D02*
X217813D01*
X19685Y184000D02*
X215813D01*
X19685Y182000D02*
X213110D01*
X19685Y190000D02*
X221813D01*
X19685Y188000D02*
X219813D01*
X19685Y170000D02*
X233308D01*
X19685Y168000D02*
X231308D01*
X19685Y166000D02*
X229308D01*
X19685Y176000D02*
X239308D01*
X19685Y174000D02*
X237308D01*
X19685Y172000D02*
X235308D01*
X19685Y160000D02*
X223308D01*
X19685Y158000D02*
X221308D01*
X74750Y142000D02*
X233195D01*
X19685Y164000D02*
X227308D01*
X19685Y162000D02*
X225308D01*
X19685Y154000D02*
X217308D01*
X19685Y152000D02*
X215308D01*
X19685Y178000D02*
X214026D01*
X19685Y180000D02*
X212481D01*
X19685Y156000D02*
X219308D01*
X19685Y150000D02*
X212754D01*
X70131Y142000D02*
X74750D01*
X72000Y141831D02*
Y142842D01*
X19685Y148000D02*
X212598D01*
X19685Y142000D02*
X70131D01*
X270000Y101095D02*
Y267172D01*
X268000Y99095D02*
Y265172D01*
X266000Y97095D02*
Y263172D01*
X264000Y95095D02*
Y261172D01*
X271976Y96000D02*
X344519D01*
X237580Y140000D02*
X283327D01*
X269976Y94000D02*
X345994D01*
X237313Y138000D02*
X283327D01*
X237066Y140000D02*
X237580D01*
X236734Y138000D02*
X237313D01*
X236000Y141475D02*
Y142051D01*
X234646Y139374D02*
Y141374D01*
X232646Y139374D02*
X234646D01*
X231712Y140000D02*
X232225D01*
X232000Y140788D02*
Y163035D01*
Y137960D02*
Y140788D01*
X234646Y139374D02*
X236646D01*
X234646Y137374D02*
Y139374D01*
X236000Y136697D02*
Y137273D01*
X231979Y138000D02*
X232557D01*
X234000Y136444D02*
Y136959D01*
X262000Y93095D02*
Y259172D01*
X260000Y91095D02*
Y191035D01*
X258000Y89423D02*
Y189035D01*
X254000Y20079D02*
Y185035D01*
X252000Y67120D02*
Y183035D01*
X256000Y20079D02*
Y187035D01*
X270000Y20079D02*
Y94024D01*
X268000Y20079D02*
Y92023D01*
X272000Y20079D02*
Y96023D01*
X267976Y92000D02*
X391858D01*
X258460Y89555D02*
X283327Y114421D01*
X261996Y86019D02*
X287595Y111618D01*
X250000Y68045D02*
Y181035D01*
X248000Y67677D02*
Y179035D01*
X246000Y20079D02*
Y177035D01*
X242000Y20079D02*
Y173035D01*
X240000Y20079D02*
Y171035D01*
X244000Y20079D02*
Y175035D01*
X236000Y20079D02*
Y136697D01*
X234000Y20079D02*
Y136444D01*
X238000Y20079D02*
Y169035D01*
X230000Y20079D02*
Y161035D01*
X232000Y20079D02*
Y137960D01*
X218500Y130000D02*
X283327D01*
X217540Y132000D02*
X283327D01*
X218186Y128000D02*
X283327D01*
X19685Y134000D02*
X283327D01*
X73386Y136000D02*
X283327D01*
X215493Y126000D02*
X283327D01*
X19685Y116000D02*
X283327D01*
X19685Y118000D02*
X283327D01*
X19685Y114000D02*
X282905D01*
X19685Y122000D02*
X283327D01*
X19685Y124000D02*
X283327D01*
X19685Y120000D02*
X283327D01*
X216000Y132948D02*
Y146550D01*
X214000Y132972D02*
Y146514D01*
X218000Y131405D02*
Y149035D01*
X75662Y138000D02*
X231979D01*
X75884Y140000D02*
X231712D01*
X212000Y131532D02*
Y237354D01*
X95748Y128000D02*
X211732D01*
X96060Y130000D02*
X211418D01*
X95097Y132000D02*
X212378D01*
X93079Y126000D02*
X214425D01*
X19685Y112000D02*
X280905D01*
X226000Y20079D02*
Y157035D01*
X228000Y20079D02*
Y159035D01*
X19685Y110000D02*
X278905D01*
X19685Y108000D02*
X276905D01*
X19685Y106000D02*
X274905D01*
X19685Y98000D02*
X266905D01*
X19685Y96000D02*
X264905D01*
X184244Y94000D02*
X262905D01*
X19685Y104000D02*
X272905D01*
X19685Y102000D02*
X270905D01*
X19685Y100000D02*
X268905D01*
X222000Y20079D02*
Y153035D01*
X210000Y20079D02*
Y377559D01*
X224000Y20079D02*
Y155035D01*
X206000Y68932D02*
Y377559D01*
X204000Y68877D02*
Y377559D01*
X208000Y67961D02*
Y377559D01*
X218000Y20079D02*
Y127658D01*
X216000Y20079D02*
Y126115D01*
X220000Y20079D02*
Y151035D01*
X212000Y20079D02*
Y127531D01*
X214000Y20079D02*
Y126091D01*
X263977Y88000D02*
X395858D01*
X265977Y90000D02*
X393858D01*
X260823Y84846D02*
X261996Y86019D01*
X261992Y86000D02*
X345588D01*
X260527Y84000D02*
X344440D01*
X260000Y83767D02*
Y84300D01*
X250288Y68000D02*
X397440D01*
X257583Y84000D02*
X260527D01*
X252800Y66000D02*
X396282D01*
X257287Y88382D02*
X258460Y89555D01*
X258000Y89095D02*
Y89423D01*
Y83806D02*
Y84348D01*
X256394Y88000D02*
X256974D01*
X256119Y86000D02*
X256632D01*
X250000Y67036D02*
Y68045D01*
X251655Y66000D02*
X252800D01*
X248925Y68000D02*
X250288D01*
X252000Y65288D02*
Y67120D01*
X248000Y66483D02*
Y67677D01*
X246413Y66000D02*
X247558D01*
X264000Y20079D02*
Y88024D01*
X262000Y20079D02*
Y86023D01*
X266000Y20079D02*
Y90023D01*
X258000Y20079D02*
Y83806D01*
X260000Y20079D02*
Y83767D01*
X253060Y64000D02*
X394659D01*
X252041D02*
X253060D01*
X252000Y20079D02*
Y62014D01*
Y63846D01*
X251986Y62000D02*
X344927D01*
X249606Y64567D02*
X251606D01*
X249606D02*
Y66567D01*
Y62567D02*
Y64567D01*
X247606D02*
X249606D01*
X246152Y64000D02*
X247171D01*
X248000Y61457D02*
Y62651D01*
X250000Y20079D02*
Y61089D01*
Y62098D01*
X248000Y20079D02*
Y61457D01*
X247227Y62000D02*
X251986D01*
X209571Y50114D02*
Y59020D01*
X184389Y92000D02*
X260905D01*
X182585Y90000D02*
X258905D01*
X19685Y82000D02*
X344592D01*
X19685Y78000D02*
X397440D01*
X19685Y80000D02*
X346371D01*
X19685Y76000D02*
X396282D01*
X97652Y70000D02*
X394941D01*
X209571Y58000D02*
X345262D01*
X209571Y56000D02*
X396282D01*
X19685Y74000D02*
X394659D01*
X94654Y72000D02*
X394328D01*
X19685Y60000D02*
X344453D01*
X207954Y68000D02*
X248925D01*
X209334Y66000D02*
X246413D01*
X19685Y88000D02*
X256394D01*
X19685Y86000D02*
X256119D01*
X19685Y84000D02*
X257583D01*
X208756Y62000D02*
X247227D01*
X209535Y64000D02*
X246152D01*
X208000Y59020D02*
Y61173D01*
X200665Y59020D02*
X209571D01*
X206000D02*
Y60202D01*
X37134Y42000D02*
X400465D01*
X39134Y40000D02*
X398465D01*
X41134Y38000D02*
X396465D01*
X33134Y46000D02*
X404465D01*
X31134Y48000D02*
X397440D01*
X35134Y44000D02*
X402465D01*
X47134Y32000D02*
X390465D01*
X49134Y30000D02*
X388465D01*
X51134Y28000D02*
X386465D01*
X43134Y36000D02*
X394465D01*
X45134Y34000D02*
X392465D01*
X209571Y54000D02*
X344856D01*
X209571Y52000D02*
X344464D01*
X208000Y20079D02*
Y50114D01*
X200665D02*
X209571D01*
X204000Y20079D02*
Y50114D01*
X206000Y20079D02*
Y50114D01*
X55134Y24000D02*
X382465D01*
X57134Y22000D02*
X380465D01*
X59055Y20079D02*
X378543D01*
X29134Y50000D02*
X345374D01*
X53134Y26000D02*
X384465D01*
X202000Y67746D02*
Y377559D01*
X200000Y20079D02*
Y377559D01*
X198000Y20079D02*
Y377559D01*
X188000Y20079D02*
Y377559D01*
X180000Y95396D02*
Y377559D01*
X196000Y20079D02*
Y377559D01*
X192000Y20079D02*
Y235263D01*
X190000Y20079D02*
Y235504D01*
X194000Y20079D02*
Y236805D01*
X184000Y94448D02*
Y377559D01*
X182000Y95753D02*
Y377559D01*
X186000Y20079D02*
Y377559D01*
X166000Y20079D02*
Y377559D01*
X164000Y20079D02*
Y377559D01*
X168000Y20079D02*
Y377559D01*
X160000Y20079D02*
Y377559D01*
X158000Y20079D02*
Y377559D01*
X162000Y20079D02*
Y377559D01*
X176000Y20079D02*
Y377559D01*
X174000Y20079D02*
Y377559D01*
X178000Y20079D02*
Y377559D01*
X170000Y20079D02*
Y377559D01*
X172000Y20079D02*
Y377559D01*
X142000Y20079D02*
Y377559D01*
X140000Y20079D02*
Y377559D01*
X144000Y20079D02*
Y377559D01*
X136000Y20079D02*
Y377559D01*
X134000Y20079D02*
Y377559D01*
X138000Y20079D02*
Y377559D01*
X154000Y20079D02*
Y377559D01*
X152000Y20079D02*
Y377559D01*
X156000Y20079D02*
Y377559D01*
X148000Y20079D02*
Y377559D01*
X146000Y20079D02*
Y377559D01*
X150000Y20079D02*
Y377559D01*
X120000Y20079D02*
Y377559D01*
X118000Y20079D02*
Y377559D01*
X122000Y20079D02*
Y377559D01*
X114000Y20079D02*
Y377559D01*
X112000Y20079D02*
Y377559D01*
X116000Y20079D02*
Y377559D01*
X130000Y20079D02*
Y377559D01*
X128000Y20079D02*
Y377559D01*
X132000Y20079D02*
Y377559D01*
X124000Y20079D02*
Y377559D01*
X126000Y20079D02*
Y377559D01*
X50000Y29134D02*
Y369151D01*
X48000Y31134D02*
Y367151D01*
X52000Y27134D02*
Y371151D01*
X44000Y35134D02*
Y363151D01*
X42000Y37134D02*
Y361151D01*
X46000Y33134D02*
Y365151D01*
X94000Y132778D02*
Y236451D01*
X92000Y133061D02*
Y236223D01*
X96000Y130330D02*
Y237927D01*
X90000Y132059D02*
Y236994D01*
X40000Y39134D02*
Y359151D01*
X36000Y43134D02*
Y355151D01*
X34000Y45134D02*
Y353151D01*
X38000Y41134D02*
Y357151D01*
X30000Y49134D02*
Y349151D01*
X28000Y51134D02*
Y347151D01*
X32000Y47134D02*
Y351151D01*
X24000Y55134D02*
Y343151D01*
X22000Y57134D02*
Y341151D01*
X26000Y53134D02*
Y345151D01*
X19685Y59055D02*
Y338836D01*
X20000Y59055D02*
Y339151D01*
X98000Y20079D02*
Y377559D01*
X88000Y20079D02*
Y377559D01*
X100000Y20079D02*
Y377559D01*
X84000Y20079D02*
Y377559D01*
X82000Y20079D02*
Y377559D01*
X86000Y20079D02*
Y377559D01*
X108000Y20079D02*
Y377559D01*
X106000Y20079D02*
Y377559D01*
X110000Y20079D02*
Y377559D01*
X102000Y20079D02*
Y377559D01*
X104000Y20079D02*
Y377559D01*
X78000Y20079D02*
Y377559D01*
X76000Y20079D02*
Y377559D01*
X80000Y20079D02*
Y377559D01*
X66000Y20079D02*
Y377559D01*
X64000Y20079D02*
Y377559D01*
X68000Y20079D02*
Y377559D01*
X60000Y20079D02*
Y377559D01*
X58000Y21134D02*
Y377151D01*
X62000Y20079D02*
Y377559D01*
X54000Y25134D02*
Y373151D01*
X56000Y23134D02*
Y375151D01*
X183687Y94000D02*
X184244D01*
X182000Y95244D02*
Y95753D01*
X184000Y91143D02*
Y94448D01*
X181496Y92795D02*
Y94795D01*
X183866Y92000D02*
X184389D01*
X181496Y90795D02*
Y92795D01*
X182000Y89838D02*
Y90347D01*
X181496Y92795D02*
X183496D01*
X179496D02*
X181496D01*
X180407Y90000D02*
X182585D01*
X180000Y94798D02*
Y95396D01*
X178749Y94000D02*
X179306D01*
X178603Y92000D02*
X179126D01*
X96000Y71661D02*
Y128725D01*
X94000Y71970D02*
Y126277D01*
X92000Y70965D02*
Y125994D01*
X180000Y90195D02*
Y90792D01*
X96000Y70495D02*
Y71661D01*
X96491Y70000D02*
X97652D01*
X94322Y72000D02*
X94654D01*
X94000Y70956D02*
Y71970D01*
X182000Y20079D02*
Y89838D01*
X180000Y20079D02*
Y90195D01*
X184000Y20079D02*
Y91143D01*
X97952Y68000D02*
X202282D01*
X96937D02*
X97952D01*
X204000Y59020D02*
Y60257D01*
X202000Y59020D02*
Y61388D01*
Y20079D02*
Y50114D01*
X96934Y66000D02*
X200902D01*
X92043D02*
X96934D01*
X200665Y50114D02*
Y59020D01*
X94488Y68504D02*
X96488D01*
X94488D02*
Y70504D01*
Y66504D02*
Y68504D01*
X92488D02*
X94488D01*
X92000Y68747D02*
Y70965D01*
Y66042D02*
Y68261D01*
X96000Y65347D02*
Y66513D01*
X94000Y65038D02*
Y66052D01*
X96000Y20079D02*
Y65347D01*
X92000Y20079D02*
Y66042D01*
X94000Y20079D02*
Y65038D01*
X74860Y140000D02*
X75884D01*
X74000Y141324D02*
Y142504D01*
X74532Y138000D02*
X75662D01*
X72441Y139370D02*
X74441D01*
X74000Y136237D02*
Y137416D01*
X19685Y132000D02*
X89942D01*
X71496Y136000D02*
X73386D01*
X19685Y128000D02*
X89291D01*
X19685Y130000D02*
X88979D01*
X19685Y126000D02*
X91960D01*
X70441Y139370D02*
X72441D01*
Y141370D01*
Y137370D02*
Y139370D01*
X68998Y140000D02*
X70022D01*
X19685D02*
X68998D01*
X70000Y139910D02*
Y141878D01*
X69220Y138000D02*
X70350D01*
X70000Y136862D02*
Y138830D01*
X72000Y135898D02*
Y136909D01*
X19685Y138000D02*
X69220D01*
X19685Y136000D02*
X71496D01*
X19685Y94000D02*
X178749D01*
X19685Y92000D02*
X178603D01*
X19685Y90000D02*
X180407D01*
X19685Y72000D02*
X94322D01*
X19685Y64000D02*
X200702D01*
X25134Y54000D02*
X200665D01*
X23134Y56000D02*
X200665D01*
X27134Y52000D02*
X200665D01*
X19685Y62000D02*
X201480D01*
X21134Y58000D02*
X200665D01*
X91324Y70000D02*
X92485D01*
X90000Y20079D02*
Y126996D01*
X74000Y20079D02*
Y136237D01*
X19685Y70000D02*
X91324D01*
X70000Y20079D02*
Y136862D01*
X72000Y20079D02*
Y135898D01*
X91025Y68000D02*
X92040D01*
X19685D02*
X91025D01*
X20079Y59055D02*
X59055Y20079D01*
X19685Y66000D02*
X92043D01*
X19685Y59055D02*
X20079D01*
X331102Y339764D02*
X333858D01*
X259449Y259449D02*
X334252Y334252D01*
X259449Y193313D02*
Y259449D01*
X245276Y253937D02*
X331102Y339764D01*
X307087Y312205D02*
X312205Y317323D01*
X312598D01*
X255512Y260630D02*
X307087Y312205D01*
X255512Y220870D02*
Y260630D01*
X214961Y180319D02*
X255512Y220870D01*
X245276Y247638D02*
Y253937D01*
X214959Y148823D02*
X259449Y193313D01*
X303150Y254409D02*
Y269685D01*
D69*
X442498Y208268D02*
G03*
X442498Y208268I-6671J0D01*
G01*
X439742Y142717D02*
G03*
X439742Y142717I-3915J0D01*
G01*
X431597Y152066D02*
G03*
X432096Y153937I-3250J1871D01*
G01*
X431597D02*
G03*
X425097Y153937I-3250J0D01*
G01*
X431597D02*
G03*
X425097Y153937I-3250J0D01*
G01*
X439742Y128937D02*
G03*
X439742Y128937I-3915J0D01*
G01*
X439939Y96457D02*
G03*
X439939Y96457I-3718J0D01*
G01*
X432065D02*
G03*
X431597Y98264I-3718J0D01*
G01*
X432096Y153937D02*
G03*
X425097Y152066I-3750J0D01*
G01*
Y98264D02*
G03*
X432065Y96457I3250J-1807D01*
G01*
X400937Y98032D02*
G03*
X403569Y102284I-2118J4252D01*
G01*
Y112284D02*
G03*
X403569Y112284I-4750J0D01*
G01*
Y102284D02*
G03*
X394567Y104401I-4750J0D01*
G01*
X442493Y208000D02*
X449087D01*
X442269Y210000D02*
X447087D01*
X442101Y206000D02*
X451087D01*
X442000Y210797D02*
Y215087D01*
X441356Y212000D02*
X445087D01*
X442498Y192000D02*
X452756D01*
X442498Y194000D02*
X452756D01*
X442498Y190000D02*
X452756D01*
X442000Y195254D02*
Y205738D01*
X442498Y181911D02*
Y195254D01*
X439240Y214000D02*
X443087D01*
X432283Y224803D02*
X452756Y204331D01*
X440954Y204000D02*
X452756D01*
X440000Y213473D02*
Y217087D01*
X438112Y202000D02*
X452756D01*
X440000Y195254D02*
Y203063D01*
X429155Y195254D02*
X442498D01*
Y182000D02*
X452756D01*
X442498Y184000D02*
X452756D01*
X437960Y146000D02*
X452756D01*
X442498Y188000D02*
X452756D01*
X442498Y186000D02*
X452756D01*
X439676Y142000D02*
X452756D01*
X438646Y140000D02*
X452756D01*
X438000Y145973D02*
Y181911D01*
X439526Y144000D02*
X452756D01*
X432096Y154000D02*
X452756D01*
X431597Y152000D02*
X452756D01*
X431597Y150000D02*
X452756D01*
X429155Y181911D02*
X442498D01*
X431478Y156000D02*
X452756D01*
X431597Y148000D02*
X452756D01*
X431597Y138000D02*
X452756D01*
X431597Y136000D02*
X452756D01*
X438000Y214575D02*
Y219087D01*
X436000Y214937D02*
Y221087D01*
X432000Y213732D02*
Y224803D01*
X434000Y214684D02*
Y223087D01*
X438000Y195254D02*
Y201960D01*
X436000Y195254D02*
Y201599D01*
Y146628D02*
Y181911D01*
X434000Y195254D02*
Y201852D01*
X430000Y211516D02*
Y224803D01*
X432000Y195254D02*
Y202803D01*
X430000Y195254D02*
Y205019D01*
X429155Y181911D02*
Y195254D01*
X430000Y157303D02*
Y181911D01*
X432000Y154782D02*
Y181911D01*
X426000Y156862D02*
Y224803D01*
X428000Y157671D02*
Y224803D01*
X434000Y146180D02*
Y181911D01*
X431597Y146000D02*
X433694D01*
X432000Y153092D02*
Y154782D01*
X431597Y152066D02*
Y153937D01*
Y144000D02*
X432128D01*
X431597Y140000D02*
X433007D01*
X432000Y143545D02*
Y153092D01*
X431597Y142000D02*
X431978D01*
X430000Y156735D02*
Y157303D01*
X428000Y157168D02*
Y157671D01*
X430858Y156000D02*
X431478D01*
X426000Y156186D02*
Y156862D01*
X425215Y156000D02*
X425835D01*
X431596Y154000D02*
X432096D01*
X425097Y152066D02*
Y153937D01*
X452756Y66142D02*
X452756Y204331D01*
X439595Y130000D02*
X452756D01*
X439628Y128000D02*
X452756D01*
X452000Y65386D02*
Y205087D01*
X438416Y126000D02*
X452756D01*
X448000Y61386D02*
Y209087D01*
X446000Y59386D02*
Y211087D01*
X450000Y63386D02*
Y207087D01*
X444000Y57386D02*
Y213087D01*
X442000Y56968D02*
Y181911D01*
X431597Y122000D02*
X452756D01*
X431597Y124000D02*
X452756D01*
X431597Y120000D02*
X452756D01*
X431597Y134000D02*
X452756D01*
X438266Y132000D02*
X452756D01*
X431597Y114000D02*
X452756D01*
X431597Y112000D02*
X452756D01*
X431597Y118000D02*
X452756D01*
X431597Y116000D02*
X452756D01*
X439604Y98000D02*
X452756D01*
X437349Y100000D02*
X452756D01*
X439911Y96000D02*
X452756D01*
X439012Y94000D02*
X452756D01*
X434969Y64000D02*
X450614D01*
X442791Y56177D02*
X452756Y66142D01*
X436969Y62000D02*
X448614D01*
X438969Y60000D02*
X446614D01*
X440969Y58000D02*
X444614D01*
X431597Y104000D02*
X452756D01*
X431597Y106000D02*
X452756D01*
X431597Y102000D02*
X452756D01*
X431597Y110000D02*
X452756D01*
X431597Y108000D02*
X452756D01*
X426968Y72000D02*
X452756D01*
X428968Y70000D02*
X452756D01*
X430969Y68000D02*
X452756D01*
X432969Y66000D02*
X452614D01*
X438000Y132194D02*
Y139460D01*
X436000Y132849D02*
Y138805D01*
X434000Y132400D02*
Y139253D01*
X440000Y58969D02*
Y181911D01*
X438000Y99722D02*
Y125680D01*
X434000Y99439D02*
Y125474D01*
X431597Y130000D02*
X432058D01*
X431597Y132000D02*
X433388D01*
X431597Y126000D02*
X433238D01*
X432000Y129765D02*
Y141888D01*
X431597Y128000D02*
X432025D01*
X432000Y97149D02*
Y128109D01*
X425097Y98264D02*
Y152066D01*
X431597Y98264D02*
Y152066D01*
X436000Y100169D02*
Y125025D01*
X438000Y60969D02*
Y93192D01*
X434000Y64969D02*
Y93474D01*
X436000Y62968D02*
Y92745D01*
X431730Y98000D02*
X432837D01*
X431597Y100000D02*
X435092D01*
X431138Y94000D02*
X433429D01*
X432037Y96000D02*
X432530D01*
X432000Y66969D02*
Y95765D01*
X430000Y68968D02*
Y93126D01*
X426000Y72969D02*
Y93572D01*
X428000Y70969D02*
Y92754D01*
X376724Y222000D02*
X435086D01*
X374724Y220000D02*
X437086D01*
X372724Y218000D02*
X439087D01*
X379528Y224803D02*
X432283Y224803D01*
X378724Y224000D02*
X433086D01*
X370724Y216000D02*
X441087D01*
X368724Y214000D02*
X432414D01*
X366724Y212000D02*
X430297D01*
X364724Y210000D02*
X429384D01*
X362724Y208000D02*
X429161D01*
X359961Y200000D02*
X452756D01*
X359961Y202000D02*
X433542D01*
X359961Y198000D02*
X452756D01*
X360724Y206000D02*
X429553D01*
X359961Y204000D02*
X430699D01*
X359961Y196000D02*
X452756D01*
X359961Y194000D02*
X429155D01*
X359961Y192000D02*
X429155D01*
X359961Y190000D02*
X429155D01*
X359961Y182000D02*
X429155D01*
X359961Y184000D02*
X429155D01*
X359961Y180000D02*
X452756D01*
X359961Y188000D02*
X429155D01*
X359961Y186000D02*
X429155D01*
X359961Y178000D02*
X452756D01*
X359961Y176000D02*
X452756D01*
X359961Y174000D02*
X452756D01*
X359961Y166000D02*
X452756D01*
X359961Y168000D02*
X452756D01*
X359961Y164000D02*
X452756D01*
X359961Y172000D02*
X452756D01*
X359961Y170000D02*
X452756D01*
X359961Y162000D02*
X452756D01*
X359961Y160000D02*
X452756D01*
X359961Y158000D02*
X452756D01*
X359961Y156000D02*
X425215D01*
X400000Y127033D02*
Y224803D01*
X398000Y127033D02*
Y224803D01*
X424597Y154000D02*
X425097D01*
X370000Y128969D02*
Y215276D01*
X368000Y130968D02*
Y213276D01*
X402000Y127033D02*
Y224803D01*
X396000Y127033D02*
Y224803D01*
X376000Y122968D02*
Y221276D01*
X374000Y124969D02*
Y219276D01*
X372000Y126969D02*
Y217276D01*
X359961Y152000D02*
X425097D01*
X359961Y154000D02*
X424597D01*
X359961Y150000D02*
X425097D01*
X359961Y205236D02*
X379528Y224803D01*
X359961Y139008D02*
X359961Y205236D01*
X366000Y132968D02*
Y211276D01*
X364000Y134968D02*
Y209276D01*
X362000Y136969D02*
Y207276D01*
X360000Y138969D02*
Y205276D01*
X370969Y128000D02*
X425097D01*
X368969Y130000D02*
X425097D01*
X403569Y126000D02*
X425097D01*
X394069Y127033D02*
X403569D01*
X372969Y126000D02*
X394069D01*
X403569Y124000D02*
X425097D01*
X374969D02*
X394069D01*
X359961Y142000D02*
X425097D01*
X359961Y144000D02*
X425097D01*
X359961Y140000D02*
X425097D01*
X359961Y148000D02*
X425097D01*
X359961Y146000D02*
X425097D01*
X364968Y134000D02*
X425097D01*
X366968Y132000D02*
X425097D01*
X360968Y138000D02*
X425097D01*
X362968Y136000D02*
X425097D01*
X412000Y86968D02*
Y224803D01*
X410000Y88968D02*
Y224803D01*
X414000Y84969D02*
Y224803D01*
X406000Y92968D02*
Y224803D01*
X408000Y90969D02*
Y224803D01*
X422000Y76968D02*
Y224803D01*
X420000Y78969D02*
Y224803D01*
X424000Y74968D02*
Y224803D01*
X416000Y82968D02*
Y224803D01*
X418000Y80968D02*
Y224803D01*
X403569Y118000D02*
X425097D01*
X401777Y116000D02*
X425097D01*
X403248Y114000D02*
X425097D01*
X403569Y122000D02*
X425097D01*
X403569Y120000D02*
X425097D01*
X400872Y108000D02*
X425097D01*
X401777Y106000D02*
X425097D01*
X403560Y112000D02*
X425097D01*
X402984Y110000D02*
X425097D01*
X414968Y84000D02*
X452756D01*
X412968Y86000D02*
X452756D01*
X416968Y82000D02*
X452756D01*
X410968Y88000D02*
X452756D01*
X422968Y76000D02*
X452756D01*
X424968Y74000D02*
X452756D01*
X418968Y80000D02*
X452756D01*
X420968Y78000D02*
X452756D01*
X403560Y102000D02*
X425097D01*
X403248Y104000D02*
X425097D01*
X402984Y100000D02*
X425097D01*
X400969Y98000D02*
X424963D01*
X402969Y96000D02*
X424656D01*
X406968Y92000D02*
X452756D01*
X408968Y90000D02*
X452756D01*
X400937Y98032D02*
X442791Y56177D01*
X404969Y94000D02*
X425555D01*
X403569Y117534D02*
Y127033D01*
X394069Y117534D02*
X403569D01*
X394069D02*
Y127033D01*
X394000Y104969D02*
Y224803D01*
X392000Y106968D02*
Y224803D01*
X404000Y94968D02*
Y224803D01*
X388000Y110968D02*
Y224803D01*
X390000Y108968D02*
Y224803D01*
X378969Y120000D02*
X394069D01*
X376969Y122000D02*
X394069D01*
X380968Y118000D02*
X394069D01*
X380000Y118968D02*
Y224803D01*
X378000Y120968D02*
Y223276D01*
X386000Y112969D02*
Y224803D01*
X359961Y139008D02*
X394567Y104401D01*
X382000Y116969D02*
Y224803D01*
X384000Y114969D02*
Y224803D01*
X400000Y116884D02*
Y117534D01*
X398000Y116962D02*
Y117534D01*
X402000Y115811D02*
Y117534D01*
X396000Y116107D02*
Y117534D01*
X398000Y106962D02*
Y107605D01*
X402000Y105811D02*
Y108756D01*
X400000Y106884D02*
Y107683D01*
X402000Y96969D02*
Y98756D01*
X388968Y110000D02*
X394654D01*
X382968Y116000D02*
X395861D01*
X390968Y108000D02*
X396766D01*
X384968Y114000D02*
X394390D01*
X386968Y112000D02*
X394077D01*
X396000Y106107D02*
Y108460D01*
X392969Y106000D02*
X395861D01*
D70*
X428346Y96457D02*
Y153937D01*
D71*
X259055Y86614D02*
X285827Y113386D01*
X285827Y265039D01*
X300354Y279567D01*
X375197Y329528D02*
X393307D01*
D72*
X205118Y54567D02*
D03*
D73*
Y64567D02*
D03*
D74*
X428346Y96457D02*
D03*
X436221D02*
D03*
X347913Y52362D02*
D03*
Y60236D02*
D03*
D75*
X348031Y83268D02*
D03*
Y97047D02*
D03*
X435827Y128937D02*
D03*
Y142717D02*
D03*
D76*
X398819Y122283D02*
D03*
D77*
Y112284D02*
D03*
Y102284D02*
D03*
Y82284D02*
D03*
Y72284D02*
D03*
Y62283D02*
D03*
Y52284D02*
D03*
D78*
X435827Y344094D02*
D03*
Y208268D02*
D03*
X435827Y275591D02*
D03*
D79*
X435827Y324410D02*
D03*
Y188583D02*
D03*
X435827Y255906D02*
D03*
D80*
X428346Y153937D02*
D03*
D82*
X393307Y329528D02*
D03*
X249606Y64567D02*
D03*
X181496Y92795D02*
D03*
X380945Y316535D02*
D03*
X359961Y355787D02*
D03*
X231102Y230713D02*
D03*
X234646Y139374D02*
D03*
X72441Y139370D02*
D03*
X94488Y68504D02*
D03*
X419685Y265354D02*
D03*
X259055Y86614D02*
D03*
X300354Y279567D02*
D03*
X333858Y339764D02*
D03*
X334252Y334252D02*
D03*
X312598Y317323D02*
D03*
X245276Y247638D02*
D03*
X214961Y180319D02*
D03*
X214959Y148823D02*
D03*
X303150Y269685D02*
D03*
Y254409D02*
D03*
X367717Y292520D02*
D03*
X300787Y292913D02*
D03*
X191339Y238189D02*
D03*
X314567Y240945D02*
D03*
X352858D02*
D03*
X375197Y329528D02*
D03*
D84*
X452756Y19685D02*
D03*
Y377953D02*
D03*
X19685Y19685D02*
D03*
Y377953D02*
D03*
M02*
